<svg width="15" height="16" viewBox="0 0 15 16" fill="none" xmlns="http://www.w3.org/2000/svg">
<path fill-rule="evenodd" clip-rule="evenodd" d="M6.76453 0.630979C7.00394 0.45634 7.32874 0.45634 7.56815 0.630979L9.17891 1.80595L11.1727 1.80216C11.469 1.80159 11.7318 1.99251 11.8228 2.27452L12.4353 4.17189L14.0505 5.34072C14.2906 5.51444 14.391 5.82335 14.2989 6.10501L13.6791 8L14.2989 9.89499C14.391 10.1767 14.2906 10.4856 14.0505 10.6593L12.4353 11.8281L11.8228 13.7255C11.7318 14.0075 11.469 14.1984 11.1727 14.1978L9.17891 14.1941L7.56815 15.369C7.32874 15.5437 7.00394 15.5437 6.76453 15.369L5.15377 14.1941L3.16001 14.1978C2.86367 14.1984 2.60091 14.0075 2.50987 13.7255L1.89737 11.8281L0.282154 10.6593C0.0420792 10.4856 -0.0582902 10.1767 0.0338205 9.89499L0.653535 8L0.0338205 6.10501C-0.0582902 5.82335 0.0420792 5.51444 0.282154 5.34072L1.89737 4.17189L2.50987 2.27452C2.60091 1.99251 2.86368 1.80159 3.16001 1.80216L5.15377 1.80595L6.76453 0.630979ZM10.3757 5.81334C10.642 6.0796 10.642 6.51131 10.3757 6.77757L6.96664 10.1867C6.70037 10.4529 6.26867 10.4529 6.0024 10.1867L4.29786 8.48212C4.03159 8.21585 4.03159 7.78415 4.29786 7.51788C4.56413 7.25162 4.99583 7.25162 5.2621 7.51788L6.48452 8.74031L9.4115 5.81334C9.67776 5.54707 10.1095 5.54707 10.3757 5.81334Z" fill="#7A8093"/>
</svg>
