<svg width="136" height="34" viewBox="0 0 136 34" fill="none" xmlns="http://www.w3.org/2000/svg">
<mask id="path-1-inside-1_2265_4359" fill="white">
<path fill-rule="evenodd" clip-rule="evenodd" d="M115.532 0.796875L115.784 1.19983L100.396 30.3183L94.957 20.0395L105.126 0.796875H115.532Z"/>
</mask>
<path fill-rule="evenodd" clip-rule="evenodd" d="M115.532 0.796875L115.784 1.19983L100.396 30.3183L94.957 20.0395L105.126 0.796875H115.532Z" fill="#171B2C"/>
<path fill-rule="evenodd" clip-rule="evenodd" d="M115.532 0.796875L115.784 1.19983L100.396 30.3183L94.957 20.0395L105.126 0.796875H115.532Z" fill="#276EF6"/>
<path d="M115.532 0.796875L116.38 0.266525L116.086 -0.203125H115.532V0.796875ZM115.784 1.19983L116.668 1.66706L116.937 1.1578L116.632 0.669477L115.784 1.19983ZM100.396 30.3183L99.5117 30.786L100.396 32.4576L101.28 30.7856L100.396 30.3183ZM94.957 20.0395L94.0729 19.5723L93.8258 20.0398L94.0731 20.5072L94.957 20.0395ZM105.126 0.796875V-0.203125H104.524L104.242 0.329638L105.126 0.796875ZM114.684 1.32722L114.936 1.73018L116.632 0.669477L116.38 0.266525L114.684 1.32722ZM114.9 0.73259L99.5114 29.8511L101.28 30.7856L116.668 1.66706L114.9 0.73259ZM101.279 29.8507L95.8409 19.5718L94.0731 20.5072L99.5117 30.786L101.279 29.8507ZM95.8412 20.5067L106.01 1.26411L104.242 0.329638L94.0729 19.5723L95.8412 20.5067ZM105.126 1.79688H115.532V-0.203125H105.126V1.79688Z" fill="white" mask="url(#path-1-inside-1_2265_4359)"/>
<path d="M136 0.804688H125.129L107.956 33.3008H118.827L136 0.804688Z" fill="#171B2C"/>
<path d="M136 0.804688H125.129L107.956 33.3008H118.827L136 0.804688Z" fill="#276EF6"/>
<path d="M84.7695 0.804688H95.6401L112.813 33.3008H101.943L84.7695 0.804688Z" fill="#171B2C"/>
<path d="M84.7695 0.804688H95.6401L112.813 33.3008H101.943L84.7695 0.804688Z" fill="#276EF6"/>
<mask id="path-5-inside-2_2265_4359" fill="white">
<path fill-rule="evenodd" clip-rule="evenodd" d="M104.922 1.18085L121.892 33.293H132.763L115.59 0.796875H105.148L104.922 1.18085Z"/>
</mask>
<path fill-rule="evenodd" clip-rule="evenodd" d="M104.922 1.18085L121.892 33.293H132.763L115.59 0.796875H105.148L104.922 1.18085Z" fill="#171B2C"/>
<path fill-rule="evenodd" clip-rule="evenodd" d="M104.922 1.18085L121.892 33.293H132.763L115.59 0.796875H105.148L104.922 1.18085Z" fill="#276EF6"/>
<path d="M121.892 33.293L121.008 33.7602L121.29 34.293H121.892V33.293ZM104.922 1.18085L104.06 0.673826L103.777 1.15476L104.038 1.64808L104.922 1.18085ZM132.763 33.293V34.293H134.422L133.647 32.8258L132.763 33.293ZM115.59 0.796875L116.474 0.329638L116.192 -0.203125H115.59V0.796875ZM105.148 0.796875V-0.203125H104.576L104.286 0.289855L105.148 0.796875ZM122.776 32.8258L105.806 0.713609L104.038 1.64808L121.008 33.7602L122.776 32.8258ZM132.763 32.293H121.892V34.293H132.763V32.293ZM114.705 1.26411L131.879 33.7602L133.647 32.8258L116.474 0.329638L114.705 1.26411ZM105.148 1.79688H115.59V-0.203125H105.148V1.79688ZM104.286 0.289855L104.06 0.673826L105.784 1.68787L106.01 1.3039L104.286 0.289855Z" fill="white" mask="url(#path-5-inside-2_2265_4359)"/>
<mask id="path-7-outside-3_2265_4359" maskUnits="userSpaceOnUse" x="0" y="6" width="84" height="24" fill="black">
<rect fill="white" y="6" width="84" height="24"/>
<path d="M1.18253 9.21617H4.11385V18.2568C4.11385 18.9271 4.25298 19.3983 4.53125 19.6703C4.80952 19.9422 5.35025 20.0782 6.15344 20.0782V23C4.59133 23 3.37074 22.6079 2.49166 21.8237C1.61891 21.0331 1.18253 19.8631 1.18253 18.3137V9.21617ZM17.5562 20.0782C17.9419 20.0782 18.2234 19.9738 18.4005 19.7651C18.5775 19.5564 18.6661 19.2307 18.6661 18.788C18.6661 18.5477 18.6376 18.2125 18.5807 17.7824C18.5238 17.3461 18.4352 16.7832 18.3151 16.0939L21.142 15.5057L21.3697 17.1279C21.4899 17.95 21.6385 18.573 21.8156 18.9967C21.9927 19.4204 22.2425 19.7082 22.565 19.86C22.8939 20.0054 23.3461 20.0782 23.9216 20.0782H23.9311V23H23.9216C23.0172 23 22.2836 22.8451 21.7207 22.5352C21.1642 22.2189 20.8069 21.7699 20.6488 21.1881C20.5223 21.7573 20.2155 22.2031 19.7286 22.5257C19.2479 22.8419 18.6566 23 17.9546 23C17.2589 23 16.6802 22.8545 16.2186 22.5636C15.7569 22.2727 15.428 21.8711 15.232 21.3588C14.8272 22.4529 13.926 23 12.5283 23C11.8137 23 11.2319 22.8577 10.7828 22.5731C10.3338 22.2822 10.0176 21.8553 9.83418 21.2924C9.56224 21.811 9.12586 22.2253 8.52505 22.5352C7.93057 22.8451 7.26019 23 6.51392 23H6.15344C6.0143 23 5.91311 22.8798 5.84987 22.6395C5.78663 22.3992 5.75501 22.0197 5.75501 21.5011C5.75501 20.9952 5.78663 20.6315 5.84987 20.4102C5.91311 20.1888 6.0143 20.0782 6.15344 20.0782H6.51392C7.20327 20.0782 7.71238 19.9327 8.04124 19.6418C8.37643 19.3509 8.57565 18.8576 8.63889 18.1619L8.81913 16.0654L11.741 16.2836L11.5417 18.5603C11.4975 19.041 11.5639 19.411 11.741 19.6703C11.918 19.9232 12.2058 20.0592 12.6042 20.0782C12.9837 20.0971 13.2746 19.996 13.477 19.7746C13.6857 19.5469 13.8122 19.1928 13.8564 18.7121L14.0272 16.5777L16.5696 16.7579L16.4368 18.6837C16.3988 19.1643 16.4747 19.5185 16.6644 19.7461C16.8605 19.9675 17.1577 20.0782 17.5562 20.0782ZM23.9311 20.0782H32.2033V23H23.9311C23.7983 23 23.7002 22.902 23.637 22.7059C23.5674 22.5099 23.5326 22.1209 23.5326 21.5391C23.5326 20.9572 23.5674 20.5683 23.637 20.3722C23.7002 20.1762 23.7983 20.0782 23.9311 20.0782ZM32.2033 20.0782H40.4755V23H32.2033C32.0705 23 31.9724 22.902 31.9092 22.7059C31.8396 22.5099 31.8048 22.1209 31.8048 21.5391C31.8048 20.9572 31.8396 20.5683 31.9092 20.3722C31.9724 20.1762 32.0705 20.0782 32.2033 20.0782ZM40.4755 20.0782H48.7477V23H40.4755C40.3427 23 40.2446 22.902 40.1814 22.7059C40.1118 22.5099 40.077 22.1209 40.077 21.5391C40.077 20.9572 40.1118 20.5683 40.1814 20.3722C40.2446 20.1762 40.3427 20.0782 40.4755 20.0782ZM48.7477 20.0782H57.0199V23H48.7477C48.6149 23 48.5168 22.902 48.4536 22.7059C48.384 22.5099 48.3492 22.1209 48.3492 21.5391C48.3492 20.9572 48.384 20.5683 48.4536 20.3722C48.5168 20.1762 48.6149 20.0782 48.7477 20.0782ZM65.8612 7.83114L66.4589 10.6866C65.4091 10.9522 64.413 11.2589 63.4707 11.6068C62.5347 11.9546 61.586 12.372 60.6247 12.859V12.9538C61.2571 13.4851 61.8105 14.0005 62.2848 14.5001C62.7592 14.9934 63.1734 15.4899 63.5276 15.9895C63.8881 16.4891 64.2074 17.0172 64.4857 17.5737C64.7956 18.1935 65.1118 18.6868 65.4343 19.0536C65.7569 19.4204 66.1174 19.6829 66.5158 19.841C66.9142 19.9991 67.3791 20.0782 67.9103 20.0782V23C67.3095 23 66.734 22.9146 66.1838 22.7439C65.6399 22.5731 65.1403 22.3201 64.6849 21.9849C64.2359 21.6498 63.8501 21.2418 63.5276 20.7612C63.1734 21.4885 62.56 22.045 61.6872 22.4308C60.8208 22.8103 59.7709 23 58.5377 23H57.0199C56.8807 23 56.7795 22.8862 56.7163 22.6585C56.653 22.4245 56.6214 22.0482 56.6214 21.5296C56.6214 21.0047 56.653 20.6315 56.7163 20.4102C56.7795 20.1888 56.8807 20.0782 57.0199 20.0782H58.4808C59.4863 20.0782 60.2674 19.9517 60.8239 19.6987C61.3805 19.4457 61.6587 19.0884 61.6587 18.6267C61.6587 18.1208 61.2983 17.4915 60.5773 16.7389C59.8563 15.98 58.7274 15.0377 57.1906 13.912V11.5404C60.0555 9.7316 62.9457 8.4952 65.8612 7.83114ZM72.4638 14.5286C72.6472 15.2938 72.7927 16.018 72.9002 16.701C73.014 17.384 73.071 18.0196 73.071 18.6078C73.071 19.4932 72.9065 20.2679 72.5777 20.932C72.2551 21.5897 71.7397 22.0988 71.0314 22.4593C70.3294 22.8198 69.4092 23 68.2708 23H67.9103C67.7775 23 67.6795 22.902 67.6162 22.7059C67.5467 22.5099 67.5119 22.1209 67.5119 21.5391C67.5119 20.9572 67.5467 20.5683 67.6162 20.3722C67.6795 20.1762 67.7775 20.0782 67.9103 20.0782H68.2708C68.9475 20.0782 69.4376 19.9327 69.7412 19.6418C70.0511 19.3445 70.206 18.8829 70.206 18.2568C70.206 17.89 70.1586 17.4599 70.0638 16.9666C69.9752 16.467 69.8582 15.9041 69.7128 15.278L72.4638 14.5286ZM68.8969 26.2349L70.6993 24.4325L72.4923 26.2349L70.6993 28.0278L68.8969 26.2349ZM65.5767 26.2349L67.3791 24.4325L69.172 26.2349L67.3791 28.0278L65.5767 26.2349ZM79.2656 22.9431C79.0506 22.9684 78.8324 22.9874 78.6111 23C78.396 23.019 78.1684 23.0285 77.928 23.0285C76.8529 23.0285 76.0149 22.7281 75.4141 22.1272C74.8133 21.5201 74.5129 20.641 74.5129 19.49C74.5129 18.9208 74.5856 18.3453 74.7311 17.7635C74.8829 17.1753 75.1137 16.6377 75.4236 16.1508C75.7335 15.6575 76.1256 15.2622 76.5999 14.965C77.0742 14.6677 77.6371 14.5191 78.2885 14.5191C79.1043 14.5191 79.7747 14.7088 80.2996 15.0883C80.8309 15.4614 81.2451 15.9737 81.5424 16.6251C81.8459 17.2765 82.0578 18.0228 82.178 18.8639C82.3044 19.705 82.3677 20.5873 82.3677 21.5106C82.3677 23.2435 81.7985 24.6759 80.6601 25.808C79.5281 26.9464 77.811 27.8824 75.509 28.616L74.2568 25.9787C75.5532 25.5866 76.6379 25.1345 77.5106 24.6222C78.3897 24.1099 78.9747 23.5502 79.2656 22.9431ZM79.6451 19.9833C79.6071 19.5785 79.5534 19.2149 79.4838 18.8924C79.4142 18.5635 79.3225 18.2821 79.2087 18.0481C79.0949 17.8141 78.9589 17.637 78.8008 17.5168C78.6427 17.3903 78.4529 17.3271 78.2316 17.3271C77.966 17.3271 77.7478 17.4156 77.577 17.5927C77.4063 17.7698 77.2766 18.0038 77.1881 18.2947C77.1059 18.5793 77.0648 18.886 77.0648 19.2149C77.0648 19.5374 77.1628 19.7683 77.3588 19.9074C77.5549 20.0402 77.8711 20.1066 78.3075 20.1066C78.5541 20.1066 78.7945 20.094 79.0285 20.0687C79.2688 20.0434 79.4743 20.0149 79.6451 19.9833Z"/>
</mask>
<path d="M1.18253 9.21617H4.11385V18.2568C4.11385 18.9271 4.25298 19.3983 4.53125 19.6703C4.80952 19.9422 5.35025 20.0782 6.15344 20.0782V23C4.59133 23 3.37074 22.6079 2.49166 21.8237C1.61891 21.0331 1.18253 19.8631 1.18253 18.3137V9.21617ZM17.5562 20.0782C17.9419 20.0782 18.2234 19.9738 18.4005 19.7651C18.5775 19.5564 18.6661 19.2307 18.6661 18.788C18.6661 18.5477 18.6376 18.2125 18.5807 17.7824C18.5238 17.3461 18.4352 16.7832 18.3151 16.0939L21.142 15.5057L21.3697 17.1279C21.4899 17.95 21.6385 18.573 21.8156 18.9967C21.9927 19.4204 22.2425 19.7082 22.565 19.86C22.8939 20.0054 23.3461 20.0782 23.9216 20.0782H23.9311V23H23.9216C23.0172 23 22.2836 22.8451 21.7207 22.5352C21.1642 22.2189 20.8069 21.7699 20.6488 21.1881C20.5223 21.7573 20.2155 22.2031 19.7286 22.5257C19.2479 22.8419 18.6566 23 17.9546 23C17.2589 23 16.6802 22.8545 16.2186 22.5636C15.7569 22.2727 15.428 21.8711 15.232 21.3588C14.8272 22.4529 13.926 23 12.5283 23C11.8137 23 11.2319 22.8577 10.7828 22.5731C10.3338 22.2822 10.0176 21.8553 9.83418 21.2924C9.56224 21.811 9.12586 22.2253 8.52505 22.5352C7.93057 22.8451 7.26019 23 6.51392 23H6.15344C6.0143 23 5.91311 22.8798 5.84987 22.6395C5.78663 22.3992 5.75501 22.0197 5.75501 21.5011C5.75501 20.9952 5.78663 20.6315 5.84987 20.4102C5.91311 20.1888 6.0143 20.0782 6.15344 20.0782H6.51392C7.20327 20.0782 7.71238 19.9327 8.04124 19.6418C8.37643 19.3509 8.57565 18.8576 8.63889 18.1619L8.81913 16.0654L11.741 16.2836L11.5417 18.5603C11.4975 19.041 11.5639 19.411 11.741 19.6703C11.918 19.9232 12.2058 20.0592 12.6042 20.0782C12.9837 20.0971 13.2746 19.996 13.477 19.7746C13.6857 19.5469 13.8122 19.1928 13.8564 18.7121L14.0272 16.5777L16.5696 16.7579L16.4368 18.6837C16.3988 19.1643 16.4747 19.5185 16.6644 19.7461C16.8605 19.9675 17.1577 20.0782 17.5562 20.0782ZM23.9311 20.0782H32.2033V23H23.9311C23.7983 23 23.7002 22.902 23.637 22.7059C23.5674 22.5099 23.5326 22.1209 23.5326 21.5391C23.5326 20.9572 23.5674 20.5683 23.637 20.3722C23.7002 20.1762 23.7983 20.0782 23.9311 20.0782ZM32.2033 20.0782H40.4755V23H32.2033C32.0705 23 31.9724 22.902 31.9092 22.7059C31.8396 22.5099 31.8048 22.1209 31.8048 21.5391C31.8048 20.9572 31.8396 20.5683 31.9092 20.3722C31.9724 20.1762 32.0705 20.0782 32.2033 20.0782ZM40.4755 20.0782H48.7477V23H40.4755C40.3427 23 40.2446 22.902 40.1814 22.7059C40.1118 22.5099 40.077 22.1209 40.077 21.5391C40.077 20.9572 40.1118 20.5683 40.1814 20.3722C40.2446 20.1762 40.3427 20.0782 40.4755 20.0782ZM48.7477 20.0782H57.0199V23H48.7477C48.6149 23 48.5168 22.902 48.4536 22.7059C48.384 22.5099 48.3492 22.1209 48.3492 21.5391C48.3492 20.9572 48.384 20.5683 48.4536 20.3722C48.5168 20.1762 48.6149 20.0782 48.7477 20.0782ZM65.8612 7.83114L66.4589 10.6866C65.4091 10.9522 64.413 11.2589 63.4707 11.6068C62.5347 11.9546 61.586 12.372 60.6247 12.859V12.9538C61.2571 13.4851 61.8105 14.0005 62.2848 14.5001C62.7592 14.9934 63.1734 15.4899 63.5276 15.9895C63.8881 16.4891 64.2074 17.0172 64.4857 17.5737C64.7956 18.1935 65.1118 18.6868 65.4343 19.0536C65.7569 19.4204 66.1174 19.6829 66.5158 19.841C66.9142 19.9991 67.3791 20.0782 67.9103 20.0782V23C67.3095 23 66.734 22.9146 66.1838 22.7439C65.6399 22.5731 65.1403 22.3201 64.6849 21.9849C64.2359 21.6498 63.8501 21.2418 63.5276 20.7612C63.1734 21.4885 62.56 22.045 61.6872 22.4308C60.8208 22.8103 59.7709 23 58.5377 23H57.0199C56.8807 23 56.7795 22.8862 56.7163 22.6585C56.653 22.4245 56.6214 22.0482 56.6214 21.5296C56.6214 21.0047 56.653 20.6315 56.7163 20.4102C56.7795 20.1888 56.8807 20.0782 57.0199 20.0782H58.4808C59.4863 20.0782 60.2674 19.9517 60.8239 19.6987C61.3805 19.4457 61.6587 19.0884 61.6587 18.6267C61.6587 18.1208 61.2983 17.4915 60.5773 16.7389C59.8563 15.98 58.7274 15.0377 57.1906 13.912V11.5404C60.0555 9.7316 62.9457 8.4952 65.8612 7.83114ZM72.4638 14.5286C72.6472 15.2938 72.7927 16.018 72.9002 16.701C73.014 17.384 73.071 18.0196 73.071 18.6078C73.071 19.4932 72.9065 20.2679 72.5777 20.932C72.2551 21.5897 71.7397 22.0988 71.0314 22.4593C70.3294 22.8198 69.4092 23 68.2708 23H67.9103C67.7775 23 67.6795 22.902 67.6162 22.7059C67.5467 22.5099 67.5119 22.1209 67.5119 21.5391C67.5119 20.9572 67.5467 20.5683 67.6162 20.3722C67.6795 20.1762 67.7775 20.0782 67.9103 20.0782H68.2708C68.9475 20.0782 69.4376 19.9327 69.7412 19.6418C70.0511 19.3445 70.206 18.8829 70.206 18.2568C70.206 17.89 70.1586 17.4599 70.0638 16.9666C69.9752 16.467 69.8582 15.9041 69.7128 15.278L72.4638 14.5286ZM68.8969 26.2349L70.6993 24.4325L72.4923 26.2349L70.6993 28.0278L68.8969 26.2349ZM65.5767 26.2349L67.3791 24.4325L69.172 26.2349L67.3791 28.0278L65.5767 26.2349ZM79.2656 22.9431C79.0506 22.9684 78.8324 22.9874 78.6111 23C78.396 23.019 78.1684 23.0285 77.928 23.0285C76.8529 23.0285 76.0149 22.7281 75.4141 22.1272C74.8133 21.5201 74.5129 20.641 74.5129 19.49C74.5129 18.9208 74.5856 18.3453 74.7311 17.7635C74.8829 17.1753 75.1137 16.6377 75.4236 16.1508C75.7335 15.6575 76.1256 15.2622 76.5999 14.965C77.0742 14.6677 77.6371 14.5191 78.2885 14.5191C79.1043 14.5191 79.7747 14.7088 80.2996 15.0883C80.8309 15.4614 81.2451 15.9737 81.5424 16.6251C81.8459 17.2765 82.0578 18.0228 82.178 18.8639C82.3044 19.705 82.3677 20.5873 82.3677 21.5106C82.3677 23.2435 81.7985 24.6759 80.6601 25.808C79.5281 26.9464 77.811 27.8824 75.509 28.616L74.2568 25.9787C75.5532 25.5866 76.6379 25.1345 77.5106 24.6222C78.3897 24.1099 78.9747 23.5502 79.2656 22.9431ZM79.6451 19.9833C79.6071 19.5785 79.5534 19.2149 79.4838 18.8924C79.4142 18.5635 79.3225 18.2821 79.2087 18.0481C79.0949 17.8141 78.9589 17.637 78.8008 17.5168C78.6427 17.3903 78.4529 17.3271 78.2316 17.3271C77.966 17.3271 77.7478 17.4156 77.577 17.5927C77.4063 17.7698 77.2766 18.0038 77.1881 18.2947C77.1059 18.5793 77.0648 18.886 77.0648 19.2149C77.0648 19.5374 77.1628 19.7683 77.3588 19.9074C77.5549 20.0402 77.8711 20.1066 78.3075 20.1066C78.5541 20.1066 78.7945 20.094 79.0285 20.0687C79.2688 20.0434 79.4743 20.0149 79.6451 19.9833Z" fill="#276EF6"/>
<path d="M1.18253 9.21617V8.21617H0.182529V9.21617H1.18253ZM4.11385 9.21617H5.11385V8.21617H4.11385V9.21617ZM6.15344 20.0782H7.15344V19.0782H6.15344V20.0782ZM6.15344 23V24H7.15344V23H6.15344ZM2.49166 21.8237L1.82031 22.5649L1.82597 22.5699L2.49166 21.8237ZM1.18253 10.2162H4.11385V8.21617H1.18253V10.2162ZM3.11385 9.21617V18.2568H5.11385V9.21617H3.11385ZM3.11385 18.2568C3.11385 19.0144 3.26181 19.8279 3.83232 20.3854L5.23018 18.9551C5.24129 18.9659 5.21092 18.9437 5.17726 18.8297C5.14269 18.7127 5.11385 18.5284 5.11385 18.2568H3.11385ZM3.83232 20.3854C4.14116 20.6873 4.52975 20.8525 4.90163 20.946C5.27822 21.0407 5.70235 21.0782 6.15344 21.0782V19.0782C5.80134 19.0782 5.55351 19.0477 5.38937 19.0064C5.22052 18.9639 5.19962 18.9252 5.23018 18.9551L3.83232 20.3854ZM5.15344 20.0782V23H7.15344V20.0782H5.15344ZM6.15344 22C4.75539 22 3.80038 21.6511 3.15736 21.0775L1.82597 22.5699C2.9411 23.5647 4.42727 24 6.15344 24V22ZM3.163 21.0825C2.56033 20.5366 2.18253 19.6748 2.18253 18.3137H0.182529C0.182529 20.0515 0.67748 21.5296 1.82033 22.5648L3.163 21.0825ZM2.18253 18.3137V9.21617H0.182529V18.3137H2.18253ZM18.5807 17.7824L17.5891 17.9118L17.5893 17.9137L18.5807 17.7824ZM18.3151 16.0939L18.1114 15.1148L17.1637 15.312L17.3299 16.2656L18.3151 16.0939ZM21.142 15.5057L22.1323 15.3667L21.9839 14.3091L20.9384 14.5267L21.142 15.5057ZM21.3697 17.1279L20.3794 17.2669L20.3802 17.2725L21.3697 17.1279ZM21.8156 18.9967L20.8929 19.3823L21.8156 18.9967ZM22.565 19.86L22.1392 20.7648L22.1498 20.7698L22.1605 20.7745L22.565 19.86ZM23.9311 20.0782H24.9311V19.0782H23.9311V20.0782ZM23.9311 23V24H24.9311V23H23.9311ZM21.7207 22.5352L21.2267 23.4047L21.2384 23.4112L21.7207 22.5352ZM20.6488 21.1881L21.6138 20.9259L19.6726 20.9712L20.6488 21.1881ZM19.7286 22.5257L20.2782 23.3611L20.2808 23.3594L19.7286 22.5257ZM16.2186 22.5636L15.6855 23.4097L16.2186 22.5636ZM15.232 21.3588L16.1659 21.0014L15.2161 18.5196L14.2941 21.0119L15.232 21.3588ZM10.7828 22.5731L10.2391 23.4124L10.2475 23.4177L10.7828 22.5731ZM9.83418 21.2924L10.785 20.9826L10.0501 18.7274L8.94856 20.828L9.83418 21.2924ZM8.52505 22.5352L8.06664 21.6464L8.06281 21.6484L8.52505 22.5352ZM5.84987 20.4102L4.88835 20.1355L5.84987 20.4102ZM8.04124 19.6418L7.38574 18.8865L7.37867 18.8928L8.04124 19.6418ZM8.63889 18.1619L9.6348 18.2524L9.63521 18.2476L8.63889 18.1619ZM8.81913 16.0654L8.8936 15.0682L7.90751 14.9945L7.82281 15.9797L8.81913 16.0654ZM11.741 16.2836L12.7372 16.3708L12.8254 15.3618L11.8154 15.2864L11.741 16.2836ZM11.5417 18.5603L12.5375 18.6521L12.5379 18.6475L11.5417 18.5603ZM11.741 19.6703L10.9151 20.2343L10.9217 20.2437L11.741 19.6703ZM12.6042 20.0782L12.6542 19.0794L12.6518 19.0793L12.6042 20.0782ZM13.477 19.7746L12.7398 19.0989L12.739 19.0998L13.477 19.7746ZM13.8564 18.7121L14.8523 18.8038L14.8533 18.7919L13.8564 18.7121ZM14.0272 16.5777L14.0979 15.5802L13.1094 15.5101L13.0304 16.4979L14.0272 16.5777ZM16.5696 16.7579L17.5672 16.8267L17.6359 15.831L16.6403 15.7604L16.5696 16.7579ZM16.4368 18.6837L17.4337 18.7624L17.4344 18.7525L16.4368 18.6837ZM16.6644 19.7461L15.8962 20.3863L15.9059 20.3979L15.9159 20.4092L16.6644 19.7461ZM17.5562 21.0782C18.1106 21.0782 18.7276 20.9251 19.163 20.4121L17.638 19.1181C17.6524 19.1011 17.6687 19.0868 17.6842 19.0762C17.6994 19.0659 17.7091 19.0622 17.7089 19.0623C17.7061 19.0633 17.6626 19.0782 17.5562 19.0782V21.0782ZM19.163 20.4121C19.5633 19.9403 19.6661 19.3307 19.6661 18.788H17.6661C17.6661 18.9466 17.6498 19.0464 17.6347 19.102C17.6201 19.1556 17.6121 19.1486 17.638 19.1181L19.163 20.4121ZM19.6661 18.788C19.6661 18.4822 19.6309 18.0961 19.5721 17.6512L17.5893 17.9137C17.6443 18.3288 17.6661 18.6132 17.6661 18.788H19.6661ZM19.5723 17.6531C19.5128 17.1968 19.4216 16.6184 19.3002 15.9221L17.3299 16.2656C17.4489 16.948 17.5348 17.4953 17.5891 17.9118L19.5723 17.6531ZM18.5188 17.0729L21.3457 16.4847L20.9384 14.5267L18.1114 15.1148L18.5188 17.0729ZM20.1518 15.6447L20.3794 17.2669L22.36 16.9889L22.1323 15.3667L20.1518 15.6447ZM20.3802 17.2725C20.5044 18.1223 20.6675 18.8429 20.8929 19.3823L22.7383 18.6111C22.6095 18.3031 22.4753 17.7778 22.3592 16.9833L20.3802 17.2725ZM20.8929 19.3823C21.1372 19.9668 21.5337 20.4799 22.1392 20.7648L22.9908 18.9552C22.9512 18.9365 22.8482 18.8741 22.7383 18.6111L20.8929 19.3823ZM22.1605 20.7745C22.6705 21.0001 23.2808 21.0782 23.9216 21.0782V19.0782C23.4113 19.0782 23.1173 19.0108 22.9695 18.9454L22.1605 20.7745ZM23.9216 21.0782H23.9311V19.0782H23.9216V21.0782ZM22.9311 20.0782V23H24.9311V20.0782H22.9311ZM23.9311 22H23.9216V24H23.9311V22ZM23.9216 22C23.1209 22 22.5702 21.8613 22.203 21.6592L21.2384 23.4112C21.997 23.8288 22.9135 24 23.9216 24V22ZM22.2147 21.6657C21.8739 21.4721 21.6974 21.2335 21.6138 20.9259L19.6837 21.4503C19.9164 22.3063 20.4544 22.9658 21.2267 23.4046L22.2147 21.6657ZM19.6726 20.9712C19.6024 21.2871 19.4479 21.5121 19.1764 21.692L20.2808 23.3594C20.9832 22.8942 21.4422 22.2274 21.6249 21.405L19.6726 20.9712ZM19.1789 21.6903C18.8943 21.8775 18.5046 22 17.9546 22V24C18.8086 24 19.6015 23.8063 20.2782 23.3611L19.1789 21.6903ZM17.9546 22C17.3963 22 17.0153 21.8837 16.7517 21.7176L15.6855 23.4097C16.3452 23.8254 17.1216 24 17.9546 24V22ZM16.7517 21.7176C16.4739 21.5426 16.2851 21.3129 16.1659 21.0014L14.298 21.7163C14.5709 22.4293 15.0399 23.0028 15.6855 23.4097L16.7517 21.7176ZM14.2941 21.0119C14.1612 21.3711 13.9705 21.5911 13.7336 21.7349C13.4825 21.8873 13.1022 22 12.5283 22V24C13.3522 24 14.1213 23.8392 14.7714 23.4445C15.4357 23.0413 15.898 22.4407 16.1699 21.7058L14.2941 21.0119ZM12.5283 22C11.9398 22 11.5608 21.8823 11.3182 21.7285L10.2475 23.4177C10.9029 23.8331 11.6876 24 12.5283 24V22ZM11.3266 21.7339C11.0906 21.581 10.9054 21.3523 10.785 20.9826L8.88339 21.6022C9.12975 22.3583 9.577 22.9834 10.2391 23.4124L11.3266 21.7339ZM8.94856 20.828C8.78621 21.1376 8.51397 21.4157 8.06665 21.6464L8.98346 23.4239C9.73776 23.0348 10.3383 22.4844 10.7198 21.7568L8.94856 20.828ZM8.06281 21.6484C7.62659 21.8758 7.11773 22 6.51392 22V24C7.40265 24 8.23455 23.8143 8.9873 23.4219L8.06281 21.6484ZM6.51392 22H6.15344V24H6.51392V22ZM6.15344 22C6.26818 22 6.38958 22.0261 6.50341 22.083C6.61407 22.1384 6.69034 22.209 6.73811 22.2657C6.82248 22.3659 6.83046 22.4364 6.81694 22.385L4.8828 22.894C4.93252 23.083 5.02272 23.3337 5.20828 23.554C5.42137 23.8071 5.74869 24 6.15344 24V22ZM6.81694 22.385C6.78839 22.2765 6.75501 22.0058 6.75501 21.5011H4.75501C4.75501 22.0337 4.78486 22.5219 4.8828 22.894L6.81694 22.385ZM6.75501 21.5011C6.75501 21.0044 6.78943 20.7618 6.81139 20.6849L4.88835 20.1355C4.78383 20.5013 4.75501 20.986 4.75501 21.5011H6.75501ZM6.81139 20.6849C6.82113 20.6508 6.80612 20.7322 6.71122 20.8359C6.65854 20.8936 6.58067 20.9583 6.4745 21.0072C6.3666 21.0569 6.25543 21.0782 6.15344 21.0782V19.0782C5.77952 19.0782 5.45868 19.2419 5.23517 19.4864C5.03908 19.7009 4.94185 19.9482 4.88835 20.1355L6.81139 20.6849ZM6.15344 21.0782H6.51392V19.0782H6.15344V21.0782ZM6.51392 21.0782C7.31477 21.0782 8.11261 20.9138 8.70382 20.3908L7.37867 18.8928C7.31214 18.9516 7.09178 19.0782 6.51392 19.0782V21.0782ZM8.69672 20.397C9.31318 19.862 9.56108 19.0631 9.63478 18.2524L7.643 18.0714C7.59021 18.652 7.43968 18.8398 7.38577 18.8866L8.69672 20.397ZM9.63521 18.2476L9.81546 16.1511L7.82281 15.9797L7.64257 18.0762L9.63521 18.2476ZM8.74467 17.0626L11.6665 17.2808L11.8154 15.2864L8.8936 15.0682L8.74467 17.0626ZM10.7448 16.1964L10.5456 18.4732L12.5379 18.6475L12.7372 16.3708L10.7448 16.1964ZM10.546 18.4686C10.4913 19.0624 10.5526 19.7033 10.9152 20.2342L12.5668 19.1063C12.5752 19.1187 12.5037 19.0196 12.5375 18.6521L10.546 18.4686ZM10.9217 20.2437C11.3261 20.8213 11.9474 21.048 12.5567 21.077L12.6518 19.0793C12.552 19.0745 12.5156 19.0572 12.5168 19.0578C12.5181 19.0584 12.5258 19.0624 12.5362 19.0711C12.5468 19.08 12.555 19.0894 12.5602 19.0968L10.9217 20.2437ZM12.5543 21.0769C13.1454 21.1065 13.7596 20.9474 14.215 20.4494L12.739 19.0998C12.7439 19.0944 12.7516 19.0875 12.7614 19.0811C12.771 19.0748 12.7777 19.0723 12.7785 19.072C12.7793 19.0717 12.7445 19.0839 12.6542 19.0794L12.5543 21.0769ZM14.2141 20.4503C14.6331 19.9933 14.7985 19.3874 14.8522 18.8038L12.8607 18.6204C12.8259 18.9981 12.7383 19.1005 12.7398 19.0989L14.2141 20.4503ZM14.8533 18.7919L15.024 16.6574L13.0304 16.4979L12.8596 18.6324L14.8533 18.7919ZM13.9565 17.5752L16.4989 17.7554L16.6403 15.7604L14.0979 15.5802L13.9565 17.5752ZM15.5719 16.6891L15.4391 18.6149L17.4344 18.7525L17.5672 16.8267L15.5719 16.6891ZM15.4399 18.605C15.3936 19.1905 15.4608 19.8638 15.8962 20.3863L17.4327 19.106C17.4621 19.1413 17.4545 19.1537 17.443 19.1002C17.4308 19.0432 17.42 18.936 17.4337 18.7624L15.4399 18.605ZM15.9159 20.4092C16.3614 20.9122 16.9759 21.0782 17.5562 21.0782V19.0782C17.4468 19.0782 17.3958 19.0627 17.3833 19.058C17.3779 19.056 17.381 19.0565 17.3888 19.0618C17.397 19.0673 17.4056 19.0748 17.413 19.0831L15.9159 20.4092ZM32.2033 20.0782H33.2033V19.0782H32.2033V20.0782ZM32.2033 23V24H33.2033V23H32.2033ZM23.637 22.7059L24.5887 22.3989L24.5843 22.3851L24.5794 22.3715L23.637 22.7059ZM23.637 20.3722L24.5794 20.7067L24.5843 20.693L24.5887 20.6793L23.637 20.3722ZM23.9311 21.0782H32.2033V19.0782H23.9311V21.0782ZM31.2033 20.0782V23H33.2033V20.0782H31.2033ZM32.2033 22H23.9311V24H32.2033V22ZM23.9311 22C24.0241 22 24.1269 22.0179 24.2289 22.0612C24.33 22.1041 24.4084 22.1627 24.465 22.2194C24.5693 22.3237 24.5934 22.4136 24.5887 22.3989L22.6853 23.0129C22.7438 23.1943 22.8485 23.4313 23.0508 23.6336C23.2782 23.861 23.5868 24 23.9311 24V22ZM24.5794 22.3715C24.5874 22.3941 24.57 22.3483 24.5548 22.1781C24.5409 22.0238 24.5326 21.8131 24.5326 21.5391H22.5326C22.5326 21.8469 22.5417 22.1216 22.5627 22.3562C22.5823 22.5749 22.617 22.8217 22.6946 23.0403L24.5794 22.3715ZM24.5326 21.5391C24.5326 21.265 24.5409 21.0544 24.5548 20.9001C24.57 20.7298 24.5874 20.6841 24.5794 20.7067L22.6946 20.0378C22.617 20.2565 22.5823 20.5032 22.5627 20.7219C22.5417 20.9565 22.5326 21.2313 22.5326 21.5391H24.5326ZM24.5887 20.6793C24.5934 20.6646 24.5693 20.7545 24.465 20.8588C24.4084 20.9154 24.33 20.974 24.2289 21.017C24.1269 21.0603 24.0241 21.0782 23.9311 21.0782V19.0782C23.5868 19.0782 23.2782 19.2172 23.0508 19.4446C22.8485 19.6469 22.7438 19.8838 22.6853 20.0652L24.5887 20.6793ZM40.4755 20.0782H41.4755V19.0782H40.4755V20.0782ZM40.4755 23V24H41.4755V23H40.4755ZM31.9092 22.7059L32.8609 22.3989L32.8565 22.3851L32.8516 22.3715L31.9092 22.7059ZM31.9092 20.3722L32.8516 20.7067L32.8565 20.693L32.8609 20.6793L31.9092 20.3722ZM32.2033 21.0782H40.4755V19.0782H32.2033V21.0782ZM39.4755 20.0782V23H41.4755V20.0782H39.4755ZM40.4755 22H32.2033V24H40.4755V22ZM32.2033 22C32.2963 22 32.3991 22.0179 32.5011 22.0612C32.6022 22.1041 32.6806 22.1627 32.7372 22.2194C32.8415 22.3237 32.8656 22.4136 32.8609 22.3989L30.9575 23.0129C31.016 23.1943 31.1207 23.4313 31.323 23.6336C31.5504 23.861 31.859 24 32.2033 24V22ZM32.8516 22.3715C32.8596 22.3941 32.8422 22.3483 32.8269 22.1781C32.8131 22.0238 32.8048 21.8131 32.8048 21.5391H30.8048C30.8048 21.8469 30.8139 22.1216 30.8349 22.3562C30.8545 22.5749 30.8892 22.8217 30.9668 23.0403L32.8516 22.3715ZM32.8048 21.5391C32.8048 21.265 32.8131 21.0544 32.8269 20.9001C32.8422 20.7298 32.8596 20.6841 32.8516 20.7067L30.9668 20.0378C30.8892 20.2565 30.8545 20.5032 30.8349 20.7219C30.8139 20.9565 30.8048 21.2313 30.8048 21.5391H32.8048ZM32.8609 20.6793C32.8656 20.6646 32.8415 20.7545 32.7372 20.8588C32.6806 20.9154 32.6022 20.974 32.5011 21.017C32.3991 21.0603 32.2963 21.0782 32.2033 21.0782V19.0782C31.859 19.0782 31.5504 19.2172 31.323 19.4446C31.1207 19.6469 31.016 19.8838 30.9575 20.0652L32.8609 20.6793ZM48.7477 20.0782H49.7477V19.0782H48.7477V20.0782ZM48.7477 23V24H49.7477V23H48.7477ZM40.1814 22.7059L41.1331 22.3989L41.1286 22.3851L41.1238 22.3715L40.1814 22.7059ZM40.1814 20.3722L41.1238 20.7067L41.1286 20.693L41.1331 20.6793L40.1814 20.3722ZM40.4755 21.0782H48.7477V19.0782H40.4755V21.0782ZM47.7477 20.0782V23H49.7477V20.0782H47.7477ZM48.7477 22H40.4755V24H48.7477V22ZM40.4755 22C40.5685 22 40.6713 22.0179 40.7733 22.0612C40.8744 22.1041 40.9528 22.1627 41.0094 22.2194C41.1137 22.3237 41.1378 22.4136 41.1331 22.3989L39.2297 23.0129C39.2882 23.1943 39.3929 23.4313 39.5952 23.6336C39.8226 23.861 40.1312 24 40.4755 24V22ZM41.1238 22.3715C41.1318 22.3941 41.1144 22.3483 41.0991 22.1781C41.0853 22.0238 41.077 21.8131 41.077 21.5391H39.077C39.077 21.8469 39.0861 22.1216 39.1071 22.3562C39.1267 22.5749 39.1614 22.8217 39.239 23.0403L41.1238 22.3715ZM41.077 21.5391C41.077 21.265 41.0853 21.0544 41.0991 20.9001C41.1144 20.7298 41.1318 20.6841 41.1238 20.7067L39.239 20.0378C39.1614 20.2565 39.1267 20.5032 39.1071 20.7219C39.0861 20.9565 39.077 21.2313 39.077 21.5391H41.077ZM41.1331 20.6793C41.1378 20.6646 41.1137 20.7545 41.0094 20.8588C40.9528 20.9154 40.8744 20.974 40.7733 21.017C40.6713 21.0603 40.5685 21.0782 40.4755 21.0782V19.0782C40.1312 19.0782 39.8226 19.2172 39.5952 19.4446C39.3929 19.6469 39.2882 19.8838 39.2297 20.0652L41.1331 20.6793ZM57.0199 20.0782H58.0199V19.0782H57.0199V20.0782ZM57.0199 23V24H58.0199V23H57.0199ZM48.4536 22.7059L49.4053 22.3989L49.4008 22.3851L49.396 22.3715L48.4536 22.7059ZM48.4536 20.3722L49.396 20.7067L49.4008 20.693L49.4053 20.6793L48.4536 20.3722ZM48.7477 21.0782H57.0199V19.0782H48.7477V21.0782ZM56.0199 20.0782V23H58.0199V20.0782H56.0199ZM57.0199 22H48.7477V24H57.0199V22ZM48.7477 22C48.8407 22 48.9435 22.0179 49.0454 22.0612C49.1466 22.1041 49.225 22.1627 49.2816 22.2194C49.3859 22.3237 49.41 22.4136 49.4053 22.3989L47.5019 23.0129C47.5604 23.1943 47.6651 23.4313 47.8674 23.6336C48.0948 23.861 48.4034 24 48.7477 24V22ZM49.396 22.3715C49.404 22.3941 49.3866 22.3483 49.3713 22.1781C49.3575 22.0238 49.3492 21.8131 49.3492 21.5391H47.3492C47.3492 21.8469 47.3583 22.1216 47.3793 22.3562C47.3989 22.5749 47.4336 22.8217 47.5112 23.0403L49.396 22.3715ZM49.3492 21.5391C49.3492 21.265 49.3575 21.0544 49.3713 20.9001C49.3866 20.7298 49.404 20.6841 49.396 20.7067L47.5112 20.0378C47.4336 20.2565 47.3989 20.5032 47.3793 20.7219C47.3583 20.9565 47.3492 21.2313 47.3492 21.5391H49.3492ZM49.4053 20.6793C49.41 20.6646 49.3859 20.7545 49.2816 20.8588C49.225 20.9154 49.1466 20.974 49.0454 21.017C48.9435 21.0603 48.8407 21.0782 48.7477 21.0782V19.0782C48.4034 19.0782 48.0948 19.2172 47.8674 19.4446C47.6651 19.6469 47.5604 19.8838 47.5019 20.0652L49.4053 20.6793ZM65.8612 7.83114L66.84 7.62628L66.6315 6.63009L65.6392 6.85612L65.8612 7.83114ZM66.4589 10.6866L66.7042 11.656L67.6342 11.4207L67.4377 10.4817L66.4589 10.6866ZM63.4707 11.6068L63.1244 10.6686L63.1223 10.6694L63.4707 11.6068ZM60.6247 12.859L60.1728 11.9669L59.6247 12.2446V12.859H60.6247ZM60.6247 12.9538H59.6247V13.4198L59.9815 13.7195L60.6247 12.9538ZM62.2848 14.5001L61.5596 15.1887L61.564 15.1932L62.2848 14.5001ZM63.5276 15.9895L62.7117 16.5678L62.7166 16.5746L63.5276 15.9895ZM64.4857 17.5737L65.3801 17.1265L64.4857 17.5737ZM65.4343 19.0536L64.6834 19.714L65.4343 19.0536ZM67.9103 20.0782H68.9103V19.0782H67.9103V20.0782ZM67.9103 23V24H68.9103V23H67.9103ZM66.1838 22.7439L65.8842 23.698L65.8874 23.6989L66.1838 22.7439ZM64.6849 21.9849L64.0867 22.7863L64.0921 22.7903L64.6849 21.9849ZM63.5276 20.7612L64.3579 20.204L63.3894 18.7607L62.6285 20.3234L63.5276 20.7612ZM61.6872 22.4308L62.0884 23.3468L62.0915 23.3454L61.6872 22.4308ZM56.7163 22.6585L55.7509 22.9194L55.7528 22.9261L56.7163 22.6585ZM56.7163 20.4102L55.7548 20.1355L56.7163 20.4102ZM60.8239 19.6987L60.4101 18.7883L60.8239 19.6987ZM60.5773 16.7389L59.8523 17.4277L59.8552 17.4307L60.5773 16.7389ZM57.1906 13.912H56.1906V14.419L56.5997 14.7187L57.1906 13.912ZM57.1906 11.5404L56.6568 10.6948L56.1906 10.9891V11.5404H57.1906ZM64.8824 8.03601L65.4801 10.8914L67.4377 10.4817L66.84 7.62628L64.8824 8.03601ZM66.2136 9.71712C65.1322 9.99073 64.1022 10.3077 63.1244 10.6686L63.8169 12.5449C64.7237 12.2102 65.6859 11.9137 66.7042 11.656L66.2136 9.71712ZM63.1223 10.6694C62.1483 11.0313 61.1651 11.4642 60.1728 11.9669L61.0766 13.751C62.0069 13.2798 62.921 12.8778 63.819 12.5441L63.1223 10.6694ZM59.6247 12.859V12.9538H61.6247V12.859H59.6247ZM59.9815 13.7195C60.5906 14.2312 61.1156 14.721 61.5596 15.1886L63.0101 13.8116C62.5054 13.28 61.9237 12.739 61.2679 12.1881L59.9815 13.7195ZM61.564 15.1932C62.0078 15.6548 62.3895 16.1132 62.7117 16.5678L64.3434 15.4112C63.9574 14.8666 63.5105 14.3321 63.0057 13.807L61.564 15.1932ZM62.7166 16.5746C63.0453 17.0302 63.3368 17.5121 63.5913 18.021L65.3801 17.1265C65.078 16.5223 64.7308 15.9481 64.3385 15.4044L62.7166 16.5746ZM63.5913 18.021C63.925 18.6884 64.2859 19.2619 64.6834 19.714L66.1853 18.3933C65.9377 18.1117 65.6662 17.6987 65.3801 17.1265L63.5913 18.021ZM64.6834 19.714C65.0956 20.1828 65.5824 20.5465 66.147 20.7705L66.8847 18.9115C66.6524 18.8193 66.4182 18.6581 66.1853 18.3933L64.6834 19.714ZM66.147 20.7705C66.6872 20.9849 67.282 21.0782 67.9103 21.0782V19.0782C67.4762 19.0782 67.1413 19.0134 66.8847 18.9115L66.147 20.7705ZM66.9103 20.0782V23H68.9103V20.0782H66.9103ZM67.9103 22C67.4057 22 66.9304 21.9285 66.4802 21.7888L65.8874 23.6989C66.5376 23.9007 67.2133 24 67.9103 24V22ZM66.4833 21.7898C66.0438 21.6518 65.6435 21.4488 65.2777 21.1796L64.0921 22.7903C64.6371 23.1914 65.2359 23.4944 65.8842 23.6979L66.4833 21.7898ZM65.2831 21.1836C64.9277 20.9183 64.6196 20.5938 64.3579 20.204L62.6972 21.3184C63.0807 21.8898 63.5441 22.3812 64.0867 22.7863L65.2831 21.1836ZM62.6285 20.3234C62.3957 20.8014 61.9803 21.2079 61.2829 21.5162L62.0915 23.3454C63.1396 22.8822 63.9511 22.1756 64.4266 21.199L62.6285 20.3234ZM61.286 21.5148C60.5783 21.8248 59.6729 22 58.5377 22V24C59.8689 24 61.0633 23.7958 62.0884 23.3468L61.286 21.5148ZM58.5377 22H57.0199V24H58.5377V22ZM57.0199 22C57.1261 22 57.2407 22.0228 57.3507 22.0749C57.4585 22.126 57.536 22.1928 57.587 22.2503C57.6784 22.353 57.6909 22.4308 57.6798 22.3908L55.7528 22.9261C55.8049 23.1138 55.8997 23.3624 56.0922 23.579C56.3124 23.8267 56.6357 24 57.0199 24V22ZM57.6817 22.3976C57.6552 22.2998 57.6214 22.0365 57.6214 21.5296H55.6214C55.6214 22.0598 55.6509 22.5492 55.7509 22.9194L57.6817 22.3976ZM57.6214 21.5296C57.6214 21.0098 57.6563 20.76 57.6778 20.6849L55.7548 20.1355C55.6497 20.503 55.6214 20.9996 55.6214 21.5296H57.6214ZM57.6778 20.6849C57.6875 20.6508 57.6725 20.7322 57.5776 20.8359C57.525 20.8936 57.4471 20.9583 57.3409 21.0072C57.233 21.0569 57.1219 21.0782 57.0199 21.0782V19.0782C56.6459 19.0782 56.3251 19.2419 56.1016 19.4864C55.9055 19.7009 55.8083 19.9482 55.7548 20.1355L57.6778 20.6849ZM57.0199 21.0782H58.4808V19.0782H57.0199V21.0782ZM58.4808 21.0782C59.5484 21.0782 60.4937 20.9473 61.2377 20.6091L60.4101 18.7883C60.0411 18.9561 59.4243 19.0782 58.4808 19.0782V21.0782ZM61.2377 20.6091C62.0131 20.2566 62.6587 19.6125 62.6587 18.6267H60.6587C60.6587 18.6401 60.657 18.6397 60.6597 18.6317C60.6625 18.6235 60.6653 18.6211 60.6611 18.6266C60.6498 18.641 60.5904 18.7064 60.4101 18.7883L61.2377 20.6091ZM62.6587 18.6267C62.6587 17.6991 62.0381 16.8183 61.2994 16.0472L59.8552 17.4307C60.5584 18.1648 60.6587 18.5425 60.6587 18.6267H62.6587ZM61.3023 16.0502C60.5197 15.2264 59.3342 14.2426 57.7815 13.1052L56.5997 14.7187C58.1206 15.8328 59.1929 16.7336 59.8523 17.4277L61.3023 16.0502ZM58.1906 13.912V11.5404H56.1906V13.912H58.1906ZM57.7245 12.3859C60.5061 10.6297 63.292 9.44195 66.0833 8.80617L65.6392 6.85612C62.5995 7.54845 59.6049 8.83347 56.6568 10.6948L57.7245 12.3859ZM72.4638 14.5286L73.4363 14.2955L73.1959 13.2927L72.201 13.5637L72.4638 14.5286ZM72.9002 16.701L71.9123 16.8565L71.9138 16.8654L72.9002 16.701ZM72.5777 20.932L71.6815 20.4882L71.6798 20.4917L72.5777 20.932ZM71.0314 22.4593L70.5778 21.568L70.5746 21.5697L71.0314 22.4593ZM67.6162 22.7059L68.568 22.3989L68.5635 22.3851L68.5587 22.3715L67.6162 22.7059ZM67.6162 20.3722L68.5587 20.7067L68.5635 20.693L68.568 20.6793L67.6162 20.3722ZM69.7412 19.6418L70.4331 20.3638L70.4334 20.3635L69.7412 19.6418ZM70.0638 16.9666L69.0791 17.1411L69.0804 17.1483L69.0817 17.1555L70.0638 16.9666ZM69.7128 15.278L69.4499 14.3132L68.5208 14.5663L68.7387 15.5043L69.7128 15.278ZM68.8969 26.2349L68.1898 25.5278L67.4808 26.2368L68.1917 26.9439L68.8969 26.2349ZM70.6993 24.4325L71.4083 23.7272L70.7012 23.0164L69.9922 23.7253L70.6993 24.4325ZM72.4923 26.2349L73.1994 26.942L73.9046 26.2367L73.2013 25.5296L72.4923 26.2349ZM70.6993 28.0278L69.9941 28.7368L70.7012 29.4402L71.4065 28.7349L70.6993 28.0278ZM65.5767 26.2349L64.8695 25.5278L64.1606 26.2368L64.8714 26.9439L65.5767 26.2349ZM67.3791 24.4325L68.0881 23.7272L67.381 23.0164L66.672 23.7253L67.3791 24.4325ZM69.172 26.2349L69.8791 26.942L70.5844 26.2367L69.881 25.5296L69.172 26.2349ZM67.3791 28.0278L66.6738 28.7368L67.3809 29.4402L68.0862 28.7349L67.3791 28.0278ZM71.4914 14.7617C71.6694 15.5047 71.8095 16.2028 71.9124 16.8565L73.888 16.5455C73.7759 15.8332 73.625 15.083 73.4363 14.2955L71.4914 14.7617ZM71.9138 16.8654C72.0201 17.5033 72.071 18.0833 72.071 18.6078H74.071C74.071 17.9559 74.0079 17.2647 73.8866 16.5366L71.9138 16.8654ZM72.071 18.6078C72.071 19.3689 71.93 19.9864 71.6815 20.4882L73.4738 21.3757C73.883 20.5494 74.071 19.6174 74.071 18.6078H72.071ZM71.6798 20.4917C71.4609 20.9381 71.1105 21.297 70.5778 21.568L71.4849 23.3505C72.3689 22.9006 73.0494 22.2412 73.4755 21.3722L71.6798 20.4917ZM70.5746 21.5697C70.0625 21.8327 69.3158 22 68.2708 22V24C69.5026 24 70.5963 23.8068 71.4882 23.3488L70.5746 21.5697ZM68.2708 22H67.9103V24H68.2708V22ZM67.9103 22C68.0034 22 68.1061 22.0179 68.2081 22.0612C68.3093 22.1041 68.3877 22.1627 68.4443 22.2194C68.5486 22.3237 68.5727 22.4136 68.568 22.3989L66.6645 23.0129C66.7231 23.1943 66.8278 23.4313 67.0301 23.6336C67.2575 23.861 67.566 24 67.9103 24V22ZM68.5587 22.3715C68.5667 22.3941 68.5492 22.3483 68.534 22.1781C68.5202 22.0238 68.5119 21.8131 68.5119 21.5391H66.5119C66.5119 21.8469 66.521 22.1216 66.542 22.3562C66.5615 22.5749 66.5962 22.8217 66.6738 23.0403L68.5587 22.3715ZM68.5119 21.5391C68.5119 21.265 68.5202 21.0544 68.534 20.9001C68.5492 20.7298 68.5667 20.6841 68.5587 20.7067L66.6738 20.0378C66.5962 20.2565 66.5615 20.5032 66.542 20.7219C66.521 20.9565 66.5119 21.2313 66.5119 21.5391H68.5119ZM68.568 20.6793C68.5727 20.6646 68.5486 20.7545 68.4443 20.8588C68.3877 20.9154 68.3093 20.974 68.2081 21.017C68.1061 21.0603 68.0034 21.0782 67.9103 21.0782V19.0782C67.566 19.0782 67.2575 19.2172 67.0301 19.4446C66.8278 19.6469 66.7231 19.8838 66.6645 20.0652L68.568 20.6793ZM67.9103 21.0782H68.2708V19.0782H67.9103V21.0782ZM68.2708 21.0782C69.0555 21.0782 69.8577 20.9152 70.4331 20.3638L69.0493 18.9198C69.0175 18.9502 68.8396 19.0782 68.2708 19.0782V21.0782ZM70.4334 20.3635C71.0151 19.8055 71.206 19.0298 71.206 18.2568H69.206C69.206 18.736 69.0871 18.8836 69.049 18.9201L70.4334 20.3635ZM71.206 18.2568C71.206 17.8082 71.1485 17.3122 71.0458 16.7778L69.0817 17.1555C69.1687 17.6076 69.206 17.9717 69.206 18.2568H71.206ZM71.0484 16.7921C70.9561 16.2713 70.8353 15.6907 70.6868 15.0517L68.7387 15.5043C68.8812 16.1175 68.9943 16.6627 69.0791 17.1411L71.0484 16.7921ZM69.9756 16.2429L72.7267 15.4934L72.201 13.5637L69.4499 14.3132L69.9756 16.2429ZM69.604 26.942L71.4065 25.1396L69.9922 23.7253L68.1898 25.5278L69.604 26.942ZM69.9904 25.1377L71.7833 26.9401L73.2013 25.5296L71.4083 23.7272L69.9904 25.1377ZM71.7852 25.5278L69.9922 27.3207L71.4065 28.7349L73.1994 26.942L71.7852 25.5278ZM71.4046 27.3189L69.6022 25.5259L68.1917 26.9439L69.9941 28.7368L71.4046 27.3189ZM66.2838 26.942L68.0862 25.1396L66.672 23.7253L64.8695 25.5278L66.2838 26.942ZM66.6701 25.1377L68.4631 26.9401L69.881 25.5296L68.0881 23.7272L66.6701 25.1377ZM68.4649 25.5278L66.672 27.3207L68.0862 28.7349L69.8791 26.942L68.4649 25.5278ZM68.0843 27.3189L66.2819 25.5259L64.8714 26.9439L66.6738 28.7368L68.0843 27.3189ZM79.2656 22.9431L80.1674 23.3752L80.952 21.7378L79.1488 21.9499L79.2656 22.9431ZM78.6111 23L78.554 22.0016L78.5386 22.0025L78.5232 22.0039L78.6111 23ZM75.4141 22.1272L74.7033 22.8306L74.707 22.8344L75.4141 22.1272ZM74.7311 17.7635L73.7628 17.5136L73.7609 17.5209L74.7311 17.7635ZM75.4236 16.1508L76.2673 16.6877L76.2704 16.6827L75.4236 16.1508ZM76.5999 14.965L77.1309 15.8123L76.5999 14.965ZM80.2996 15.0883L79.7137 15.8988L79.7249 15.9066L80.2996 15.0883ZM81.5424 16.6251L80.6326 17.0402L80.636 17.0475L81.5424 16.6251ZM82.178 18.8639L81.188 19.0053L81.1891 19.0126L82.178 18.8639ZM80.6601 25.808L79.955 25.0989L79.9511 25.1029L80.6601 25.808ZM75.509 28.616L74.6056 29.0449L74.9803 29.834L75.8126 29.5688L75.509 28.616ZM74.2568 25.9787L73.9673 25.0216L72.855 25.358L73.3534 26.4077L74.2568 25.9787ZM77.5106 24.6222L77.0071 23.7582L77.0044 23.7598L77.5106 24.6222ZM79.6451 19.9833L79.8272 20.9666L80.726 20.8001L80.6407 19.89L79.6451 19.9833ZM79.4838 18.8924L78.5055 19.0993L78.5063 19.1032L79.4838 18.8924ZM79.2087 18.0481L80.1079 17.6106L79.2087 18.0481ZM78.8008 17.5168L78.1761 18.2977L78.1858 18.3055L78.1957 18.313L78.8008 17.5168ZM77.1881 18.2947L76.2314 18.0036L76.2293 18.0103L76.2274 18.0172L77.1881 18.2947ZM77.3588 19.9074L76.7801 20.7229L76.789 20.7292L76.798 20.7353L77.3588 19.9074ZM79.0285 20.0687L78.9238 19.0742L78.921 19.0745L79.0285 20.0687ZM79.1488 21.9499C78.9541 21.9728 78.7559 21.9901 78.554 22.0016L78.6681 23.9984C78.909 23.9846 79.1471 23.9639 79.3825 23.9362L79.1488 21.9499ZM78.5232 22.0039C78.3404 22.02 78.1422 22.0285 77.928 22.0285V24.0285C78.1945 24.0285 78.4516 24.018 78.6989 23.9961L78.5232 22.0039ZM77.928 22.0285C77.0441 22.0285 76.4879 21.7869 76.1212 21.4201L74.707 22.8344C75.5419 23.6693 76.6617 24.0285 77.928 24.0285V22.0285ZM76.1249 21.4239C75.7664 21.0616 75.5129 20.4717 75.5129 19.49H73.5129C73.5129 20.8104 73.8602 21.9786 74.7033 22.8306L76.1249 21.4239ZM75.5129 19.49C75.5129 19.0068 75.5745 18.5128 75.7012 18.006L73.7609 17.5209C73.5967 18.1778 73.5129 18.8348 73.5129 19.49H75.5129ZM75.6994 18.0133C75.8263 17.5215 76.0166 17.0815 76.2673 16.6876L74.5799 15.6139C74.2108 16.1939 73.9394 16.8292 73.7628 17.5136L75.6994 18.0133ZM76.2704 16.6827C76.5035 16.3117 76.7895 16.0263 77.1309 15.8123L76.0689 14.1176C75.4617 14.4981 74.9635 15.0033 74.5768 15.6188L76.2704 16.6827ZM77.1309 15.8123C77.4215 15.6302 77.7936 15.5191 78.2885 15.5191V13.5191C77.4806 13.5191 76.727 13.7052 76.0689 14.1176L77.1309 15.8123ZM78.2885 15.5191C78.949 15.5191 79.3991 15.6712 79.7138 15.8987L80.8855 14.2779C80.1503 13.7464 79.2597 13.5191 78.2885 13.5191V15.5191ZM79.7249 15.9066C80.0959 16.1672 80.4014 16.5335 80.6326 17.0402L82.4521 16.21C82.0889 15.4139 81.5658 14.7556 80.8744 14.27L79.7249 15.9066ZM80.636 17.0475C80.8913 17.5954 81.0793 18.2442 81.188 19.0053L83.1679 18.7225C83.0363 17.8013 82.8006 16.9576 82.4488 16.2027L80.636 17.0475ZM81.1891 19.0126C81.3076 19.8005 81.3677 20.6329 81.3677 21.5106H83.3677C83.3677 20.5417 83.3013 19.6095 83.1668 18.7152L81.1891 19.0126ZM81.3677 21.5106C81.3677 23.0007 80.8887 24.1704 79.955 25.0989L81.3653 26.5171C82.7083 25.1815 83.3677 23.4863 83.3677 21.5106H81.3677ZM79.9511 25.1029C78.9751 26.0842 77.4252 26.9558 75.2053 27.6632L75.8126 29.5688C78.1969 28.809 80.081 27.8085 81.3692 26.5131L79.9511 25.1029ZM76.4123 28.1871L75.1601 25.5498L73.3534 26.4077L74.6056 29.0449L76.4123 28.1871ZM74.5463 26.9359C75.8947 26.5281 77.0573 26.0478 78.0168 25.4846L77.0044 23.7598C76.2184 24.2211 75.2118 24.6452 73.9673 25.0216L74.5463 26.9359ZM78.0141 25.4862C78.9833 24.9214 79.7562 24.2335 80.1674 23.3752L78.3638 22.511C78.1932 22.8669 77.7961 23.2984 77.0071 23.7582L78.0141 25.4862ZM80.6407 19.89C80.5999 19.4544 80.5409 19.0505 80.4613 18.6815L78.5063 19.1032C78.5658 19.3793 78.6144 19.7027 78.6494 20.0766L80.6407 19.89ZM80.4622 18.6854C80.3803 18.2986 80.266 17.9356 80.1079 17.6106L78.3095 18.4855C78.379 18.6285 78.4481 18.8284 78.5055 19.0993L80.4622 18.6854ZM80.1079 17.6106C79.946 17.2777 79.7214 16.9604 79.4059 16.7207L78.1957 18.313C78.1964 18.3135 78.2437 18.3504 78.3095 18.4855L80.1079 17.6106ZM79.4255 16.736C79.0732 16.4541 78.6575 16.3271 78.2316 16.3271V18.3271C78.2462 18.3271 78.2411 18.329 78.2237 18.3232C78.2154 18.3205 78.2064 18.3166 78.1974 18.3117C78.1884 18.3068 78.1812 18.3018 78.1761 18.2977L79.4255 16.736ZM78.2316 16.3271C77.7185 16.3271 77.2325 16.5094 76.8572 16.8986L78.2969 18.2869C78.2943 18.2895 78.2881 18.2954 78.278 18.3023C78.2677 18.3093 78.2563 18.3154 78.2448 18.3201C78.2201 18.3301 78.2112 18.3271 78.2316 18.3271V16.3271ZM76.8572 16.8986C76.5539 17.2131 76.3553 17.5965 76.2314 18.0036L78.1448 18.5859C78.198 18.4111 78.2587 18.3265 78.2969 18.2869L76.8572 16.8986ZM76.2274 18.0172C76.1164 18.4013 76.0648 18.8023 76.0648 19.2149H78.0648C78.0648 18.9697 78.0953 18.7573 78.1488 18.5723L76.2274 18.0172ZM76.0648 19.2149C76.0648 19.7405 76.2345 20.3357 76.7801 20.7229L77.9376 19.0919C77.964 19.1107 77.9902 19.1349 78.013 19.1636C78.0357 19.1921 78.0502 19.2189 78.0587 19.2391C78.0749 19.2772 78.0648 19.2787 78.0648 19.2149H76.0648ZM76.798 20.7353C77.2487 21.0407 77.8162 21.1066 78.3075 21.1066V19.1066C78.136 19.1066 78.0203 19.0932 77.9486 19.0782C77.8742 19.0625 77.8787 19.0517 77.9197 19.0795L76.798 20.7353ZM78.3075 21.1066C78.5883 21.1066 78.8646 21.0922 79.1359 21.0629L78.921 19.0745C78.7243 19.0957 78.5199 19.1066 78.3075 19.1066V21.1066ZM79.1331 21.0632C79.3902 21.0361 79.623 21.0044 79.8272 20.9666L79.463 19C79.3256 19.0255 79.1474 19.0506 78.9238 19.0742L79.1331 21.0632Z" fill="white" mask="url(#path-7-outside-3_2265_4359)"/>
</svg>
