<svg width="136" height="34" viewBox="0 0 136 34" fill="none" xmlns="http://www.w3.org/2000/svg">
<mask id="path-1-inside-1_2265_4359" fill="white">
<path fill-rule="evenodd" clip-rule="evenodd" d="M115.532 0.796875L115.784 1.19983L100.396 30.3183L94.957 20.0395L105.126 0.796875H115.532Z"/>
</mask>
<path fill-rule="evenodd" clip-rule="evenodd" d="M115.532 0.796875L115.784 1.19983L100.396 30.3183L94.957 20.0395L105.126 0.796875H115.532Z" fill="#171B2C"/>
<path fill-rule="evenodd" clip-rule="evenodd" d="M115.532 0.796875L115.784 1.19983L100.396 30.3183L94.957 20.0395L105.126 0.796875H115.532Z" fill="#276EF6" fill-opacity="0.15"/>
<path d="M115.532 0.796875L115.809 0.623493L115.713 0.469954H115.532V0.796875ZM115.784 1.19983L116.073 1.35258L116.161 1.18609L116.061 1.02644L115.784 1.19983ZM100.396 30.3183L100.107 30.4712L100.396 31.0177L100.685 30.4711L100.396 30.3183ZM94.957 20.0395L94.668 19.8868L94.5872 20.0396L94.6681 20.1924L94.957 20.0395ZM105.126 0.796875V0.469954H104.929L104.837 0.644126L105.126 0.796875ZM115.255 0.970257L115.507 1.37321L116.061 1.02644L115.809 0.623493L115.255 0.970257ZM115.495 1.04708L100.107 30.1656L100.685 30.4711L116.073 1.35258L115.495 1.04708ZM100.685 30.1654L95.246 19.8866L94.6681 20.1924L100.107 30.4712L100.685 30.1654ZM95.2461 20.1923L105.415 0.949624L104.837 0.644126L94.668 19.8868L95.2461 20.1923ZM105.126 1.1238H115.532V0.469954H105.126V1.1238Z" fill="white" mask="url(#path-1-inside-1_2265_4359)"/>
<path d="M118.728 33.1373L135.729 0.968148H125.228L108.227 33.1373H118.728Z" fill="#171B2C"/>
<path d="M118.728 33.1373L135.729 0.968148H125.228L108.227 33.1373H118.728Z" fill="#276EF6" fill-opacity="0.15"/>
<path d="M118.728 33.1373L135.729 0.968148H125.228L108.227 33.1373H118.728Z" stroke="white" stroke-width="0.326921"/>
<path d="M102.041 33.1373L85.0408 0.968148H95.5416L112.542 33.1373H102.041Z" fill="#171B2C"/>
<path d="M102.041 33.1373L85.0408 0.968148H95.5416L112.542 33.1373H102.041Z" fill="#276EF6" fill-opacity="0.15"/>
<path d="M102.041 33.1373L85.0408 0.968148H95.5416L112.542 33.1373H102.041Z" stroke="white" stroke-width="0.326921"/>
<mask id="path-5-inside-2_2265_4359" fill="white">
<path fill-rule="evenodd" clip-rule="evenodd" d="M104.922 1.18085L121.892 33.293H132.763L115.59 0.796875H105.148L104.922 1.18085Z"/>
</mask>
<path fill-rule="evenodd" clip-rule="evenodd" d="M104.922 1.18085L121.892 33.293H132.763L115.59 0.796875H105.148L104.922 1.18085Z" fill="#171B2C"/>
<path fill-rule="evenodd" clip-rule="evenodd" d="M104.922 1.18085L121.892 33.293H132.763L115.59 0.796875H105.148L104.922 1.18085Z" fill="#276EF6" fill-opacity="0.15"/>
<path d="M121.892 33.293L121.603 33.4457L121.695 33.6199H121.892V33.293ZM104.922 1.18085L104.64 1.01509L104.548 1.17232L104.633 1.3336L104.922 1.18085ZM132.763 33.293V33.6199H133.305L133.052 33.1402L132.763 33.293ZM115.59 0.796875L115.879 0.644126L115.787 0.469954H115.59V0.796875ZM105.148 0.796875V0.469954H104.961L104.866 0.63112L105.148 0.796875ZM122.181 33.1402L105.211 1.0281L104.633 1.3336L121.603 33.4457L122.181 33.1402ZM132.763 32.9661H121.892V33.6199H132.763V32.9661ZM115.301 0.949624L132.474 33.4457L133.052 33.1402L115.879 0.644126L115.301 0.949624ZM105.148 1.1238H115.59V0.469954H105.148V1.1238ZM104.866 0.63112L104.64 1.01509L105.204 1.3466L105.43 0.96263L104.866 0.63112Z" fill="white" mask="url(#path-5-inside-2_2265_4359)"/>
<mask id="path-7-outside-3_2265_4359" maskUnits="userSpaceOnUse" x="0" y="7" width="83" height="23" fill="black">
<rect fill="white" y="7" width="83" height="23"/>
<path d="M1.18253 9.21617H4.11385V18.2568C4.11385 18.9271 4.25298 19.3983 4.53125 19.6703C4.80952 19.9422 5.35025 20.0782 6.15344 20.0782V23C4.59133 23 3.37074 22.6079 2.49166 21.8237C1.61891 21.0331 1.18253 19.8631 1.18253 18.3137V9.21617ZM17.5562 20.0782C17.9419 20.0782 18.2234 19.9738 18.4005 19.7651C18.5775 19.5564 18.6661 19.2307 18.6661 18.788C18.6661 18.5477 18.6376 18.2125 18.5807 17.7824C18.5238 17.3461 18.4352 16.7832 18.3151 16.0939L21.142 15.5057L21.3697 17.1279C21.4899 17.95 21.6385 18.573 21.8156 18.9967C21.9927 19.4204 22.2425 19.7082 22.565 19.86C22.8939 20.0054 23.3461 20.0782 23.9216 20.0782H23.9311V23H23.9216C23.0172 23 22.2836 22.8451 21.7207 22.5352C21.1642 22.2189 20.8069 21.7699 20.6488 21.1881C20.5223 21.7573 20.2155 22.2031 19.7286 22.5257C19.2479 22.8419 18.6566 23 17.9546 23C17.2589 23 16.6802 22.8545 16.2186 22.5636C15.7569 22.2727 15.428 21.8711 15.232 21.3588C14.8272 22.4529 13.926 23 12.5283 23C11.8137 23 11.2319 22.8577 10.7828 22.5731C10.3338 22.2822 10.0176 21.8553 9.83418 21.2924C9.56224 21.811 9.12586 22.2253 8.52505 22.5352C7.93057 22.8451 7.26019 23 6.51392 23H6.15344C6.0143 23 5.91311 22.8798 5.84987 22.6395C5.78663 22.3992 5.75501 22.0197 5.75501 21.5011C5.75501 20.9952 5.78663 20.6315 5.84987 20.4102C5.91311 20.1888 6.0143 20.0782 6.15344 20.0782H6.51392C7.20327 20.0782 7.71238 19.9327 8.04124 19.6418C8.37643 19.3509 8.57565 18.8576 8.63889 18.1619L8.81913 16.0654L11.741 16.2836L11.5417 18.5603C11.4975 19.041 11.5639 19.411 11.741 19.6703C11.918 19.9232 12.2058 20.0592 12.6042 20.0782C12.9837 20.0971 13.2746 19.996 13.477 19.7746C13.6857 19.5469 13.8122 19.1928 13.8564 18.7121L14.0272 16.5777L16.5696 16.7579L16.4368 18.6837C16.3988 19.1643 16.4747 19.5185 16.6644 19.7461C16.8605 19.9675 17.1577 20.0782 17.5562 20.0782ZM23.9311 20.0782H32.2033V23H23.9311C23.7983 23 23.7002 22.902 23.637 22.7059C23.5674 22.5099 23.5326 22.1209 23.5326 21.5391C23.5326 20.9572 23.5674 20.5683 23.637 20.3722C23.7002 20.1762 23.7983 20.0782 23.9311 20.0782ZM32.2033 20.0782H40.4755V23H32.2033C32.0705 23 31.9724 22.902 31.9092 22.7059C31.8396 22.5099 31.8048 22.1209 31.8048 21.5391C31.8048 20.9572 31.8396 20.5683 31.9092 20.3722C31.9724 20.1762 32.0705 20.0782 32.2033 20.0782ZM40.4755 20.0782H48.7477V23H40.4755C40.3427 23 40.2446 22.902 40.1814 22.7059C40.1118 22.5099 40.077 22.1209 40.077 21.5391C40.077 20.9572 40.1118 20.5683 40.1814 20.3722C40.2446 20.1762 40.3427 20.0782 40.4755 20.0782ZM48.7477 20.0782H57.0199V23H48.7477C48.6149 23 48.5168 22.902 48.4536 22.7059C48.384 22.5099 48.3492 22.1209 48.3492 21.5391C48.3492 20.9572 48.384 20.5683 48.4536 20.3722C48.5168 20.1762 48.6149 20.0782 48.7477 20.0782ZM65.8612 7.83114L66.4589 10.6866C65.4091 10.9522 64.413 11.2589 63.4707 11.6068C62.5347 11.9546 61.586 12.372 60.6247 12.859V12.9538C61.2571 13.4851 61.8105 14.0005 62.2848 14.5001C62.7592 14.9934 63.1734 15.4899 63.5276 15.9895C63.8881 16.4891 64.2074 17.0172 64.4857 17.5737C64.7956 18.1935 65.1118 18.6868 65.4343 19.0536C65.7569 19.4204 66.1174 19.6829 66.5158 19.841C66.9142 19.9991 67.3791 20.0782 67.9103 20.0782V23C67.3095 23 66.734 22.9146 66.1838 22.7439C65.6399 22.5731 65.1403 22.3201 64.6849 21.9849C64.2359 21.6498 63.8501 21.2418 63.5276 20.7612C63.1734 21.4885 62.56 22.045 61.6872 22.4308C60.8208 22.8103 59.7709 23 58.5377 23H57.0199C56.8807 23 56.7795 22.8862 56.7163 22.6585C56.653 22.4245 56.6214 22.0482 56.6214 21.5296C56.6214 21.0047 56.653 20.6315 56.7163 20.4102C56.7795 20.1888 56.8807 20.0782 57.0199 20.0782H58.4808C59.4863 20.0782 60.2674 19.9517 60.8239 19.6987C61.3805 19.4457 61.6587 19.0884 61.6587 18.6267C61.6587 18.1208 61.2983 17.4915 60.5773 16.7389C59.8563 15.98 58.7274 15.0377 57.1906 13.912V11.5404C60.0555 9.7316 62.9457 8.4952 65.8612 7.83114ZM72.4638 14.5286C72.6472 15.2938 72.7927 16.018 72.9002 16.701C73.014 17.384 73.071 18.0196 73.071 18.6078C73.071 19.4932 72.9065 20.2679 72.5777 20.932C72.2551 21.5897 71.7397 22.0988 71.0314 22.4593C70.3294 22.8198 69.4092 23 68.2708 23H67.9103C67.7775 23 67.6795 22.902 67.6162 22.7059C67.5467 22.5099 67.5119 22.1209 67.5119 21.5391C67.5119 20.9572 67.5467 20.5683 67.6162 20.3722C67.6795 20.1762 67.7775 20.0782 67.9103 20.0782H68.2708C68.9475 20.0782 69.4376 19.9327 69.7412 19.6418C70.0511 19.3445 70.206 18.8829 70.206 18.2568C70.206 17.89 70.1586 17.4599 70.0638 16.9666C69.9752 16.467 69.8582 15.9041 69.7128 15.278L72.4638 14.5286ZM68.8969 26.2349L70.6993 24.4325L72.4923 26.2349L70.6993 28.0278L68.8969 26.2349ZM65.5767 26.2349L67.3791 24.4325L69.172 26.2349L67.3791 28.0278L65.5767 26.2349ZM79.2656 22.9431C79.0506 22.9684 78.8324 22.9874 78.6111 23C78.396 23.019 78.1684 23.0285 77.928 23.0285C76.8529 23.0285 76.0149 22.7281 75.4141 22.1272C74.8133 21.5201 74.5129 20.641 74.5129 19.49C74.5129 18.9208 74.5856 18.3453 74.7311 17.7635C74.8829 17.1753 75.1137 16.6377 75.4236 16.1508C75.7335 15.6575 76.1256 15.2622 76.5999 14.965C77.0742 14.6677 77.6371 14.5191 78.2885 14.5191C79.1043 14.5191 79.7747 14.7088 80.2996 15.0883C80.8309 15.4614 81.2451 15.9737 81.5424 16.6251C81.8459 17.2765 82.0578 18.0228 82.178 18.8639C82.3044 19.705 82.3677 20.5873 82.3677 21.5106C82.3677 23.2435 81.7985 24.6759 80.6601 25.808C79.5281 26.9464 77.811 27.8824 75.509 28.616L74.2568 25.9787C75.5532 25.5866 76.6379 25.1345 77.5106 24.6222C78.3897 24.1099 78.9747 23.5502 79.2656 22.9431ZM79.6451 19.9833C79.6071 19.5785 79.5534 19.2149 79.4838 18.8924C79.4142 18.5635 79.3225 18.2821 79.2087 18.0481C79.0949 17.8141 78.9589 17.637 78.8008 17.5168C78.6427 17.3903 78.4529 17.3271 78.2316 17.3271C77.966 17.3271 77.7478 17.4156 77.577 17.5927C77.4063 17.7698 77.2766 18.0038 77.1881 18.2947C77.1059 18.5793 77.0648 18.886 77.0648 19.2149C77.0648 19.5374 77.1628 19.7683 77.3588 19.9074C77.5549 20.0402 77.8711 20.1066 78.3075 20.1066C78.5541 20.1066 78.7945 20.094 79.0285 20.0687C79.2688 20.0434 79.4743 20.0149 79.6451 19.9833Z"/>
</mask>
<path d="M1.18253 9.21617H4.11385V18.2568C4.11385 18.9271 4.25298 19.3983 4.53125 19.6703C4.80952 19.9422 5.35025 20.0782 6.15344 20.0782V23C4.59133 23 3.37074 22.6079 2.49166 21.8237C1.61891 21.0331 1.18253 19.8631 1.18253 18.3137V9.21617ZM17.5562 20.0782C17.9419 20.0782 18.2234 19.9738 18.4005 19.7651C18.5775 19.5564 18.6661 19.2307 18.6661 18.788C18.6661 18.5477 18.6376 18.2125 18.5807 17.7824C18.5238 17.3461 18.4352 16.7832 18.3151 16.0939L21.142 15.5057L21.3697 17.1279C21.4899 17.95 21.6385 18.573 21.8156 18.9967C21.9927 19.4204 22.2425 19.7082 22.565 19.86C22.8939 20.0054 23.3461 20.0782 23.9216 20.0782H23.9311V23H23.9216C23.0172 23 22.2836 22.8451 21.7207 22.5352C21.1642 22.2189 20.8069 21.7699 20.6488 21.1881C20.5223 21.7573 20.2155 22.2031 19.7286 22.5257C19.2479 22.8419 18.6566 23 17.9546 23C17.2589 23 16.6802 22.8545 16.2186 22.5636C15.7569 22.2727 15.428 21.8711 15.232 21.3588C14.8272 22.4529 13.926 23 12.5283 23C11.8137 23 11.2319 22.8577 10.7828 22.5731C10.3338 22.2822 10.0176 21.8553 9.83418 21.2924C9.56224 21.811 9.12586 22.2253 8.52505 22.5352C7.93057 22.8451 7.26019 23 6.51392 23H6.15344C6.0143 23 5.91311 22.8798 5.84987 22.6395C5.78663 22.3992 5.75501 22.0197 5.75501 21.5011C5.75501 20.9952 5.78663 20.6315 5.84987 20.4102C5.91311 20.1888 6.0143 20.0782 6.15344 20.0782H6.51392C7.20327 20.0782 7.71238 19.9327 8.04124 19.6418C8.37643 19.3509 8.57565 18.8576 8.63889 18.1619L8.81913 16.0654L11.741 16.2836L11.5417 18.5603C11.4975 19.041 11.5639 19.411 11.741 19.6703C11.918 19.9232 12.2058 20.0592 12.6042 20.0782C12.9837 20.0971 13.2746 19.996 13.477 19.7746C13.6857 19.5469 13.8122 19.1928 13.8564 18.7121L14.0272 16.5777L16.5696 16.7579L16.4368 18.6837C16.3988 19.1643 16.4747 19.5185 16.6644 19.7461C16.8605 19.9675 17.1577 20.0782 17.5562 20.0782ZM23.9311 20.0782H32.2033V23H23.9311C23.7983 23 23.7002 22.902 23.637 22.7059C23.5674 22.5099 23.5326 22.1209 23.5326 21.5391C23.5326 20.9572 23.5674 20.5683 23.637 20.3722C23.7002 20.1762 23.7983 20.0782 23.9311 20.0782ZM32.2033 20.0782H40.4755V23H32.2033C32.0705 23 31.9724 22.902 31.9092 22.7059C31.8396 22.5099 31.8048 22.1209 31.8048 21.5391C31.8048 20.9572 31.8396 20.5683 31.9092 20.3722C31.9724 20.1762 32.0705 20.0782 32.2033 20.0782ZM40.4755 20.0782H48.7477V23H40.4755C40.3427 23 40.2446 22.902 40.1814 22.7059C40.1118 22.5099 40.077 22.1209 40.077 21.5391C40.077 20.9572 40.1118 20.5683 40.1814 20.3722C40.2446 20.1762 40.3427 20.0782 40.4755 20.0782ZM48.7477 20.0782H57.0199V23H48.7477C48.6149 23 48.5168 22.902 48.4536 22.7059C48.384 22.5099 48.3492 22.1209 48.3492 21.5391C48.3492 20.9572 48.384 20.5683 48.4536 20.3722C48.5168 20.1762 48.6149 20.0782 48.7477 20.0782ZM65.8612 7.83114L66.4589 10.6866C65.4091 10.9522 64.413 11.2589 63.4707 11.6068C62.5347 11.9546 61.586 12.372 60.6247 12.859V12.9538C61.2571 13.4851 61.8105 14.0005 62.2848 14.5001C62.7592 14.9934 63.1734 15.4899 63.5276 15.9895C63.8881 16.4891 64.2074 17.0172 64.4857 17.5737C64.7956 18.1935 65.1118 18.6868 65.4343 19.0536C65.7569 19.4204 66.1174 19.6829 66.5158 19.841C66.9142 19.9991 67.3791 20.0782 67.9103 20.0782V23C67.3095 23 66.734 22.9146 66.1838 22.7439C65.6399 22.5731 65.1403 22.3201 64.6849 21.9849C64.2359 21.6498 63.8501 21.2418 63.5276 20.7612C63.1734 21.4885 62.56 22.045 61.6872 22.4308C60.8208 22.8103 59.7709 23 58.5377 23H57.0199C56.8807 23 56.7795 22.8862 56.7163 22.6585C56.653 22.4245 56.6214 22.0482 56.6214 21.5296C56.6214 21.0047 56.653 20.6315 56.7163 20.4102C56.7795 20.1888 56.8807 20.0782 57.0199 20.0782H58.4808C59.4863 20.0782 60.2674 19.9517 60.8239 19.6987C61.3805 19.4457 61.6587 19.0884 61.6587 18.6267C61.6587 18.1208 61.2983 17.4915 60.5773 16.7389C59.8563 15.98 58.7274 15.0377 57.1906 13.912V11.5404C60.0555 9.7316 62.9457 8.4952 65.8612 7.83114ZM72.4638 14.5286C72.6472 15.2938 72.7927 16.018 72.9002 16.701C73.014 17.384 73.071 18.0196 73.071 18.6078C73.071 19.4932 72.9065 20.2679 72.5777 20.932C72.2551 21.5897 71.7397 22.0988 71.0314 22.4593C70.3294 22.8198 69.4092 23 68.2708 23H67.9103C67.7775 23 67.6795 22.902 67.6162 22.7059C67.5467 22.5099 67.5119 22.1209 67.5119 21.5391C67.5119 20.9572 67.5467 20.5683 67.6162 20.3722C67.6795 20.1762 67.7775 20.0782 67.9103 20.0782H68.2708C68.9475 20.0782 69.4376 19.9327 69.7412 19.6418C70.0511 19.3445 70.206 18.8829 70.206 18.2568C70.206 17.89 70.1586 17.4599 70.0638 16.9666C69.9752 16.467 69.8582 15.9041 69.7128 15.278L72.4638 14.5286ZM68.8969 26.2349L70.6993 24.4325L72.4923 26.2349L70.6993 28.0278L68.8969 26.2349ZM65.5767 26.2349L67.3791 24.4325L69.172 26.2349L67.3791 28.0278L65.5767 26.2349ZM79.2656 22.9431C79.0506 22.9684 78.8324 22.9874 78.6111 23C78.396 23.019 78.1684 23.0285 77.928 23.0285C76.8529 23.0285 76.0149 22.7281 75.4141 22.1272C74.8133 21.5201 74.5129 20.641 74.5129 19.49C74.5129 18.9208 74.5856 18.3453 74.7311 17.7635C74.8829 17.1753 75.1137 16.6377 75.4236 16.1508C75.7335 15.6575 76.1256 15.2622 76.5999 14.965C77.0742 14.6677 77.6371 14.5191 78.2885 14.5191C79.1043 14.5191 79.7747 14.7088 80.2996 15.0883C80.8309 15.4614 81.2451 15.9737 81.5424 16.6251C81.8459 17.2765 82.0578 18.0228 82.178 18.8639C82.3044 19.705 82.3677 20.5873 82.3677 21.5106C82.3677 23.2435 81.7985 24.6759 80.6601 25.808C79.5281 26.9464 77.811 27.8824 75.509 28.616L74.2568 25.9787C75.5532 25.5866 76.6379 25.1345 77.5106 24.6222C78.3897 24.1099 78.9747 23.5502 79.2656 22.9431ZM79.6451 19.9833C79.6071 19.5785 79.5534 19.2149 79.4838 18.8924C79.4142 18.5635 79.3225 18.2821 79.2087 18.0481C79.0949 17.8141 78.9589 17.637 78.8008 17.5168C78.6427 17.3903 78.4529 17.3271 78.2316 17.3271C77.966 17.3271 77.7478 17.4156 77.577 17.5927C77.4063 17.7698 77.2766 18.0038 77.1881 18.2947C77.1059 18.5793 77.0648 18.886 77.0648 19.2149C77.0648 19.5374 77.1628 19.7683 77.3588 19.9074C77.5549 20.0402 77.8711 20.1066 78.3075 20.1066C78.5541 20.1066 78.7945 20.094 79.0285 20.0687C79.2688 20.0434 79.4743 20.0149 79.6451 19.9833Z" fill="#276EF6" fill-opacity="0.15"/>
<path d="M1.18253 9.21617V8.88925H0.855609V9.21617H1.18253ZM4.11385 9.21617H4.44077V8.88925H4.11385V9.21617ZM6.15344 20.0782H6.48036V19.7512H6.15344V20.0782ZM6.15344 23V23.3269H6.48036V23H6.15344ZM2.49166 21.8237L2.27218 22.066L2.27403 22.0676L2.49166 21.8237ZM1.18253 9.54309H4.11385V8.88925H1.18253V9.54309ZM3.78693 9.21617V18.2568H4.44077V9.21617H3.78693ZM3.78693 18.2568C3.78693 18.9557 3.92895 19.5387 4.30276 19.9041L4.75975 19.4364C4.57702 19.2579 4.44077 18.8986 4.44077 18.2568H3.78693ZM4.30276 19.9041C4.49737 20.0943 4.76222 20.2169 5.06577 20.2932C5.37086 20.37 5.73566 20.4051 6.15344 20.4051V19.7512C5.76802 19.7512 5.46086 19.7184 5.22523 19.6591C4.98805 19.5995 4.8434 19.5182 4.75975 19.4364L4.30276 19.9041ZM5.82652 20.0782V23H6.48036V20.0782H5.82652ZM6.15344 22.6731C4.64497 22.6731 3.5112 22.2951 2.70929 21.5797L2.27403 22.0676C3.23028 22.9207 4.5377 23.3269 6.15344 23.3269V22.6731ZM2.71113 21.5814C1.92668 20.8708 1.50945 19.8016 1.50945 18.3137H0.855609C0.855609 19.9247 1.31113 21.1955 2.27219 22.066L2.71113 21.5814ZM1.50945 18.3137V9.21617H0.855609V18.3137H1.50945ZM18.5807 17.7824L18.2565 17.8247L18.2566 17.8253L18.5807 17.7824ZM18.3151 16.0939L18.2485 15.7738L17.9387 15.8382L17.993 16.15L18.3151 16.0939ZM21.142 15.5057L21.4658 15.4603L21.4173 15.1145L21.0755 15.1856L21.142 15.5057ZM21.3697 17.1279L21.046 17.1733L21.0462 17.1752L21.3697 17.1279ZM21.8156 18.9967L21.5139 19.1228L21.8156 18.9967ZM22.565 19.86L22.4258 20.1559L22.4328 20.159L22.565 19.86ZM23.9311 20.0782H24.258V19.7512H23.9311V20.0782ZM23.9311 23V23.3269H24.258V23H23.9311ZM21.7207 22.5352L21.5592 22.8194L21.5631 22.8215L21.7207 22.5352ZM20.6488 21.1881L20.9642 21.1024L20.3296 21.1172L20.6488 21.1881ZM19.7286 22.5257L19.9082 22.7988L19.9091 22.7982L19.7286 22.5257ZM16.2186 22.5636L16.0443 22.8402L16.2186 22.5636ZM15.232 21.3588L15.5373 21.242L15.2268 20.4306L14.9254 21.2454L15.232 21.3588ZM10.7828 22.5731L10.6051 22.8475L10.6078 22.8492L10.7828 22.5731ZM9.83418 21.2924L10.145 21.1912L9.90478 20.4539L9.54466 21.1406L9.83418 21.2924ZM8.52505 22.5352L8.37519 22.2446L8.37394 22.2453L8.52505 22.5352ZM5.84987 20.4102L5.53553 20.3204L5.84987 20.4102ZM8.04124 19.6418L7.82695 19.3949L7.82463 19.3969L8.04124 19.6418ZM8.63889 18.1619L8.96447 18.1915L8.96461 18.1899L8.63889 18.1619ZM8.81913 16.0654L8.84348 15.7394L8.5211 15.7153L8.49341 16.0374L8.81913 16.0654ZM11.741 16.2836L12.0666 16.3121L12.0955 15.9822L11.7653 15.9576L11.741 16.2836ZM11.5417 18.5603L11.8673 18.5903L11.8674 18.5888L11.5417 18.5603ZM11.741 19.6703L11.471 19.8546L11.4731 19.8577L11.741 19.6703ZM12.6042 20.0782L12.6206 19.7517L12.6198 19.7516L12.6042 20.0782ZM13.477 19.7746L13.236 19.5537L13.2357 19.554L13.477 19.7746ZM13.8564 18.7121L14.182 18.7421L14.1823 18.7382L13.8564 18.7121ZM14.0272 16.5777L14.0503 16.2516L13.7272 16.2287L13.7013 16.5516L14.0272 16.5777ZM16.5696 16.7579L16.8957 16.7804L16.9182 16.4549L16.5927 16.4318L16.5696 16.7579ZM16.4368 18.6837L16.7627 18.7094L16.7629 18.7062L16.4368 18.6837ZM16.6644 19.7461L16.4132 19.9555L16.4197 19.9629L16.6644 19.7461ZM17.5562 20.4051C17.9971 20.4051 18.3882 20.2848 18.6497 19.9766L18.1512 19.5536C18.0585 19.6628 17.8868 19.7512 17.5562 19.7512V20.4051ZM18.6497 19.9766C18.8998 19.6819 18.993 19.2634 18.993 18.788H18.3392C18.3392 19.198 18.2553 19.4309 18.1512 19.5536L18.6497 19.9766ZM18.993 18.788C18.993 18.5263 18.9624 18.1745 18.9048 17.7395L18.2566 17.8253C18.3129 18.2505 18.3392 18.5691 18.3392 18.788H18.993ZM18.9049 17.7402C18.8471 17.2973 18.7577 16.7293 18.6371 16.0377L17.993 16.15C18.1128 16.8371 18.2005 17.3949 18.2565 17.8247L18.9049 17.7402ZM18.3817 16.4139L21.2086 15.8258L21.0755 15.1856L18.2485 15.7738L18.3817 16.4139ZM20.8183 15.5511L21.046 17.1733L21.6935 17.0824L21.4658 15.4603L20.8183 15.5511ZM21.0462 17.1752C21.1677 18.0063 21.3211 18.6612 21.5139 19.1228L22.1172 18.8707C21.956 18.4848 21.8121 17.8937 21.6932 17.0806L21.0462 17.1752ZM21.5139 19.1228C21.713 19.5991 22.0108 19.9605 22.4258 20.1558L22.7042 19.5642C22.4742 19.4559 22.2723 19.2418 22.1172 18.8707L21.5139 19.1228ZM22.4328 20.159C22.8209 20.3306 23.3247 20.4051 23.9216 20.4051V19.7512C23.3674 19.7512 22.9669 19.6803 22.6973 19.561L22.4328 20.159ZM23.9216 20.4051H23.9311V19.7512H23.9216V20.4051ZM23.6041 20.0782V23H24.258V20.0782H23.6041ZM23.9311 22.6731H23.9216V23.3269H23.9311V22.6731ZM23.9216 22.6731C23.0511 22.6731 22.3773 22.5234 21.8784 22.2488L21.5631 22.8215C22.1899 23.1667 22.9833 23.3269 23.9216 23.3269V22.6731ZM21.8822 22.2509C21.3962 21.9748 21.098 21.5946 20.9642 21.1024L20.3333 21.2738C20.5157 21.9453 20.9321 22.4631 21.5592 22.8194L21.8822 22.2509ZM20.3296 21.1172C20.2215 21.6036 19.9646 21.9772 19.548 22.2531L19.9091 22.7982C20.4665 22.4291 20.823 21.911 20.9679 21.259L20.3296 21.1172ZM19.5489 22.2526C19.1323 22.5266 18.6069 22.6731 17.9546 22.6731V23.3269C18.7063 23.3269 19.3635 23.1572 19.9082 22.7988L19.5489 22.2526ZM17.9546 22.6731C17.3038 22.6731 16.7898 22.5371 16.3929 22.287L16.0443 22.8402C16.5707 23.1719 17.214 23.3269 17.9546 23.3269V22.6731ZM16.3929 22.287C15.9913 22.034 15.7082 21.6886 15.5373 21.242L14.9267 21.4757C15.1478 22.0536 15.5225 22.5114 16.0443 22.8402L16.3929 22.287ZM14.9254 21.2454C14.7457 21.7311 14.4636 22.0791 14.0829 22.3102C13.6975 22.5442 13.1863 22.6731 12.5283 22.6731V23.3269C13.268 23.3269 13.9063 23.1823 14.4221 22.8692C14.9426 22.5532 15.3135 22.0807 15.5386 21.4723L14.9254 21.2454ZM12.5283 22.6731C11.8549 22.6731 11.3394 22.5388 10.9578 22.297L10.6078 22.8492C11.1243 23.1766 11.7725 23.3269 12.5283 23.3269V22.6731ZM10.9606 22.2987C10.5812 22.0529 10.3078 21.6908 10.145 21.1912L9.52335 21.3937C9.72734 22.0198 10.0864 22.5114 10.6051 22.8475L10.9606 22.2987ZM9.54466 21.1406C9.30854 21.5909 8.92582 21.9606 8.37519 22.2446L8.67491 22.8257C9.3259 22.4899 9.81594 22.0312 10.1237 21.4443L9.54466 21.1406ZM8.37394 22.2453C7.83119 22.5282 7.21362 22.6731 6.51392 22.6731V23.3269C7.30676 23.3269 8.02994 23.1619 8.67617 22.8251L8.37394 22.2453ZM6.51392 22.6731H6.15344V23.3269H6.51392V22.6731ZM6.15344 22.6731C6.16754 22.6731 6.18541 22.6766 6.2024 22.6851C6.21836 22.693 6.22467 22.701 6.22326 22.6993C6.2213 22.697 6.21314 22.6863 6.20186 22.6616C6.19068 22.637 6.17824 22.6027 6.16603 22.5563L5.53371 22.7227C5.57125 22.8654 5.62841 23.008 5.72313 23.1205C5.82684 23.2436 5.97429 23.3269 6.15344 23.3269V22.6731ZM6.16603 22.5563C6.11412 22.3591 6.08193 22.0152 6.08193 21.5011H5.42808C5.42808 22.0243 5.45913 22.4393 5.53371 22.7227L6.16603 22.5563ZM6.08193 21.5011C6.08193 20.9982 6.11446 20.6741 6.16421 20.5L5.53553 20.3204C5.45879 20.589 5.42808 20.9922 5.42808 21.5011H6.08193ZM6.16421 20.5C6.17583 20.4593 6.18742 20.4301 6.19738 20.41C6.20739 20.3898 6.21404 20.3822 6.21447 20.3818C6.21452 20.3817 6.21281 20.3836 6.20907 20.3864C6.20526 20.3893 6.19986 20.3927 6.19295 20.3959C6.1779 20.4028 6.16337 20.4051 6.15344 20.4051V19.7512C5.98437 19.7512 5.83904 19.8234 5.73192 19.9406C5.63376 20.0479 5.5743 20.1847 5.53553 20.3204L6.16421 20.5ZM6.15344 20.4051H6.51392V19.7512H6.15344V20.4051ZM6.51392 20.4051C7.23972 20.4051 7.84322 20.2534 8.25785 19.8867L7.82463 19.3969C7.58153 19.612 7.16682 19.7512 6.51392 19.7512V20.4051ZM8.25553 19.8887C8.68268 19.518 8.89781 18.9248 8.96447 18.1915L8.31331 18.1323C8.25349 18.7904 8.07019 19.1838 7.82696 19.3949L8.25553 19.8887ZM8.96461 18.1899L9.14485 16.0934L8.49341 16.0374L8.31317 18.1339L8.96461 18.1899ZM8.79479 16.3914L11.7166 16.6096L11.7653 15.9576L8.84348 15.7394L8.79479 16.3914ZM11.4153 16.2551L11.2161 18.5318L11.8674 18.5888L12.0666 16.3121L11.4153 16.2551ZM11.2162 18.5304C11.1685 19.048 11.2333 19.5065 11.471 19.8546L12.0109 19.4859C11.8945 19.3154 11.8264 19.034 11.8673 18.5903L11.2162 18.5304ZM11.4731 19.8577C11.7245 20.2168 12.1213 20.3825 12.5887 20.4047L12.6198 19.7516C12.2903 19.7359 12.1116 19.6296 12.0088 19.4828L11.4731 19.8577ZM12.5879 20.4047C13.0365 20.4271 13.4332 20.307 13.7183 19.9952L13.2357 19.554C13.116 19.6849 12.9308 19.7672 12.6206 19.7517L12.5879 20.4047ZM13.718 19.9955C13.9954 19.6929 14.1346 19.2564 14.182 18.7421L13.5309 18.6821C13.4897 19.1291 13.376 19.401 13.236 19.5537L13.718 19.9955ZM14.1823 18.7382L14.3531 16.6037L13.7013 16.5516L13.5306 18.686L14.1823 18.7382ZM14.0041 16.9038L16.5465 17.084L16.5927 16.4318L14.0503 16.2516L14.0041 16.9038ZM16.2434 16.7354L16.1106 18.6612L16.7629 18.7062L16.8957 16.7804L16.2434 16.7354ZM16.1109 18.6579C16.0702 19.1729 16.1432 19.6314 16.4133 19.9554L16.9156 19.5369C16.8062 19.4056 16.7274 19.1557 16.7627 18.7094L16.1109 18.6579ZM16.4197 19.9629C16.6973 20.2763 17.0983 20.4051 17.5562 20.4051V19.7512C17.2172 19.7512 17.0237 19.6586 16.9092 19.5294L16.4197 19.9629ZM32.2033 20.0782H32.5302V19.7512H32.2033V20.0782ZM32.2033 23V23.3269H32.5302V23H32.2033ZM23.637 22.7059L23.9483 22.6055L23.9451 22.5966L23.637 22.7059ZM23.637 20.3722L23.9452 20.4816L23.9481 20.4726L23.637 20.3722ZM23.9311 20.4051H32.2033V19.7512H23.9311V20.4051ZM31.8763 20.0782V23H32.5302V20.0782H31.8763ZM32.2033 22.6731H23.9311V23.3269H32.2033V22.6731ZM23.9311 22.6731C23.9391 22.6731 23.9518 22.6748 23.9658 22.6807C23.9794 22.6865 23.9871 22.6933 23.9891 22.6953C23.9905 22.6967 23.9859 22.6925 23.9776 22.6774C23.9693 22.6623 23.959 22.6392 23.9481 22.6056L23.3259 22.8063C23.3663 22.9316 23.4276 23.0585 23.5268 23.1576C23.6341 23.265 23.7738 23.3269 23.9311 23.3269V22.6731ZM23.9451 22.5966C23.9243 22.538 23.901 22.4246 23.8843 22.2381C23.8681 22.0567 23.8596 21.8245 23.8596 21.5391H23.2057C23.2057 21.8355 23.2145 22.0887 23.2331 22.2963C23.2512 22.4987 23.2801 22.6778 23.3289 22.8152L23.9451 22.5966ZM23.8596 21.5391C23.8596 21.2537 23.8681 21.0215 23.8843 20.8401C23.901 20.6536 23.9243 20.5402 23.9451 20.4816L23.3289 20.2629C23.2801 20.4004 23.2512 20.5795 23.2331 20.7819C23.2145 20.9895 23.2057 21.2427 23.2057 21.5391H23.8596ZM23.9481 20.4726C23.959 20.439 23.9693 20.4159 23.9776 20.4008C23.9859 20.3857 23.9905 20.3814 23.9891 20.3829C23.9871 20.3849 23.9794 20.3917 23.9658 20.3975C23.9518 20.4034 23.9391 20.4051 23.9311 20.4051V19.7512C23.7738 19.7512 23.6341 19.8132 23.5268 19.9205C23.4276 20.0197 23.3663 20.1466 23.3259 20.2719L23.9481 20.4726ZM40.4755 20.0782H40.8024V19.7512H40.4755V20.0782ZM40.4755 23V23.3269H40.8024V23H40.4755ZM31.9092 22.7059L32.2204 22.6055L32.2173 22.5966L31.9092 22.7059ZM31.9092 20.3722L32.2174 20.4816L32.2203 20.4726L31.9092 20.3722ZM32.2033 20.4051H40.4755V19.7512H32.2033V20.4051ZM40.1485 20.0782V23H40.8024V20.0782H40.1485ZM40.4755 22.6731H32.2033V23.3269H40.4755V22.6731ZM32.2033 22.6731C32.2113 22.6731 32.224 22.6748 32.238 22.6807C32.2516 22.6865 32.2593 22.6933 32.2613 22.6953C32.2627 22.6967 32.2581 22.6925 32.2498 22.6774C32.2415 22.6623 32.2312 22.6392 32.2203 22.6056L31.5981 22.8063C31.6385 22.9316 31.6998 23.0585 31.799 23.1576C31.9063 23.265 32.046 23.3269 32.2033 23.3269V22.6731ZM32.2173 22.5966C32.1965 22.538 32.1732 22.4246 32.1565 22.2381C32.1403 22.0567 32.1318 21.8245 32.1318 21.5391H31.4779C31.4779 21.8355 31.4867 22.0887 31.5053 22.2963C31.5234 22.4987 31.5523 22.6778 31.6011 22.8152L32.2173 22.5966ZM32.1318 21.5391C32.1318 21.2537 32.1403 21.0215 32.1565 20.8401C32.1732 20.6536 32.1965 20.5402 32.2173 20.4816L31.6011 20.2629C31.5523 20.4004 31.5234 20.5795 31.5053 20.7819C31.4867 20.9895 31.4779 21.2427 31.4779 21.5391H32.1318ZM32.2203 20.4726C32.2312 20.439 32.2415 20.4159 32.2498 20.4008C32.2581 20.3857 32.2627 20.3814 32.2613 20.3829C32.2593 20.3849 32.2516 20.3917 32.238 20.3975C32.224 20.4034 32.2113 20.4051 32.2033 20.4051V19.7512C32.046 19.7512 31.9063 19.8132 31.799 19.9205C31.6998 20.0197 31.6385 20.1466 31.5981 20.2719L32.2203 20.4726ZM48.7477 20.0782H49.0746V19.7512H48.7477V20.0782ZM48.7477 23V23.3269H49.0746V23H48.7477ZM40.1814 22.7059L40.4926 22.6055L40.4895 22.5966L40.1814 22.7059ZM40.1814 20.3722L40.4896 20.4816L40.4925 20.4726L40.1814 20.3722ZM40.4755 20.4051H48.7477V19.7512H40.4755V20.4051ZM48.4207 20.0782V23H49.0746V20.0782H48.4207ZM48.7477 22.6731H40.4755V23.3269H48.7477V22.6731ZM40.4755 22.6731C40.4835 22.6731 40.4962 22.6748 40.5102 22.6807C40.5238 22.6865 40.5315 22.6933 40.5335 22.6953C40.5349 22.6967 40.5303 22.6925 40.522 22.6774C40.5137 22.6623 40.5034 22.6392 40.4925 22.6056L39.8703 22.8063C39.9107 22.9316 39.972 23.0585 40.0712 23.1576C40.1785 23.265 40.3182 23.3269 40.4755 23.3269V22.6731ZM40.4895 22.5966C40.4687 22.538 40.4454 22.4246 40.4287 22.2381C40.4125 22.0567 40.404 21.8245 40.404 21.5391H39.7501C39.7501 21.8355 39.7589 22.0887 39.7775 22.2963C39.7956 22.4987 39.8245 22.6778 39.8733 22.8152L40.4895 22.5966ZM40.404 21.5391C40.404 21.2537 40.4125 21.0215 40.4287 20.8401C40.4454 20.6536 40.4687 20.5402 40.4895 20.4816L39.8733 20.2629C39.8245 20.4004 39.7956 20.5795 39.7775 20.7819C39.7589 20.9895 39.7501 21.2427 39.7501 21.5391H40.404ZM40.4925 20.4726C40.5034 20.439 40.5137 20.4159 40.522 20.4008C40.5303 20.3857 40.5349 20.3814 40.5335 20.3829C40.5315 20.3849 40.5238 20.3917 40.5102 20.3975C40.4962 20.4034 40.4835 20.4051 40.4755 20.4051V19.7512C40.3182 19.7512 40.1785 19.8132 40.0712 19.9205C39.972 20.0197 39.9107 20.1466 39.8703 20.2719L40.4925 20.4726ZM57.0199 20.0782H57.3468V19.7512H57.0199V20.0782ZM57.0199 23V23.3269H57.3468V23H57.0199ZM48.4536 22.7059L48.7648 22.6055L48.7617 22.5966L48.4536 22.7059ZM48.4536 20.3722L48.7618 20.4816L48.7647 20.4726L48.4536 20.3722ZM48.7477 20.4051H57.0199V19.7512H48.7477V20.4051ZM56.6929 20.0782V23H57.3468V20.0782H56.6929ZM57.0199 22.6731H48.7477V23.3269H57.0199V22.6731ZM48.7477 22.6731C48.7557 22.6731 48.7684 22.6748 48.7824 22.6807C48.796 22.6865 48.8037 22.6933 48.8057 22.6953C48.8071 22.6967 48.8025 22.6925 48.7942 22.6774C48.7859 22.6623 48.7756 22.6392 48.7647 22.6056L48.1424 22.8063C48.1829 22.9316 48.2442 23.0585 48.3434 23.1576C48.4507 23.265 48.5904 23.3269 48.7477 23.3269V22.6731ZM48.7617 22.5966C48.7409 22.538 48.7176 22.4246 48.7009 22.2381C48.6847 22.0567 48.6762 21.8245 48.6762 21.5391H48.0223C48.0223 21.8355 48.0311 22.0887 48.0497 22.2963C48.0678 22.4987 48.0967 22.6778 48.1455 22.8152L48.7617 22.5966ZM48.6762 21.5391C48.6762 21.2537 48.6847 21.0215 48.7009 20.8401C48.7176 20.6536 48.7409 20.5402 48.7617 20.4816L48.1455 20.2629C48.0967 20.4004 48.0678 20.5795 48.0497 20.7819C48.0311 20.9895 48.0223 21.2427 48.0223 21.5391H48.6762ZM48.7647 20.4726C48.7756 20.439 48.7859 20.4159 48.7942 20.4008C48.8025 20.3857 48.8071 20.3814 48.8057 20.3829C48.8037 20.3849 48.796 20.3917 48.7824 20.3975C48.7684 20.4034 48.7557 20.4051 48.7477 20.4051V19.7512C48.5904 19.7512 48.4507 19.8132 48.3434 19.9205C48.2442 20.0197 48.1829 20.1466 48.1424 20.2719L48.7647 20.4726ZM65.8612 7.83114L66.1812 7.76417L66.1131 7.43849L65.7886 7.51239L65.8612 7.83114ZM66.4589 10.6866L66.5391 11.0035L66.8431 10.9266L66.7789 10.6196L66.4589 10.6866ZM63.4706 11.6068L63.3574 11.3001L63.3568 11.3003L63.4706 11.6068ZM60.6247 12.859L60.477 12.5673L60.2978 12.6581V12.859H60.6247ZM60.6247 12.9538H60.2978V13.1062L60.4144 13.2042L60.6247 12.9538ZM62.2848 14.5001L62.0477 14.7252L62.0492 14.7267L62.2848 14.5001ZM63.5276 15.9895L63.2609 16.1786L63.2625 16.1808L63.5276 15.9895ZM64.4857 17.5737L64.7781 17.4275L64.4857 17.5737ZM65.4343 19.0536L65.1888 19.2695L65.4343 19.0536ZM67.9103 20.0782H68.2372V19.7512H67.9103V20.0782ZM67.9103 23V23.3269H68.2372V23H67.9103ZM66.1838 22.7439L66.0859 23.0558L66.0869 23.0561L66.1838 22.7439ZM64.6849 21.9849L64.4893 22.2469L64.4911 22.2482L64.6849 21.9849ZM63.5276 20.7612L63.799 20.579L63.4824 20.1072L63.2336 20.6181L63.5276 20.7612ZM61.6872 22.4308L61.8183 22.7303L61.8194 22.7298L61.6872 22.4308ZM56.7163 22.6585L56.4007 22.7438L56.4013 22.746L56.7163 22.6585ZM56.7163 20.4102L56.4019 20.3204L56.7163 20.4102ZM60.8239 19.6987L60.6886 19.4011L60.8239 19.6987ZM60.5773 16.7389L60.3403 16.9641L60.3412 16.9651L60.5773 16.7389ZM57.1906 13.912H56.8637V14.0777L56.9974 14.1757L57.1906 13.912ZM57.1906 11.5404L57.0161 11.2639L56.8637 11.3601V11.5404H57.1906ZM65.5413 7.89812L66.1389 10.7535L66.7789 10.6196L66.1812 7.76417L65.5413 7.89812ZM66.3787 10.3696C65.3185 10.6379 64.3114 10.9479 63.3574 11.3001L63.5839 11.9135C64.5146 11.5699 65.4996 11.2665 66.5391 11.0035L66.3787 10.3696ZM63.3568 11.3003C62.4084 11.6528 61.4484 12.0752 60.477 12.5673L60.7724 13.1506C61.7236 12.6688 62.661 12.2564 63.5845 11.9132L63.3568 11.3003ZM60.2978 12.859V12.9538H60.9516V12.859H60.2978ZM60.4144 13.2042C61.0392 13.729 61.5834 14.236 62.0478 14.7252L62.5219 14.275C62.0377 13.765 61.475 13.2412 60.835 12.7035L60.4144 13.2042ZM62.0492 14.7267C62.5135 15.2096 62.9171 15.6936 63.2609 16.1786L63.7943 15.8004C63.4297 15.2861 63.0048 14.7772 62.5205 14.2735L62.0492 14.7267ZM63.2625 16.1808C63.6125 16.666 63.9228 17.179 64.1933 17.7199L64.7781 17.4275C64.4921 16.8554 64.1636 16.3122 63.7927 15.7982L63.2625 16.1808ZM64.1933 17.7199C64.511 18.3553 64.8418 18.8748 65.1888 19.2695L65.6799 18.8378C65.3818 18.4988 65.0802 18.0318 64.7781 17.4275L64.1933 17.7199ZM65.1888 19.2695C65.5407 19.6697 65.9425 19.9652 66.3952 20.1449L66.6364 19.5371C66.2923 19.4006 65.9731 19.1712 65.6799 18.8378L65.1888 19.2695ZM66.3952 20.1449C66.84 20.3214 67.3473 20.4051 67.9103 20.4051V19.7512C67.4108 19.7512 66.9885 19.6769 66.6364 19.5371L66.3952 20.1449ZM67.5834 20.0782V23H68.2372V20.0782H67.5834ZM67.9103 22.6731C67.3409 22.6731 66.7982 22.5922 66.2807 22.4316L66.0869 23.0561C66.6698 23.237 67.2781 23.3269 67.9103 23.3269V22.6731ZM66.2817 22.432C65.7719 22.2719 65.3048 22.0353 64.8787 21.7217L64.4911 22.2482C64.9758 22.605 65.5078 22.8743 66.0859 23.0558L66.2817 22.432ZM64.8805 21.723C64.4621 21.4106 64.1017 21.03 63.799 20.579L63.2561 20.9434C63.5986 21.4537 64.0097 21.8889 64.4894 22.2469L64.8805 21.723ZM63.2336 20.6181C62.9192 21.2639 62.3705 21.7714 61.555 22.1318L61.8194 22.7298C62.7494 22.3187 63.4277 21.7131 63.8215 20.9043L63.2336 20.6181ZM61.556 22.1314C60.7415 22.4881 59.7389 22.6731 58.5377 22.6731V23.3269C59.803 23.3269 60.9 23.1324 61.8183 22.7303L61.556 22.1314ZM58.5377 22.6731H57.0199V23.3269H58.5377V22.6731ZM57.0199 22.6731C57.0312 22.6731 57.0468 22.6757 57.0626 22.6832C57.0776 22.6903 57.0843 22.6978 57.084 22.6974C57.083 22.6964 57.0759 22.6878 57.0654 22.6661C57.055 22.6445 57.0431 22.6136 57.0313 22.571L56.4013 22.746C56.4396 22.884 56.4983 23.0227 56.5953 23.1318C56.7013 23.2511 56.8474 23.3269 57.0199 23.3269V22.6731ZM57.0319 22.5732C56.9807 22.3837 56.9483 22.0444 56.9483 21.5296H56.2945C56.2945 22.052 56.3254 22.4653 56.4007 22.7438L57.0319 22.5732ZM56.9483 21.5296C56.9483 21.0063 56.981 20.6736 57.0306 20.5L56.4019 20.3204C56.325 20.5895 56.2945 21.003 56.2945 21.5296H56.9483ZM57.0306 20.5C57.0423 20.4593 57.0538 20.4301 57.0638 20.41C57.0738 20.3898 57.0805 20.3822 57.0809 20.3818C57.0809 20.3817 57.0792 20.3836 57.0755 20.3864C57.0717 20.3893 57.0663 20.3927 57.0594 20.3959C57.0443 20.4028 57.0298 20.4051 57.0199 20.4051V19.7512C56.8508 19.7512 56.7055 19.8234 56.5983 19.9406C56.5002 20.0479 56.4407 20.1847 56.4019 20.3204L57.0306 20.5ZM57.0199 20.4051H58.4808V19.7512H57.0199V20.4051ZM58.4808 20.4051C59.5066 20.4051 60.3414 20.2772 60.9592 19.9963L60.6886 19.4011C60.1934 19.6262 59.4661 19.7512 58.4808 19.7512V20.4051ZM60.9592 19.9963C61.5873 19.7108 61.9857 19.2598 61.9857 18.6267H61.3318C61.3318 18.9171 61.1736 19.1806 60.6886 19.4011L60.9592 19.9963ZM61.9857 18.6267C61.9857 17.9829 61.5401 17.2714 60.8134 16.5128L60.3412 16.9651C61.0564 17.7116 61.3318 18.2587 61.3318 18.6267H61.9857ZM60.8143 16.5138C60.0732 15.7336 58.9258 14.7778 57.3838 13.6482L56.9974 14.1757C58.529 15.2976 59.6394 16.2264 60.3403 16.9641L60.8143 16.5138ZM57.5175 13.912V11.5404H56.8637V13.912H57.5175ZM57.3651 11.8168C60.2028 10.0252 63.0589 8.80471 65.9338 8.1499L65.7886 7.51239C62.8325 8.18569 59.9082 9.43798 57.0161 11.2639L57.3651 11.8168ZM72.4638 14.5286L72.7817 14.4524L72.7032 14.1246L72.3779 14.2132L72.4638 14.5286ZM72.9002 16.701L72.5772 16.7518L72.5777 16.7547L72.9002 16.701ZM72.5777 20.932L72.2847 20.7869L72.2841 20.788L72.5777 20.932ZM71.0314 22.4593L70.8831 22.1679L70.882 22.1685L71.0314 22.4593ZM67.6162 22.7059L67.9275 22.6055L67.9243 22.5966L67.6162 22.7059ZM67.6162 20.3722L67.9245 20.4816L67.9274 20.4726L67.6162 20.3722ZM69.7412 19.6418L69.9674 19.8778L69.9675 19.8777L69.7412 19.6418ZM70.0638 16.9666L69.7418 17.0237L69.7427 17.0283L70.0638 16.9666ZM69.7128 15.278L69.6268 14.9626L69.3231 15.0453L69.3943 15.352L69.7128 15.278ZM68.8969 26.2349L68.6657 26.0037L68.434 26.2355L68.6664 26.4667L68.8969 26.2349ZM70.6993 24.4325L70.9311 24.2019L70.7 23.9695L70.4682 24.2013L70.6993 24.4325ZM72.4923 26.2349L72.7235 26.4661L72.954 26.2355L72.7241 26.0043L72.4923 26.2349ZM70.6993 28.0278L70.4688 28.2596L70.7 28.4896L70.9305 28.259L70.6993 28.0278ZM65.5767 26.2349L65.3455 26.0037L65.1137 26.2355L65.3461 26.4667L65.5767 26.2349ZM67.3791 24.4325L67.6109 24.2019L67.3797 23.9695L67.1479 24.2013L67.3791 24.4325ZM69.172 26.2349L69.4032 26.4661L69.6338 26.2355L69.4038 26.0043L69.172 26.2349ZM67.3791 28.0278L67.1485 28.2596L67.3797 28.4896L67.6103 28.259L67.3791 28.0278ZM72.1459 14.6048C72.3276 15.3628 72.4713 16.0784 72.5773 16.7518L73.2232 16.6502C73.1141 15.9575 72.9669 15.2249 72.7817 14.4524L72.1459 14.6048ZM72.5777 16.7547C72.6891 17.423 72.744 18.0404 72.744 18.6078H73.3979C73.3979 17.9988 73.339 17.345 73.2227 16.6472L72.5777 16.7547ZM72.744 18.6078C72.744 19.4526 72.5873 20.1759 72.2847 20.7869L72.8706 21.077C73.2258 20.3599 73.3979 19.5338 73.3979 18.6078H72.744ZM72.2841 20.788C71.9955 21.3767 71.534 21.8367 70.8831 22.1679L71.1796 22.7506C71.9454 22.3609 72.5148 21.8027 72.8712 21.0759L72.2841 20.788ZM70.882 22.1685C70.2421 22.4971 69.3786 22.6731 68.2708 22.6731V23.3269C69.4397 23.3269 70.4166 23.1425 71.1807 22.7501L70.882 22.1685ZM68.2708 22.6731H67.9103V23.3269H68.2708V22.6731ZM67.9103 22.6731C67.9184 22.6731 67.9311 22.6748 67.945 22.6807C67.9587 22.6865 67.9663 22.6933 67.9684 22.6953C67.9698 22.6967 67.9651 22.6925 67.9568 22.6774C67.9486 22.6623 67.9382 22.6392 67.9274 22.6056L67.3051 22.8063C67.3455 22.9316 67.4069 23.0585 67.506 23.1576C67.6134 23.265 67.7531 23.3269 67.9103 23.3269V22.6731ZM67.9243 22.5966C67.9035 22.538 67.8803 22.4246 67.8636 22.2381C67.8474 22.0567 67.8388 21.8245 67.8388 21.5391H67.185C67.185 21.8355 67.1938 22.0887 67.2124 22.2963C67.2305 22.4987 67.2594 22.6778 67.3081 22.8152L67.9243 22.5966ZM67.8388 21.5391C67.8388 21.2537 67.8474 21.0215 67.8636 20.8401C67.8803 20.6536 67.9035 20.5402 67.9243 20.4816L67.3081 20.2629C67.2594 20.4004 67.2305 20.5795 67.2124 20.7819C67.1938 20.9895 67.185 21.2427 67.185 21.5391H67.8388ZM67.9274 20.4726C67.9382 20.439 67.9486 20.4159 67.9568 20.4008C67.9651 20.3857 67.9698 20.3814 67.9684 20.3829C67.9663 20.3849 67.9587 20.3917 67.945 20.3975C67.9311 20.4034 67.9184 20.4051 67.9103 20.4051V19.7512C67.7531 19.7512 67.6134 19.8132 67.506 19.9205C67.4069 20.0197 67.3455 20.1466 67.3051 20.2719L67.9274 20.4726ZM67.9103 20.4051H68.2708V19.7512H67.9103V20.4051ZM68.2708 20.4051C68.9828 20.4051 69.575 20.2539 69.9674 19.8778L69.515 19.4058C69.3003 19.6115 68.9122 19.7512 68.2708 19.7512V20.4051ZM69.9675 19.8777C70.3663 19.4953 70.533 18.9309 70.533 18.2568H69.8791C69.8791 18.8348 69.7359 19.1938 69.5149 19.4059L69.9675 19.8777ZM70.533 18.2568C70.533 17.8632 70.4822 17.4116 70.3848 16.9049L69.7427 17.0283C69.835 17.5082 69.8791 17.9167 69.8791 18.2568H70.533ZM70.3857 16.9096C70.2959 16.403 70.1776 15.8344 70.0312 15.204L69.3943 15.352C69.5388 15.9739 69.6545 16.531 69.7418 17.0237L70.3857 16.9096ZM69.7987 15.5934L72.5498 14.844L72.3779 14.2132L69.6268 14.9626L69.7987 15.5934ZM69.1281 26.4661L70.9305 24.6636L70.4682 24.2013L68.6657 26.0037L69.1281 26.4661ZM70.4676 24.663L72.2605 26.4654L72.7241 26.0043L70.9311 24.2019L70.4676 24.663ZM72.2611 26.0037L70.4682 27.7967L70.9305 28.259L72.7235 26.4661L72.2611 26.0037ZM70.9299 27.796L69.1275 26.0031L68.6664 26.4667L70.4688 28.2596L70.9299 27.796ZM65.8078 26.4661L67.6103 24.6636L67.1479 24.2013L65.3455 26.0037L65.8078 26.4661ZM67.1473 24.663L68.9402 26.4654L69.4038 26.0043L67.6109 24.2019L67.1473 24.663ZM68.9409 26.0037L67.1479 27.7967L67.6103 28.259L69.4032 26.4661L68.9409 26.0037ZM67.6096 27.796L65.8072 26.0031L65.3461 26.4667L67.1485 28.2596L67.6096 27.796ZM79.2656 22.9431L79.5604 23.0844L79.8169 22.549L79.2274 22.6184L79.2656 22.9431ZM78.6111 23L78.5924 22.6735L78.5823 22.6743L78.6111 23ZM75.4141 22.1272L75.1817 22.3572L75.1829 22.3584L75.4141 22.1272ZM74.7311 17.7635L74.4145 17.6818L74.4139 17.6842L74.7311 17.7635ZM75.4236 16.1508L75.6994 16.3263L75.7004 16.3247L75.4236 16.1508ZM76.5999 14.965L76.7735 15.242L76.5999 14.965ZM80.2996 15.0883L80.1081 15.3533L80.1117 15.3558L80.2996 15.0883ZM81.5424 16.6251L81.2449 16.7608L81.246 16.7632L81.5424 16.6251ZM82.178 18.8639L81.8543 18.9101L81.8547 18.9125L82.178 18.8639ZM80.6601 25.808L80.4296 25.5762L80.4283 25.5775L80.6601 25.808ZM75.509 28.616L75.2137 28.7562L75.3362 29.0142L75.6082 28.9275L75.509 28.616ZM74.2568 25.9788L74.1621 25.6658L73.7985 25.7758L73.9614 26.119L74.2568 25.9788ZM77.5106 24.6222L77.346 24.3397L77.3451 24.3402L77.5106 24.6222ZM79.6451 19.9833L79.7046 20.3048L79.9985 20.2503L79.9706 19.9528L79.6451 19.9833ZM79.4838 18.8924L79.164 18.96L79.1642 18.9613L79.4838 18.8924ZM79.2087 18.0481L79.5027 17.905L79.2087 18.0481ZM78.8008 17.5168L78.5965 17.7722L78.603 17.7771L78.8008 17.5168ZM77.1881 18.2947L76.8753 18.1995L76.874 18.204L77.1881 18.2947ZM77.3588 19.9074L77.1696 20.1741L77.1755 20.1781L77.3588 19.9074ZM79.0285 20.0687L78.9942 19.7436L78.9933 19.7437L79.0285 20.0687ZM79.2274 22.6184C79.019 22.6429 78.8074 22.6613 78.5924 22.6736L78.6297 23.3264C78.8574 23.3134 79.0821 23.2938 79.3038 23.2678L79.2274 22.6184ZM78.5823 22.6743C78.3778 22.6924 78.1598 22.7015 77.928 22.7015V23.3554C78.1769 23.3554 78.4142 23.3456 78.6398 23.3257L78.5823 22.6743ZM77.928 22.7015C76.9154 22.7015 76.1696 22.4204 75.6453 21.8961L75.1829 22.3584C75.8603 23.0358 76.7904 23.3554 77.928 23.3554V22.7015ZM75.6465 21.8973C75.1249 21.3702 74.8398 20.5857 74.8398 19.49H74.186C74.186 20.6964 74.5017 21.67 75.1817 22.3572L75.6465 21.8973ZM74.8398 19.49C74.8398 18.9489 74.9089 18.4001 75.0482 17.8428L74.4139 17.6842C74.2623 18.2906 74.186 18.8927 74.186 19.49H74.8398ZM75.0476 17.8452C75.1913 17.2885 75.4089 16.7828 75.6994 16.3263L75.1478 15.9753C74.8185 16.4927 74.5744 17.0622 74.4145 17.6818L75.0476 17.8452ZM75.7004 16.3247C75.9852 15.8713 76.3427 15.512 76.7735 15.242L76.4263 14.6879C75.9085 15.0124 75.4818 15.4436 75.1468 15.9769L75.7004 16.3247ZM76.7735 15.242C77.1878 14.9824 77.6883 14.846 78.2885 14.846V14.1922C77.5859 14.1922 76.9607 14.3531 76.4263 14.6879L76.7735 15.242ZM78.2885 14.846C79.0536 14.846 79.6519 15.0235 80.1081 15.3532L80.4912 14.8233C79.8975 14.3942 79.1551 14.1922 78.2885 14.1922V14.846ZM80.1117 15.3558C80.5906 15.6922 80.9693 16.1567 81.2449 16.7608L81.8398 16.4894C81.521 15.7907 81.0712 15.2307 80.4875 14.8208L80.1117 15.3558ZM81.246 16.7632C81.5338 17.3807 81.7379 18.0952 81.8543 18.9101L82.5016 18.8177C82.3777 17.9504 82.158 17.1723 81.8387 16.487L81.246 16.7632ZM81.8547 18.9125C81.9785 19.7363 82.0408 20.6022 82.0408 21.5106H82.6946C82.6946 20.5724 82.6303 19.6738 82.5013 18.8153L81.8547 18.9125ZM82.0408 21.5106C82.0408 23.1641 81.5011 24.5107 80.4296 25.5762L80.8907 26.0398C82.0959 24.8412 82.6946 23.3229 82.6946 21.5106H82.0408ZM80.4283 25.5775C79.3473 26.6645 77.6849 27.5794 75.4097 28.3045L75.6082 28.9275C77.9372 28.1853 79.7088 27.2282 80.8919 26.0385L80.4283 25.5775ZM75.8043 28.4758L74.5521 25.8385L73.9614 26.119L75.2137 28.7562L75.8043 28.4758ZM74.3514 26.2917C75.6649 25.8944 76.775 25.433 77.6761 24.9041L77.3451 24.3402C76.5007 24.8359 75.4416 25.2789 74.1621 25.6658L74.3514 26.2917ZM77.6752 24.9046C78.5838 24.3752 79.2302 23.7736 79.5604 23.0844L78.9708 22.8018C78.7192 23.3268 78.1956 23.8446 77.346 24.3397L77.6752 24.9046ZM79.9706 19.9528C79.9317 19.538 79.8762 19.1612 79.8034 18.8234L79.1642 18.9613C79.2305 19.2686 79.2826 19.6191 79.3196 20.0138L79.9706 19.9528ZM79.8036 18.8247C79.7301 18.4769 79.631 18.1688 79.5027 17.905L78.9147 18.1911C79.0141 18.3953 79.0984 18.6501 79.164 18.96L79.8036 18.8247ZM79.5027 17.905C79.3731 17.6387 79.2082 17.4158 78.9986 17.2565L78.603 17.7771C78.7096 17.8582 78.8166 17.9894 78.9147 18.1911L79.5027 17.905ZM79.005 17.2615C78.7834 17.0843 78.5198 17.0002 78.2316 17.0002V17.654C78.3861 17.654 78.5019 17.6964 78.5966 17.7721L79.005 17.2615ZM78.2316 17.0002C77.8851 17.0002 77.5793 17.1194 77.3417 17.3658L77.8124 17.8196C77.9162 17.7119 78.0469 17.654 78.2316 17.654V17.0002ZM77.3417 17.3658C77.1276 17.5878 76.9754 17.8707 76.8753 18.1995L77.5008 18.3899C77.5778 18.1369 77.6849 17.9518 77.8124 17.8196L77.3417 17.3658ZM76.874 18.204C76.7824 18.5211 76.7378 18.8587 76.7378 19.2149H77.3917C77.3917 18.9134 77.4293 18.6375 77.5022 18.3854L76.874 18.204ZM76.7378 19.2149C76.7378 19.6038 76.8593 19.9538 77.1696 20.174L77.548 19.6408C77.4663 19.5828 77.3917 19.4711 77.3917 19.2149H76.7378ZM77.1755 20.1781C77.4548 20.3673 77.8532 20.4335 78.3075 20.4335V19.7797C77.8891 19.7797 77.655 19.7132 77.5422 19.6367L77.1755 20.1781ZM78.3075 20.4335C78.5653 20.4335 78.8174 20.4203 79.0636 20.3937L78.9933 19.7437C78.7715 19.7676 78.543 19.7797 78.3075 19.7797V20.4335ZM79.0627 20.3938C79.3085 20.3679 79.5229 20.3384 79.7046 20.3048L79.5855 19.6618C79.4257 19.6915 79.2291 19.7188 78.9942 19.7436L79.0627 20.3938Z" fill="white" mask="url(#path-7-outside-3_2265_4359)"/>
</svg>
