<svg width="44" height="28" viewBox="0 0 44 28" fill="none" xmlns="http://www.w3.org/2000/svg">
<mask id="path-1-inside-1_2261_4102" fill="white">
<path fill-rule="evenodd" clip-rule="evenodd" d="M26.0171 0L26.2299 0.340075L13.2102 24.9765L8.60938 16.2809L17.2133 0H26.0171Z"/>
</mask>
<path fill-rule="evenodd" clip-rule="evenodd" d="M26.0171 0L26.2299 0.340075L13.2102 24.9765L8.60938 16.2809L17.2133 0H26.0171Z" fill="#171B2C"/>
<path d="M26.0171 0L26.8649 -0.530348L26.5711 -1H26.0171V0ZM26.2299 0.340075L27.114 0.807312L27.3831 0.29805L27.0776 -0.190273L26.2299 0.340075ZM13.2102 24.9765L12.3263 25.4442L13.2108 27.1158L14.0944 25.4438L13.2102 24.9765ZM8.60938 16.2809L7.72524 15.8137L7.47817 16.2812L7.72547 16.7486L8.60938 16.2809ZM17.2133 0V-1H16.6108L16.3292 -0.467237L17.2133 0ZM25.1693 0.530348L25.3821 0.870423L27.0776 -0.190273L26.8649 -0.530348L25.1693 0.530348ZM25.3457 -0.127162L12.3261 24.5093L14.0944 25.4438L27.114 0.807312L25.3457 -0.127162ZM14.0941 24.5089L9.49328 15.8132L7.72547 16.7486L12.3263 25.4442L14.0941 24.5089ZM9.49351 16.7481L18.0975 0.467237L16.3292 -0.467237L7.72524 15.8137L9.49351 16.7481ZM17.2133 1H26.0171V-1H17.2133V1Z" fill="white" mask="url(#path-1-inside-1_2261_4102)"/>
<path d="M28.5104 27.0065L42.5101 0.515625H34.4449L20.4453 27.0065H28.5104Z" fill="#171B2C" stroke="white"/>
<path d="M14.8294 27.0065L0.829761 0.515625H8.89495L22.8946 27.0065H14.8294Z" fill="#171B2C" stroke="white"/>
<mask id="path-5-inside-2_2261_4102" fill="white">
<path fill-rule="evenodd" clip-rule="evenodd" d="M17.0508 0.327373L31.4059 27.4909H40.6021L26.074 0H17.2434L17.0508 0.327373Z"/>
</mask>
<path fill-rule="evenodd" clip-rule="evenodd" d="M17.0508 0.327373L31.4059 27.4909H40.6021L26.074 0H17.2434L17.0508 0.327373Z" fill="#171B2C"/>
<path d="M31.4059 27.4909L30.5218 27.9581L30.8033 28.4909H31.4059V27.4909ZM17.0508 0.327373L16.1888 -0.179647L15.9059 0.301289L16.1666 0.79461L17.0508 0.327373ZM40.6021 27.4909V28.4909H42.2617L41.4863 27.0237L40.6021 27.4909ZM26.074 0L26.9582 -0.467237L26.6766 -1H26.074V0ZM17.2434 0V-1H16.6714L16.3814 -0.50702L17.2434 0ZM32.29 27.0237L17.9349 -0.139864L16.1666 0.79461L30.5218 27.9581L32.29 27.0237ZM40.6021 26.4909H31.4059V28.4909H40.6021V26.4909ZM25.1899 0.467237L39.718 27.9581L41.4863 27.0237L26.9582 -0.467237L25.1899 0.467237ZM17.2434 1H26.074V-1H17.2434V1ZM16.3814 -0.50702L16.1888 -0.179647L17.9127 0.834393L18.1053 0.50702L16.3814 -0.50702Z" fill="white" mask="url(#path-5-inside-2_2261_4102)"/>
</svg>
