<svg width="472" height="119" viewBox="0 0 472 119" fill="none" xmlns="http://www.w3.org/2000/svg">
<mask id="path-1-inside-1_2265_4338" fill="white">
<path fill-rule="evenodd" clip-rule="evenodd" d="M400.97 2.80469L401.836 4.1895L348.414 105.277L329.539 69.6029L364.84 2.80469H400.97Z"/>
</mask>
<path fill-rule="evenodd" clip-rule="evenodd" d="M400.97 2.80469L401.836 4.1895L348.414 105.277L329.539 69.6029L364.84 2.80469H400.97Z" fill="#171B2C"/>
<path fill-rule="evenodd" clip-rule="evenodd" d="M400.97 2.80469L401.836 4.1895L348.414 105.277L329.539 69.6029L364.84 2.80469H400.97Z" fill="white" fill-opacity="0.57"/>
<path d="M400.97 2.80469L402.671 1.74038L402.081 0.797885H400.97V2.80469ZM401.836 4.1895L403.61 5.12715L404.15 4.10516L403.537 3.12519L401.836 4.1895ZM348.414 105.277L346.64 106.216L348.415 109.57L350.189 106.215L348.414 105.277ZM329.539 69.6029L327.765 68.6652L327.269 69.6034L327.765 70.5414L329.539 69.6029ZM364.84 2.80469V0.797885H363.631L363.066 1.86703L364.84 2.80469ZM399.268 3.86899L400.135 5.2538L403.537 3.12519L402.671 1.74038L399.268 3.86899ZM400.062 3.25185L346.64 104.339L350.189 106.215L403.61 5.12715L400.062 3.25185ZM350.188 104.338L331.313 68.6643L327.765 70.5414L346.64 106.216L350.188 104.338ZM331.313 70.5405L366.614 3.74234L363.066 1.86703L327.765 68.6652L331.313 70.5405ZM364.84 4.81149H400.97V0.797885H364.84V4.81149Z" fill="#171B2C" mask="url(#path-1-inside-1_2265_4338)"/>
<path d="M411.793 114.584L470.335 3.80809H434.877L376.335 114.584H411.793Z" fill="#171B2C"/>
<path d="M411.793 114.584L470.335 3.80809H434.877L376.335 114.584H411.793Z" fill="white" fill-opacity="0.57"/>
<path d="M411.793 114.584L470.335 3.80809H434.877L376.335 114.584H411.793Z" stroke="#171B2C" stroke-width="2.0068"/>
<path d="M354.406 114.584L295.864 3.80809H331.322L389.864 114.584H354.406Z" fill="#171B2C"/>
<path d="M354.406 114.584L295.864 3.80809H331.322L389.864 114.584H354.406Z" fill="white" fill-opacity="0.57"/>
<path d="M354.406 114.584L295.864 3.80809H331.322L389.864 114.584H354.406Z" stroke="#171B2C" stroke-width="2.0068"/>
<mask id="path-5-inside-2_2265_4338" fill="white">
<path fill-rule="evenodd" clip-rule="evenodd" d="M364.141 4.14381L423.035 115.587H460.763L401.161 2.80469H364.928L364.141 4.14381Z"/>
</mask>
<path fill-rule="evenodd" clip-rule="evenodd" d="M364.141 4.14381L423.035 115.587H460.763L401.161 2.80469H364.928L364.141 4.14381Z" fill="#171B2C"/>
<path fill-rule="evenodd" clip-rule="evenodd" d="M364.141 4.14381L423.035 115.587H460.763L401.161 2.80469H364.928L364.141 4.14381Z" fill="white" fill-opacity="0.57"/>
<path d="M423.035 115.587L421.261 116.525L421.826 117.594H423.035V115.587ZM364.141 4.14381L362.411 3.12632L361.843 4.09146L362.366 5.08146L364.141 4.14381ZM460.763 115.587V117.594H464.093L462.537 114.649L460.763 115.587ZM401.161 2.80469L402.935 1.86703L402.37 0.797885H401.161V2.80469ZM364.928 2.80469V0.797885H363.781L363.199 1.7872L364.928 2.80469ZM424.809 114.649L365.915 3.20616L362.366 5.08146L421.261 116.525L424.809 114.649ZM460.763 113.58H423.035V117.594H460.763V113.58ZM399.387 3.74234L458.989 116.525L462.537 114.649L402.935 1.86703L399.387 3.74234ZM364.928 4.81149H401.161V0.797885H364.928V4.81149ZM363.199 1.7872L362.411 3.12632L365.87 5.1613L366.658 3.82218L363.199 1.7872Z" fill="#171B2C" mask="url(#path-5-inside-2_2265_4338)"/>
<mask id="path-7-outside-3_2265_4338" maskUnits="userSpaceOnUse" x="2" y="23" width="286" height="78" fill="black">
<rect fill="white" x="2" y="23" width="286" height="78"/>
<path d="M4.07254 31.1613H14.2461V62.5379C14.2461 64.8646 14.729 66.4998 15.6948 67.4436C16.6605 68.3875 18.5372 68.8594 21.3248 68.8594V79C15.9033 79 11.667 77.6391 8.61607 74.9174C5.58705 72.1737 4.07254 68.1131 4.07254 62.7355V31.1613ZM60.8996 68.8594C62.2385 68.8594 63.2152 68.4972 63.8298 67.7729C64.4444 67.0485 64.7517 65.9182 64.7517 64.3817C64.7517 63.5476 64.6529 62.3843 64.4554 60.8917C64.2578 59.3772 63.9505 57.4237 63.5335 55.0312L73.3449 52.99L74.135 58.62C74.5521 61.4734 75.0679 63.6354 75.6825 65.106C76.2971 66.5766 77.1641 67.5753 78.2835 68.1021C79.4249 68.607 80.9942 68.8594 82.9916 68.8594H83.0246V79H82.9916C79.8529 79 77.3067 78.4622 75.3532 77.3867C73.4217 76.2892 72.1815 74.7308 71.6328 72.7115C71.1938 74.6869 70.1293 76.2344 68.4392 77.3538C66.771 78.4513 64.7188 79 62.2824 79C59.8679 79 57.8596 78.4952 56.2573 77.4855C54.6549 76.4758 53.5136 75.082 52.8331 73.3041C51.4284 77.1014 48.3006 79 43.4498 79C40.9695 79 38.9501 78.5061 37.3917 77.5184C35.8333 76.5087 34.7359 75.0272 34.0993 73.0737C33.1555 74.8735 31.641 76.3112 29.5558 77.3867C27.4926 78.4622 25.1659 79 22.5759 79H21.3248C20.8419 79 20.4907 78.583 20.2712 77.7489C20.0517 76.9148 19.942 75.5978 19.942 73.798C19.942 72.042 20.0517 70.7799 20.2712 70.0117C20.4907 69.2435 20.8419 68.8594 21.3248 68.8594H22.5759C24.9684 68.8594 26.7353 68.3545 27.8767 67.3449C29.04 66.3352 29.7314 64.6231 29.9509 62.2087L30.5765 54.9325L40.7171 55.6897L40.0257 63.5915C39.872 65.2597 40.1025 66.5437 40.7171 67.4436C41.3317 68.3216 42.3304 68.7935 43.7132 68.8594C45.0301 68.9252 46.0398 68.574 46.7422 67.8058C47.4665 67.0156 47.9055 65.7865 48.0592 64.1183L48.6518 56.7104L57.4754 57.3359L57.0145 64.0195C56.8828 65.6877 57.1462 66.9169 57.8047 67.707C58.4851 68.4753 59.5167 68.8594 60.8996 68.8594ZM83.0246 68.8594H111.734V79H83.0246C82.5636 79 82.2234 78.6598 82.0039 77.9794C81.7625 77.2989 81.6417 75.949 81.6417 73.9297C81.6417 71.9103 81.7625 70.5605 82.0039 69.88C82.2234 69.1996 82.5636 68.8594 83.0246 68.8594ZM111.734 68.8594H140.444V79H111.734C111.273 79 110.933 78.6598 110.714 77.9794C110.472 77.2989 110.352 75.949 110.352 73.9297C110.352 71.9103 110.472 70.5605 110.714 69.88C110.933 69.1996 111.273 68.8594 111.734 68.8594ZM140.444 68.8594H169.154V79H140.444C139.983 79 139.643 78.6598 139.424 77.9794C139.182 77.2989 139.061 75.949 139.061 73.9297C139.061 71.9103 139.182 70.5605 139.424 69.88C139.643 69.1996 139.983 68.8594 140.444 68.8594ZM169.154 68.8594H197.864V79H169.154C168.693 79 168.353 78.6598 168.133 77.9794C167.892 77.2989 167.771 75.949 167.771 73.9297C167.771 71.9103 167.892 70.5605 168.133 69.88C168.353 69.1996 168.693 68.8594 169.154 68.8594ZM228.549 26.3544L230.623 36.2645C226.98 37.1864 223.523 38.2509 220.252 39.4581C217.004 40.6654 213.711 42.114 210.375 43.8041V44.1334C212.57 45.9771 214.491 47.766 216.137 49.5C217.783 51.2121 219.221 52.9351 220.45 54.6691C221.701 56.4031 222.809 58.2359 223.775 60.1674C224.851 62.3185 225.948 64.0305 227.068 65.3036C228.187 66.5766 229.438 67.4875 230.821 68.0363C232.204 68.585 233.817 68.8594 235.661 68.8594V79C233.576 79 231.578 78.7037 229.669 78.111C227.781 77.5184 226.047 76.6404 224.467 75.4771C222.908 74.3138 221.569 72.8981 220.45 71.2299C219.221 73.7541 217.092 75.6856 214.063 77.0246C211.055 78.3415 207.412 79 203.132 79H197.864C197.381 79 197.03 78.6049 196.81 77.8147C196.591 77.0026 196.481 75.6966 196.481 73.8968C196.481 72.075 196.591 70.7799 196.81 70.0117C197.03 69.2435 197.381 68.8594 197.864 68.8594H202.934C206.424 68.8594 209.135 68.4204 211.066 67.5424C212.998 66.6644 213.964 65.4243 213.964 63.822C213.964 62.066 212.713 59.8821 210.21 57.2701C207.708 54.6362 203.79 51.3657 198.456 47.4587V39.2277C208.4 32.9501 218.43 28.659 228.549 26.3544ZM251.464 49.5988C252.101 52.2546 252.606 54.7679 252.979 57.1384C253.374 59.5089 253.571 61.7148 253.571 63.7561C253.571 66.8291 253.001 69.5179 251.859 71.8225C250.74 74.1053 248.951 75.8722 246.493 77.1233C244.056 78.3744 240.863 79 236.912 79H235.661C235.2 79 234.86 78.6598 234.64 77.9794C234.399 77.2989 234.278 75.949 234.278 73.9297C234.278 71.9103 234.399 70.5605 234.64 69.88C234.86 69.1996 235.2 68.8594 235.661 68.8594H236.912C239.26 68.8594 240.962 68.3545 242.015 67.3449C243.091 66.3132 243.628 64.7109 243.628 62.5379C243.628 61.2649 243.464 59.7723 243.134 58.0603C242.827 56.3263 242.421 54.3728 241.916 52.1998L251.464 49.5988ZM239.085 90.2271L245.34 83.9715L251.563 90.2271L245.34 96.4498L239.085 90.2271ZM227.561 90.2271L233.817 83.9715L240.04 90.2271L233.817 96.4498L227.561 90.2271ZM275.071 78.8025C274.325 78.8903 273.567 78.9561 272.799 79C272.053 79.0658 271.263 79.0988 270.429 79.0988C266.697 79.0988 263.789 78.0562 261.704 75.971C259.618 73.8638 258.576 70.8129 258.576 66.8181C258.576 64.8426 258.828 62.8452 259.333 60.8259C259.86 58.7846 260.661 56.9189 261.737 55.2288C262.812 53.5167 264.173 52.1449 265.819 51.1133C267.465 50.0817 269.419 49.5658 271.68 49.5658C274.511 49.5658 276.838 50.2243 278.66 51.5413C280.503 52.8363 281.941 54.6142 282.973 56.875C284.026 59.1358 284.762 61.7258 285.179 64.6451C285.618 67.5644 285.837 70.6263 285.837 73.8309C285.837 79.8451 283.862 84.8166 279.911 88.7455C275.982 92.6964 270.023 95.9449 262.033 98.4911L257.687 89.3382C262.187 87.9773 265.951 86.4079 268.98 84.63C272.031 82.8521 274.061 80.9096 275.071 78.8025ZM276.388 68.5301C276.256 67.1254 276.07 65.8633 275.828 64.7439C275.587 63.6025 275.268 62.6257 274.873 61.8136C274.478 61.0015 274.006 60.3869 273.458 59.9699C272.909 59.5309 272.25 59.3114 271.482 59.3114C270.56 59.3114 269.803 59.6187 269.21 60.2333C268.618 60.8478 268.168 61.66 267.861 62.6696C267.575 63.6574 267.432 64.7219 267.432 65.8633C267.432 66.9827 267.773 67.7839 268.453 68.2667C269.134 68.7277 270.231 68.9581 271.746 68.9581C272.602 68.9581 273.436 68.9142 274.248 68.8265C275.082 68.7387 275.795 68.6399 276.388 68.5301Z"/>
</mask>
<path d="M4.07254 31.1613V29.1545H2.06574V31.1613H4.07254ZM14.2461 31.1613H16.2529V29.1545H14.2461V31.1613ZM21.3248 68.8594H23.3316V66.8526H21.3248V68.8594ZM21.3248 79V81.0068H23.3316V79H21.3248ZM8.61607 74.9174L7.26883 76.4048L7.27447 76.4099L7.28015 76.4149L8.61607 74.9174ZM4.07254 33.1681H14.2461V29.1545H4.07254V33.1681ZM12.2393 31.1613V62.5379H16.2529V31.1613H12.2393ZM12.2393 62.5379C12.2393 65.0397 12.7399 67.3619 14.2921 68.8789L17.0974 66.0084C16.7181 65.6377 16.2529 64.6895 16.2529 62.5379H12.2393ZM14.2921 68.8789C15.1156 69.6836 16.1951 70.1645 17.3372 70.4517C18.4887 70.7412 19.8317 70.8662 21.3248 70.8662V66.8526C20.0303 66.8526 19.0412 66.7416 18.316 66.5592C17.5814 66.3745 17.2397 66.1475 17.0974 66.0084L14.2921 68.8789ZM19.318 68.8594V79H23.3316V68.8594H19.318ZM21.3248 76.9932C16.2325 76.9932 12.5292 75.719 9.95199 73.4199L7.28015 76.4149C10.8048 79.5593 15.574 81.0068 21.3248 81.0068V76.9932ZM9.96331 73.4301C7.47631 71.1773 6.07935 67.7352 6.07935 62.7355H2.06574C2.06574 68.491 3.69779 73.1701 7.26883 76.4048L9.96331 73.4301ZM6.07935 62.7355V31.1613H2.06574V62.7355H6.07935ZM64.4554 60.8917L62.4654 61.1513L62.4659 61.1551L64.4554 60.8917ZM63.5335 55.0312L63.1247 53.0665L61.2229 53.4622L61.5565 55.3759L63.5335 55.0312ZM73.3449 52.99L75.3322 52.711L75.0343 50.5887L72.9361 51.0252L73.3449 52.99ZM74.135 58.62L72.1477 58.8989L72.1493 58.9102L74.135 58.62ZM78.2835 68.1021L77.429 69.9179L77.4502 69.9279L77.4717 69.9374L78.2835 68.1021ZM83.0246 68.8594H85.0314V66.8526H83.0246V68.8594ZM83.0246 79V81.0068H85.0314V79H83.0246ZM75.3532 77.3867L74.3619 79.1315L74.3736 79.1382L74.3854 79.1447L75.3532 77.3867ZM71.6328 72.7115L73.5694 72.1852L69.6738 72.2762L71.6328 72.7115ZM68.4392 77.3538L69.5422 79.0303L69.5473 79.0269L68.4392 77.3538ZM56.2573 77.4855L55.1874 79.1833L56.2573 77.4855ZM52.8331 73.3041L54.7074 72.5868L52.8013 67.6064L50.951 72.6078L52.8331 73.3041ZM37.3917 77.5184L36.3006 79.2026L36.309 79.2081L36.3174 79.2134L37.3917 77.5184ZM34.0993 73.0737L36.0074 72.4519L34.5327 67.9261L32.3221 72.1417L34.0993 73.0737ZM29.5558 77.3867L28.6359 75.6032L28.6282 75.6072L29.5558 77.3867ZM20.2712 77.7489L18.3305 78.2596L20.2712 77.7489ZM20.2712 70.0117L18.3416 69.4604L20.2712 70.0117ZM27.8767 67.3449L26.5613 65.8293L26.5541 65.8355L26.547 65.8418L27.8767 67.3449ZM29.9509 62.2087L31.9495 62.3904L31.9503 62.3806L29.9509 62.2087ZM30.5765 54.9325L30.7259 52.9312L28.747 52.7835L28.577 54.7606L30.5765 54.9325ZM40.7171 55.6897L42.7162 55.8647L42.8934 53.8399L40.8665 53.6885L40.7171 55.6897ZM40.0257 63.5915L42.024 63.7756L42.0248 63.7664L40.0257 63.5915ZM40.7171 67.4436L39.0599 68.5754L39.0664 68.585L39.073 68.5945L40.7171 67.4436ZM43.7132 68.8594L43.8134 66.8551L43.8086 66.8548L43.7132 68.8594ZM46.7422 67.8058L45.2629 66.4498L45.2611 66.4517L46.7422 67.8058ZM48.0592 64.1183L50.0575 64.3024L50.0586 64.2904L50.0596 64.2783L48.0592 64.1183ZM48.6518 56.7104L48.7937 54.7086L46.81 54.568L46.6514 56.5503L48.6518 56.7104ZM57.4754 57.3359L59.4775 57.474L59.6153 55.4758L57.6174 55.3342L57.4754 57.3359ZM57.0145 64.0195L59.0151 64.1775L59.0159 64.1675L59.0166 64.1576L57.0145 64.0195ZM57.8047 67.707L56.263 68.9918L56.2824 69.015L56.3024 69.0376L57.8047 67.707ZM60.8996 70.8662C62.5769 70.8662 64.2272 70.4063 65.36 69.0712L62.2996 66.4745C62.2032 66.5881 61.9 66.8526 60.8996 66.8526V70.8662ZM65.36 69.0712C66.4226 67.8188 66.7585 66.1189 66.7585 64.3817H62.7449C62.7449 65.7174 62.4661 66.2783 62.2996 66.4745L65.36 69.0712ZM66.7585 64.3817C66.7585 63.4161 66.6463 62.1508 66.4448 60.6284L62.4659 61.1551C62.6595 62.6178 62.7449 63.6791 62.7449 64.3817H66.7585ZM66.4453 60.6322C66.2426 59.0777 65.9299 57.093 65.5105 54.6866L61.5565 55.3759C61.9711 57.7544 62.2731 59.6767 62.4654 61.1513L66.4453 60.6322ZM63.9423 56.996L73.7536 54.9547L72.9361 51.0252L63.1247 53.0665L63.9423 56.996ZM71.3575 53.2689L72.1477 58.8989L76.1224 58.3411L75.3322 52.711L71.3575 53.2689ZM72.1493 58.9102C72.5745 61.819 73.1192 64.177 73.8309 65.8798L77.5341 64.3322C77.0166 63.0938 76.5297 61.1278 76.1208 58.3298L72.1493 58.9102ZM73.8309 65.8798C74.5803 67.6731 75.7418 69.1239 77.429 69.9179L79.138 66.2863C78.5864 66.0267 78.0138 65.4802 77.5341 64.3322L73.8309 65.8798ZM77.4717 69.9374C78.9766 70.603 80.8633 70.8662 82.9916 70.8662V66.8526C81.1252 66.8526 79.8731 66.6109 79.0952 66.2668L77.4717 69.9374ZM82.9916 70.8662H83.0246V66.8526H82.9916V70.8662ZM81.0178 68.8594V79H85.0314V68.8594H81.0178ZM83.0246 76.9932H82.9916V81.0068H83.0246V76.9932ZM82.9916 76.9932C80.061 76.9932 77.8818 76.488 76.3211 75.6287L74.3854 79.1447C76.7317 80.4365 79.6447 81.0068 82.9916 81.0068V76.9932ZM76.3446 75.6419C74.846 74.7904 73.9686 73.6544 73.5694 72.1852L69.6962 73.2377C70.3945 75.8072 71.9973 77.7881 74.3619 79.1315L76.3446 75.6419ZM69.6738 72.2762C69.3477 73.7434 68.5888 74.8476 67.331 75.6807L69.5473 79.0269C71.6697 77.6211 73.0399 75.6304 73.5918 73.1468L69.6738 72.2762ZM67.3362 75.6773C66.0614 76.516 64.4137 76.9932 62.2824 76.9932V81.0068C65.0238 81.0068 67.4807 80.3866 69.5421 79.0303L67.3362 75.6773ZM62.2824 76.9932C60.1436 76.9932 58.5319 76.5468 57.3271 75.7877L55.1874 79.1833C57.1872 80.4435 59.5923 81.0068 62.2824 81.0068V76.9932ZM57.3271 75.7877C56.0939 75.0106 55.2336 73.9618 54.7074 72.5868L50.9589 74.0214C51.7936 76.2023 53.216 77.9411 55.1874 79.1833L57.3271 75.7877ZM50.951 72.6078C50.388 74.1296 49.5274 75.1716 48.3924 75.8605C47.2289 76.5668 45.6244 76.9932 43.4498 76.9932V81.0068C46.126 81.0068 48.5108 80.4839 50.4751 79.2915C52.4679 78.0819 53.8735 76.2759 54.7153 74.0004L50.951 72.6078ZM43.4498 76.9932C41.2226 76.9932 39.6103 76.5486 38.4661 75.8234L36.3174 79.2134C38.29 80.4637 40.7164 81.0068 43.4498 81.0068V76.9932ZM38.4829 75.8342C37.3521 75.1015 36.5176 74.0177 36.0074 72.4519L32.1913 73.6954C32.9542 76.0367 34.3146 77.9159 36.3006 79.2026L38.4829 75.8342ZM32.3221 72.1417C31.5982 73.5221 30.413 74.6865 28.6359 75.6032L30.4757 79.1702C32.8689 77.9359 34.7128 76.2249 35.8766 74.0056L32.3221 72.1417ZM28.6282 75.6072C26.8825 76.5171 24.88 76.9932 22.5759 76.9932V81.0068C25.4518 81.0068 28.1026 80.4073 30.4834 79.1663L28.6282 75.6072ZM22.5759 76.9932H21.3248V81.0068H22.5759V76.9932ZM21.3248 76.9932C21.5041 76.9932 21.7003 77.0346 21.8848 77.1269C22.0629 77.2159 22.1754 77.3247 22.2342 77.3946C22.2897 77.4604 22.3008 77.4951 22.2863 77.4634C22.2726 77.4332 22.2447 77.3627 22.2119 77.2382L18.3305 78.2596C18.4766 78.8147 18.7177 79.4497 19.1642 79.9799C19.6659 80.5756 20.4107 81.0068 21.3248 81.0068V76.9932ZM22.2119 77.2382C22.0621 76.6686 21.9488 75.5698 21.9488 73.798H17.9352C17.9352 75.6258 18.0414 77.161 18.3305 78.2596L22.2119 77.2382ZM21.9488 73.798C21.9488 72.0605 22.0641 71.0413 22.2008 70.563L18.3416 69.4604C18.0393 70.5186 17.9352 72.0236 17.9352 73.798H21.9488ZM22.2008 70.563C22.2666 70.3326 22.2967 70.3743 22.1803 70.5016C22.1116 70.5767 21.9958 70.6763 21.8267 70.7542C21.6542 70.8337 21.4785 70.8662 21.3248 70.8662V66.8526C20.4726 66.8526 19.7408 67.2217 19.2181 67.7933C18.7506 68.3047 18.4953 68.9226 18.3416 69.4604L22.2008 70.563ZM21.3248 70.8662H22.5759V66.8526H21.3248V70.8662ZM22.5759 70.8662C25.1921 70.8662 27.5385 70.3233 29.2063 68.848L26.547 65.8418C25.9321 66.3857 24.7446 66.8526 22.5759 66.8526V70.8662ZM29.1921 68.8604C30.9199 67.3608 31.709 65.0357 31.9495 62.3904L27.9523 62.027C27.7538 64.2106 27.1601 65.3095 26.5613 65.8293L29.1921 68.8604ZM31.9503 62.3806L32.5759 55.1044L28.577 54.7606L27.9515 62.0368L31.9503 62.3806ZM30.427 56.9337L40.5676 57.691L40.8665 53.6885L30.7259 52.9312L30.427 56.9337ZM38.7179 55.5148L38.0265 63.4166L42.0248 63.7664L42.7162 55.8647L38.7179 55.5148ZM38.0273 63.4075C37.8528 65.3026 38.073 67.1303 39.0599 68.5754L42.3743 66.3119C42.132 65.9571 41.8913 65.2168 42.024 63.7756L38.0273 63.4075ZM39.073 68.5945C40.1437 70.1239 41.8119 70.7779 43.6177 70.8639L43.8086 66.8548C42.8489 66.8091 42.5196 66.5193 42.3611 66.2928L39.073 68.5945ZM43.613 70.8637C45.3546 70.9508 47.0132 70.4835 48.2233 69.1599L45.2611 66.4517C45.0664 66.6646 44.7057 66.8997 43.8134 66.8551L43.613 70.8637ZM48.2215 69.1618C49.3677 67.9115 49.8848 66.1771 50.0575 64.3024L46.0608 63.9342C45.9262 65.3958 45.5653 66.1198 45.2629 66.4498L48.2215 69.1618ZM50.0596 64.2783L50.6522 56.8704L46.6514 56.5503L46.0587 63.9583L50.0596 64.2783ZM48.5099 58.7122L57.3335 59.3377L57.6174 55.3342L48.7937 54.7086L48.5099 58.7122ZM55.4734 57.1979L55.0125 63.8815L59.0166 64.1576L59.4775 57.474L55.4734 57.1979ZM55.0139 63.8616C54.8656 65.7403 55.1115 67.6099 56.263 68.9918L59.3464 66.4223C59.1809 66.2238 58.9 65.635 59.0151 64.1775L55.0139 63.8616ZM56.3024 69.0376C57.4835 70.3711 59.1518 70.8662 60.8996 70.8662V66.8526C59.8817 66.8526 59.4867 66.5794 59.307 66.3764L56.3024 69.0376ZM111.734 68.8594H113.741V66.8526H111.734V68.8594ZM111.734 79V81.0068H113.741V79H111.734ZM82.0039 77.9794L83.9138 77.3633L83.9049 77.3356L83.8952 77.3083L82.0039 77.9794ZM82.0039 69.88L83.8952 70.5511L83.9049 70.5238L83.9138 70.4961L82.0039 69.88ZM83.0246 70.8662H111.734V66.8526H83.0246V70.8662ZM109.728 68.8594V79H113.741V68.8594H109.728ZM111.734 76.9932H83.0246V81.0068H111.734V76.9932ZM83.0246 76.9932C83.1627 76.9932 83.3235 77.0201 83.4859 77.0891C83.6466 77.1573 83.7649 77.248 83.8427 77.3258C83.9803 77.4634 83.9696 77.5361 83.9138 77.3633L80.094 78.5954C80.2577 79.103 80.5269 79.6861 81.0047 80.1639C81.5327 80.6919 82.2364 81.0068 83.0246 81.0068V76.9932ZM83.8952 77.3083C83.8603 77.2101 83.7871 76.9042 83.7311 76.2779C83.6779 75.6835 83.6485 74.9055 83.6485 73.9297H79.6349C79.6349 74.9732 79.6659 75.8799 79.7335 76.6354C79.7982 77.3589 79.906 78.0682 80.1126 78.6504L83.8952 77.3083ZM83.6485 73.9297C83.6485 72.9539 83.6779 72.1759 83.7311 71.5815C83.7871 70.9552 83.8603 70.6493 83.8952 70.5511L80.1126 69.2089C79.906 69.7912 79.7982 70.5004 79.7335 71.224C79.6659 71.9795 79.6349 72.8862 79.6349 73.9297H83.6485ZM83.9138 70.4961C83.9696 70.3232 83.9803 70.396 83.8427 70.5336C83.7649 70.6114 83.6466 70.7021 83.4859 70.7703C83.3235 70.8393 83.1627 70.8662 83.0246 70.8662V66.8526C82.2364 66.8526 81.5327 67.1674 81.0047 67.6955C80.5269 68.1733 80.2577 68.7564 80.094 69.2639L83.9138 70.4961ZM140.444 68.8594H142.451V66.8526H140.444V68.8594ZM140.444 79V81.0068H142.451V79H140.444ZM110.714 77.9794L112.624 77.3633L112.615 77.3356L112.605 77.3083L110.714 77.9794ZM110.714 69.88L112.605 70.5511L112.615 70.5238L112.624 70.4961L110.714 69.88ZM111.734 70.8662H140.444V66.8526H111.734V70.8662ZM138.437 68.8594V79H142.451V68.8594H138.437ZM140.444 76.9932H111.734V81.0068H140.444V76.9932ZM111.734 76.9932C111.872 76.9932 112.033 77.0201 112.196 77.0891C112.356 77.1573 112.475 77.248 112.553 77.3258C112.69 77.4634 112.679 77.5361 112.624 77.3633L108.804 78.5954C108.968 79.103 109.237 79.6861 109.714 80.1639C110.243 80.6919 110.946 81.0068 111.734 81.0068V76.9932ZM112.605 77.3083C112.57 77.2101 112.497 76.9042 112.441 76.2779C112.388 75.6835 112.358 74.9055 112.358 73.9297H108.345C108.345 74.9732 108.376 75.8799 108.443 76.6354C108.508 77.3589 108.616 78.0682 108.822 78.6504L112.605 77.3083ZM112.358 73.9297C112.358 72.9539 112.388 72.1759 112.441 71.5815C112.497 70.9552 112.57 70.6493 112.605 70.5511L108.822 69.2089C108.616 69.7912 108.508 70.5004 108.443 71.224C108.376 71.9795 108.345 72.8862 108.345 73.9297H112.358ZM112.624 70.4961C112.679 70.3232 112.69 70.396 112.553 70.5336C112.475 70.6114 112.356 70.7021 112.196 70.7703C112.033 70.8393 111.872 70.8662 111.734 70.8662V66.8526C110.946 66.8526 110.243 67.1674 109.714 67.6955C109.237 68.1733 108.968 68.7564 108.804 69.2639L112.624 70.4961ZM169.154 68.8594H171.161V66.8526H169.154V68.8594ZM169.154 79V81.0068H171.161V79H169.154ZM139.424 77.9794L141.333 77.3633L141.325 77.3356L141.315 77.3083L139.424 77.9794ZM139.424 69.88L141.315 70.5511L141.325 70.5238L141.333 70.4961L139.424 69.88ZM140.444 70.8662H169.154V66.8526H140.444V70.8662ZM167.147 68.8594V79H171.161V68.8594H167.147ZM169.154 76.9932H140.444V81.0068H169.154V76.9932ZM140.444 76.9932C140.582 76.9932 140.743 77.0201 140.906 77.0891C141.066 77.1573 141.185 77.248 141.262 77.3258C141.4 77.4634 141.389 77.5361 141.333 77.3633L137.514 78.5954C137.677 79.103 137.947 79.6861 138.424 80.1639C138.952 80.6919 139.656 81.0068 140.444 81.0068V76.9932ZM141.315 77.3083C141.28 77.2101 141.207 76.9042 141.151 76.2779C141.098 75.6835 141.068 74.9055 141.068 73.9297H137.055C137.055 74.9732 137.086 75.8799 137.153 76.6354C137.218 77.3589 137.326 78.0682 137.532 78.6504L141.315 77.3083ZM141.068 73.9297C141.068 72.9539 141.098 72.1759 141.151 71.5815C141.207 70.9552 141.28 70.6493 141.315 70.5511L137.532 69.2089C137.326 69.7912 137.218 70.5004 137.153 71.224C137.086 71.9795 137.055 72.8862 137.055 73.9297H141.068ZM141.333 70.4961C141.389 70.3232 141.4 70.396 141.262 70.5336C141.185 70.6114 141.066 70.7021 140.906 70.7703C140.743 70.8393 140.582 70.8662 140.444 70.8662V66.8526C139.656 66.8526 138.952 67.1674 138.424 67.6955C137.947 68.1733 137.677 68.7564 137.514 69.2639L141.333 70.4961ZM197.864 68.8594H199.871V66.8526H197.864V68.8594ZM197.864 79V81.0068H199.871V79H197.864ZM168.133 77.9794L170.043 77.3633L170.034 77.3356L170.025 77.3083L168.133 77.9794ZM168.133 69.88L170.025 70.5511L170.034 70.5238L170.043 70.4961L168.133 69.88ZM169.154 70.8662H197.864V66.8526H169.154V70.8662ZM195.857 68.8594V79H199.871V68.8594H195.857ZM197.864 76.9932H169.154V81.0068H197.864V76.9932ZM169.154 76.9932C169.292 76.9932 169.453 77.0201 169.615 77.0891C169.776 77.1573 169.894 77.248 169.972 77.3258C170.11 77.4634 170.099 77.5361 170.043 77.3633L166.223 78.5954C166.387 79.103 166.656 79.6861 167.134 80.1639C167.662 80.6919 168.366 81.0068 169.154 81.0068V76.9932ZM170.025 77.3083C169.99 77.2101 169.917 76.9042 169.861 76.2779C169.807 75.6835 169.778 74.9055 169.778 73.9297H165.764C165.764 74.9732 165.795 75.8799 165.863 76.6354C165.928 77.3589 166.036 78.0682 166.242 78.6504L170.025 77.3083ZM169.778 73.9297C169.778 72.9539 169.807 72.1759 169.861 71.5815C169.917 70.9552 169.99 70.6493 170.025 70.5511L166.242 69.2089C166.036 69.7912 165.928 70.5004 165.863 71.224C165.795 71.9795 165.764 72.8862 165.764 73.9297H169.778ZM170.043 70.4961C170.099 70.3232 170.11 70.396 169.972 70.5336C169.894 70.6114 169.776 70.7021 169.615 70.7703C169.453 70.8393 169.292 70.8662 169.154 70.8662V66.8526C168.366 66.8526 167.662 67.1674 167.134 67.6955C166.656 68.1733 166.387 68.7564 166.223 69.2639L170.043 70.4961ZM228.549 26.3544L230.513 25.9432L230.095 23.9441L228.103 24.3977L228.549 26.3544ZM230.623 36.2645L231.116 38.21L232.982 37.7378L232.588 35.8534L230.623 36.2645ZM220.252 39.4581L219.557 37.5755L219.553 37.577L220.252 39.4581ZM210.375 43.8041L209.468 42.0139L208.368 42.5711V43.8041H210.375ZM210.375 44.1334H208.368V45.0685L209.084 45.67L210.375 44.1334ZM216.137 49.5L214.681 50.8817L214.69 50.8909L216.137 49.5ZM220.45 54.6691L218.813 55.8296L218.817 55.8365L218.822 55.8433L220.45 54.6691ZM223.775 60.1674L225.57 59.2699L223.775 60.1674ZM235.661 68.8594H237.668V66.8526H235.661V68.8594ZM235.661 79V81.0068H237.668V79H235.661ZM229.669 78.111L229.067 80.0257L229.074 80.0277L229.669 78.111ZM224.467 75.4771L223.266 77.0853L223.277 77.0933L224.467 75.4771ZM220.45 71.2299L222.116 70.1117L220.173 67.2154L218.646 70.3513L220.45 71.2299ZM214.062 77.0246L214.868 78.8628L214.874 78.86L214.062 77.0246ZM196.81 77.8147L194.873 78.3383L194.877 78.3518L196.81 77.8147ZM196.81 70.0117L194.881 69.4604L196.81 70.0117ZM210.21 57.2701L208.755 58.6523L208.761 58.6583L210.21 57.2701ZM198.456 47.4587H196.45V48.4763L197.271 49.0776L198.456 47.4587ZM198.456 39.2277L197.385 37.5308L196.45 38.1214V39.2277H198.456ZM226.585 26.7655L228.659 36.6756L232.588 35.8534L230.513 25.9432L226.585 26.7655ZM230.131 34.319C226.424 35.2569 222.899 36.342 219.557 37.5755L220.947 41.3408C224.146 40.1599 227.535 39.1158 231.116 38.21L230.131 34.319ZM219.553 37.577C216.228 38.8126 212.867 40.2923 209.468 42.0139L211.282 45.5943C214.556 43.9358 217.779 42.5181 220.951 41.3393L219.553 37.577ZM208.368 43.8041V44.1334H212.382V43.8041H208.368ZM209.084 45.67C211.232 47.4744 213.096 49.2119 214.681 50.8817L217.592 48.1183C215.885 46.3201 213.908 44.4798 211.666 42.5968L209.084 45.67ZM214.69 50.8909C216.275 52.5393 217.647 54.1859 218.813 55.8296L222.087 53.5085C220.794 51.6843 219.291 49.8848 217.583 48.1091L214.69 50.8909ZM218.822 55.8433C220.01 57.4888 221.062 59.229 221.98 61.0649L225.57 59.2699C224.556 57.2428 223.392 55.3173 222.077 53.4949L218.822 55.8433ZM221.98 61.0649C223.103 63.3115 224.291 65.1846 225.56 66.6287L228.575 63.9784C227.606 62.8764 226.598 61.3254 225.57 59.2699L221.98 61.0649ZM225.56 66.6287C226.86 68.1065 228.364 69.2205 230.081 69.9016L231.561 66.171C230.512 65.7546 229.514 65.0468 228.575 63.9784L225.56 66.6287ZM230.081 69.9016C231.748 70.5632 233.622 70.8662 235.661 70.8662V66.8526C234.012 66.8526 232.659 66.6068 231.561 66.171L230.081 69.9016ZM233.654 68.8594V79H237.668V68.8594H233.654ZM235.661 76.9932C233.769 76.9932 231.972 76.7248 230.263 76.1944L229.074 80.0277C231.184 80.6826 233.383 81.0068 235.661 81.0068V76.9932ZM230.27 76.1964C228.592 75.6695 227.057 74.8919 225.656 73.861L223.277 77.0933C225.037 78.389 226.97 79.3673 229.067 80.0257L230.27 76.1964ZM225.667 73.869C224.296 72.8459 223.113 71.5977 222.116 70.1117L218.783 72.3481C220.025 74.1985 221.52 75.7817 223.266 77.0853L225.667 73.869ZM218.646 70.3513C217.66 72.3753 215.928 74.0057 213.251 75.1891L214.874 78.86C218.255 77.3656 220.781 75.1329 222.254 72.1085L218.646 70.3513ZM213.257 75.1863C210.569 76.3638 207.215 76.9932 203.132 76.9932V81.0068C207.609 81.0068 211.542 80.3192 214.868 78.8628L213.257 75.1863ZM203.132 76.9932H197.864V81.0068H203.132V76.9932ZM197.864 76.9932C198.026 76.9932 198.209 77.0286 198.385 77.1123C198.558 77.1939 198.673 77.2968 198.738 77.3704C198.847 77.4934 198.812 77.5245 198.744 77.2776L194.877 78.3518C195.028 78.8951 195.278 79.5189 195.738 80.0369C196.254 80.6174 196.991 81.0068 197.864 81.0068V76.9932ZM198.748 77.2911C198.602 76.7524 198.488 75.6732 198.488 73.8968H194.474C194.474 75.72 194.58 77.2528 194.873 78.3383L198.748 77.2911ZM198.488 73.8968C198.488 72.0852 198.604 71.0378 198.74 70.563L194.881 69.4604C194.577 70.5221 194.474 72.0647 194.474 73.8968H198.488ZM198.74 70.563C198.806 70.3326 198.836 70.3743 198.719 70.5016C198.651 70.5767 198.535 70.6763 198.366 70.7542C198.193 70.8337 198.018 70.8662 197.864 70.8662V66.8526C197.012 66.8526 196.28 67.2217 195.757 67.7933C195.29 68.3047 195.034 68.9226 194.881 69.4604L198.74 70.563ZM197.864 70.8662H202.934V66.8526H197.864V70.8662ZM202.934 70.8662C206.549 70.8662 209.589 70.4183 211.897 69.3693L210.236 65.7155C208.681 66.4224 206.3 66.8526 202.934 66.8526V70.8662ZM211.897 69.3693C214.268 68.2917 215.971 66.4761 215.971 63.822H211.957C211.957 64.3725 211.728 65.0372 210.236 65.7155L211.897 69.3693ZM215.971 63.822C215.971 61.2198 214.197 58.531 211.66 55.8818L208.761 58.6583C211.228 61.2332 211.957 62.9123 211.957 63.822H215.971ZM211.665 55.8879C209.039 53.1238 205.008 49.7701 199.642 45.8398L197.271 49.0776C202.572 52.9613 206.377 56.1485 208.755 58.6523L211.665 55.8879ZM200.463 47.4587V39.2277H196.45V47.4587H200.463ZM199.528 40.9246C209.304 34.7525 219.125 30.559 228.995 28.311L228.103 24.3977C217.736 26.7591 207.495 31.1478 197.385 37.5308L199.528 40.9246ZM251.464 49.5988L253.416 49.131L252.934 47.1186L250.937 47.6625L251.464 49.5988ZM252.979 57.1384L250.996 57.4504L250.998 57.4594L250.999 57.4683L252.979 57.1384ZM251.859 71.8225L250.061 70.9319L250.058 70.939L251.859 71.8225ZM246.493 77.1233L245.583 75.3348L245.576 75.3381L246.493 77.1233ZM234.64 77.9794L236.55 77.3633L236.541 77.3356L236.531 77.3083L234.64 77.9794ZM234.64 69.88L236.531 70.5511L236.541 70.5238L236.55 70.4961L234.64 69.88ZM242.015 67.3449L243.404 68.7938L243.404 68.7931L242.015 67.3449ZM243.134 58.0603L241.158 58.4104L241.161 58.4249L241.164 58.4392L243.134 58.0603ZM241.916 52.1998L241.389 50.2635L239.524 50.7715L239.962 52.6539L241.916 52.1998ZM239.085 90.2271L237.666 88.8081L236.243 90.2309L237.67 91.6499L239.085 90.2271ZM245.34 83.9715L246.763 82.5563L245.344 81.1297L243.921 82.5525L245.34 83.9715ZM251.563 90.2271L252.982 91.6461L254.397 90.2309L252.986 88.8118L251.563 90.2271ZM245.34 96.4498L243.925 97.8725L245.344 99.2841L246.759 97.8688L245.34 96.4498ZM227.561 90.2271L226.142 88.8081L224.72 90.2309L226.146 91.6499L227.561 90.2271ZM233.817 83.9715L235.24 82.5563L233.821 81.1297L232.398 82.5525L233.817 83.9715ZM240.04 90.2271L241.459 91.6461L242.874 90.2309L241.462 88.8118L240.04 90.2271ZM233.817 96.4498L232.402 97.8725L233.821 99.2841L235.236 97.8688L233.817 96.4498ZM249.513 50.0665C250.139 52.6778 250.633 55.1387 250.996 57.4504L254.961 56.8263C254.579 54.397 254.063 51.8315 253.416 49.131L249.513 50.0665ZM250.999 57.4683C251.379 59.7484 251.565 61.8427 251.565 63.7561H255.578C255.578 61.5869 255.368 59.2695 254.958 56.8085L250.999 57.4683ZM251.565 63.7561C251.565 66.5797 251.041 68.953 250.061 70.9319L253.658 72.7132C254.96 70.0827 255.578 67.0784 255.578 63.7561H251.565ZM250.058 70.939C249.146 72.7977 247.688 74.2631 245.583 75.3348L247.403 78.9118C250.214 77.4813 252.334 75.4128 253.661 72.7061L250.058 70.939ZM245.576 75.3381C243.521 76.3936 240.675 76.9932 236.912 76.9932V81.0068C241.05 81.0068 244.592 80.3553 247.409 78.9085L245.576 75.3381ZM236.912 76.9932H235.661V81.0068H236.912V76.9932ZM235.661 76.9932C235.799 76.9932 235.96 77.0201 236.122 77.0891C236.283 77.1573 236.401 77.248 236.479 77.3258C236.616 77.4634 236.606 77.5361 236.55 77.3633L232.73 78.5954C232.894 79.103 233.163 79.6861 233.641 80.1639C234.169 80.6919 234.873 81.0068 235.661 81.0068V76.9932ZM236.531 77.3083C236.496 77.2101 236.423 76.9042 236.367 76.2779C236.314 75.6835 236.285 74.9055 236.285 73.9297H232.271C232.271 74.9732 232.302 75.8799 232.37 76.6354C232.434 77.3589 232.542 78.0682 232.749 78.6504L236.531 77.3083ZM236.285 73.9297C236.285 72.9539 236.314 72.1759 236.367 71.5815C236.423 70.9552 236.496 70.6493 236.531 70.5511L232.749 69.2089C232.542 69.7912 232.434 70.5004 232.37 71.224C232.302 71.9795 232.271 72.8862 232.271 73.9297H236.285ZM236.55 70.4961C236.606 70.3232 236.616 70.396 236.479 70.5336C236.401 70.6114 236.283 70.7021 236.122 70.7703C235.96 70.8393 235.799 70.8662 235.661 70.8662V66.8526C234.873 66.8526 234.169 67.1674 233.641 67.6955C233.163 68.1733 232.894 68.7564 232.73 69.2639L236.55 70.4961ZM235.661 70.8662H236.912V66.8526H235.661V70.8662ZM236.912 70.8662C239.477 70.8662 241.805 70.3262 243.404 68.7938L240.627 65.896C240.118 66.3829 239.044 66.8526 236.912 66.8526V70.8662ZM243.404 68.7931C245.025 67.2384 245.635 65.0058 245.635 62.5379H241.622C241.622 64.4161 241.156 65.3881 240.626 65.8966L243.404 68.7931ZM245.635 62.5379C245.635 61.1009 245.45 59.476 245.105 57.6813L241.164 58.4392C241.477 60.0687 241.622 61.4289 241.622 62.5379H245.635ZM245.111 57.7101C244.796 55.9335 244.382 53.9445 243.871 51.7456L239.962 52.6539C240.46 54.801 240.859 56.719 241.158 58.4104L245.111 57.7101ZM242.444 54.136L251.992 51.535L250.937 47.6625L241.389 50.2635L242.444 54.136ZM240.504 91.6461L246.759 85.3906L243.921 82.5525L237.666 88.8081L240.504 91.6461ZM243.918 85.3868L250.14 91.6424L252.986 88.8118L246.763 82.5563L243.918 85.3868ZM250.144 88.8081L243.921 95.0308L246.759 97.8688L252.982 91.6461L250.144 88.8081ZM246.756 95.027L240.5 88.8044L237.67 91.6499L243.925 97.8725L246.756 95.027ZM228.98 91.6461L235.236 85.3906L232.398 82.5525L226.142 88.8081L228.98 91.6461ZM232.394 85.3868L238.617 91.6424L241.462 88.8118L235.24 82.5563L232.394 85.3868ZM238.621 88.8081L232.398 95.0308L235.236 97.8688L241.459 91.6461L238.621 88.8081ZM235.232 95.027L228.977 88.8044L226.146 91.6499L232.402 97.8725L235.232 95.027ZM275.071 78.8025L276.881 79.6696L278.455 76.3837L274.836 76.8094L275.071 78.8025ZM272.799 79L272.685 76.9965L272.654 76.9982L272.623 77.001L272.799 79ZM261.704 75.971L260.277 77.3826L260.285 77.39L261.704 75.971ZM259.333 60.8259L257.39 60.3244L257.388 60.3318L257.386 60.3392L259.333 60.8259ZM261.737 55.2288L263.43 56.3062L263.436 56.2963L261.737 55.2288ZM278.66 51.5413L277.484 53.1677L277.495 53.1756L277.506 53.1835L278.66 51.5413ZM282.973 56.875L281.147 57.7081L281.15 57.7154L281.154 57.7227L282.973 56.875ZM285.179 64.6451L283.192 64.9289L283.193 64.9362L283.194 64.9435L285.179 64.6451ZM279.911 88.7455L278.496 87.3225L278.488 87.3305L279.911 88.7455ZM262.033 98.4911L260.22 99.3518L260.972 100.935L262.642 100.403L262.033 98.4911ZM257.687 89.3382L257.106 87.4173L254.874 88.0924L255.874 90.1989L257.687 89.3382ZM268.98 84.63L267.97 82.8961L267.964 82.8993L268.98 84.63ZM276.388 68.5301L276.753 70.5034L278.557 70.1693L278.386 68.3428L276.388 68.5301ZM275.828 64.7439L273.865 65.1592L273.866 65.167L275.828 64.7439ZM274.873 61.8136L276.678 60.9357L274.873 61.8136ZM273.458 59.9699L272.204 61.5369L272.223 61.5525L272.243 61.5676L273.458 59.9699ZM267.861 62.6696L265.941 62.0853L265.936 62.099L265.933 62.1127L267.861 62.6696ZM268.453 68.2667L267.292 69.9033L267.31 69.916L267.328 69.9282L268.453 68.2667ZM274.248 68.8265L274.038 66.8307L274.032 66.8313L274.248 68.8265ZM274.836 76.8094C274.131 76.8924 273.414 76.9548 272.685 76.9965L272.914 81.0035C273.721 80.9574 274.518 80.8881 275.305 80.7955L274.836 76.8094ZM272.623 77.001C271.941 77.0611 271.21 77.092 270.429 77.092V81.1056C271.315 81.1056 272.164 81.0706 272.975 80.999L272.623 77.001ZM270.429 77.092C267.081 77.092 264.738 76.1674 263.123 74.552L260.285 77.39C262.84 79.945 266.314 81.1056 270.429 81.1056V77.092ZM263.13 74.5594C261.531 72.9437 260.583 70.4731 260.583 66.8181H256.569C256.569 71.1527 257.706 74.784 260.277 77.3826L263.13 74.5594ZM260.583 66.8181C260.583 65.0153 260.813 63.1813 261.28 61.3126L257.386 60.3392C256.844 62.5092 256.569 64.67 256.569 66.8181H260.583ZM261.276 61.3273C261.753 59.4792 262.473 57.8095 263.43 56.3062L260.044 54.1514C258.849 56.0283 257.967 58.09 257.39 60.3244L261.276 61.3273ZM263.436 56.2963C264.357 54.8296 265.505 53.6782 266.885 52.8138L264.754 49.4128C262.841 50.6116 261.267 52.2039 260.037 54.1613L263.436 56.2963ZM266.885 52.8138C268.162 52.0132 269.733 51.5727 271.68 51.5727V47.559C269.105 47.559 266.769 48.1501 264.754 49.4128L266.885 52.8138ZM271.68 51.5727C274.199 51.5727 276.084 52.1557 277.484 53.1677L279.835 49.9149C277.592 48.293 274.823 47.559 271.68 47.559V51.5727ZM277.506 53.1835C279.028 54.2527 280.248 55.7376 281.147 57.7081L284.798 56.0419C283.634 53.4908 281.978 51.4199 279.813 49.8991L277.506 53.1835ZM281.154 57.7227C282.11 59.7757 282.798 62.1703 283.192 64.9289L287.165 64.3613C286.725 61.2814 285.942 58.4959 284.792 56.0273L281.154 57.7227ZM283.194 64.9435C283.617 67.756 283.83 70.7178 283.83 73.8309H287.844C287.844 70.5348 287.618 67.3727 287.163 64.3467L283.194 64.9435ZM283.83 73.8309C283.83 79.3577 282.036 83.8021 278.496 87.3226L281.326 90.1685C285.687 85.8311 287.844 80.3324 287.844 73.8309H283.83ZM278.488 87.3305C274.872 90.9663 269.248 94.0854 261.424 96.579L262.642 100.403C270.797 97.8044 277.091 94.4266 281.334 90.1606L278.488 87.3305ZM263.846 97.6303L259.5 88.4774L255.874 90.1989L260.22 99.3518L263.846 97.6303ZM258.268 91.259C262.872 89.8666 266.793 88.2408 269.996 86.3607L267.964 82.8993C265.109 84.575 261.501 86.088 257.106 87.4173L258.268 91.259ZM269.99 86.3639C273.222 84.4806 275.629 82.2808 276.881 79.6696L273.261 77.9353C272.493 79.5384 270.84 81.2236 267.97 82.8961L269.99 86.3639ZM278.386 68.3428C278.248 66.8762 278.051 65.5334 277.79 64.3207L273.866 65.167C274.088 66.1932 274.264 67.3746 274.39 68.7175L278.386 68.3428ZM277.792 64.3285C277.525 63.0709 277.162 61.9305 276.678 60.9357L273.069 62.6915C273.375 63.321 273.648 64.1341 273.865 65.1592L277.792 64.3285ZM276.678 60.9357C276.186 59.9252 275.536 59.0292 274.672 58.3721L272.243 61.5676C272.476 61.7446 272.77 62.0778 273.069 62.6915L276.678 60.9357ZM274.711 58.4028C273.773 57.6521 272.661 57.3046 271.482 57.3046V61.3182C271.84 61.3182 272.045 61.4096 272.204 61.5369L274.711 58.4028ZM271.482 57.3046C270.064 57.3046 268.769 57.8 267.766 58.8403L270.655 61.6263C270.837 61.4374 271.057 61.3182 271.482 61.3182V57.3046ZM267.766 58.8403C266.907 59.7307 266.319 60.8427 265.941 62.0853L269.78 63.2539C270.017 62.4773 270.328 61.965 270.655 61.6263L267.766 58.8403ZM265.933 62.1127C265.59 63.3001 265.426 64.554 265.426 65.8633H269.439C269.439 64.8899 269.561 64.0146 269.788 63.2266L265.933 62.1127ZM265.426 65.8633C265.426 67.3902 265.91 68.9226 267.292 69.9033L269.615 66.6302C269.591 66.6133 269.566 66.5933 269.535 66.5193C269.496 66.4268 269.439 66.2273 269.439 65.8633H265.426ZM267.328 69.9282C268.519 70.7354 270.121 70.965 271.746 70.965V66.9513C270.341 66.9513 269.748 66.72 269.579 66.6053L267.328 69.9282ZM271.746 70.965C272.67 70.965 273.576 70.9175 274.463 70.8216L274.032 66.8313C273.295 66.911 272.533 66.9513 271.746 66.9513V70.965ZM274.458 70.8222C275.326 70.7309 276.094 70.6255 276.753 70.5034L276.022 66.5569C275.497 66.6542 274.838 66.7464 274.038 66.8307L274.458 70.8222Z" fill="#9B9DA4" mask="url(#path-7-outside-3_2265_4338)"/>
</svg>
