<svg width="102" height="94" viewBox="0 0 102 94" fill="none" xmlns="http://www.w3.org/2000/svg">
<g filter="url(#filter0_b_2265_4150)">
<rect x="0.695312" y="1" width="100.011" height="92" rx="20" fill="#0E0E0F" fill-opacity="0.8"/>
<rect x="0.695312" y="1" width="100.011" height="92" rx="20" stroke="white" stroke-opacity="0.12"/>
<path d="M45.7898 26.0368C48.4824 23.3245 52.878 23.3245 55.5937 26.0161L57.2737 27.6932C57.918 28.3374 58.7926 28.7078 59.7131 28.7078H62.0835C65.9038 28.7078 69.0106 31.8112 69.0106 35.6301V38.0019C69.0106 38.9198 69.3788 39.794 70.0232 40.4382L71.6802 42.0946C72.992 43.3828 73.7054 45.1313 73.7054 46.9717C73.7284 48.8121 73.015 50.5628 71.7262 51.8718L70.0232 53.5742C69.3788 54.2184 69.0106 55.0926 69.0106 56.0151V58.3823C69.0106 62.2012 65.9038 65.3092 62.0835 65.3092H59.7131C58.7926 65.3092 57.918 65.675 57.2737 66.3191L55.6167 67.9755C54.2589 69.3351 52.4868 70 50.7148 70C48.9427 70 47.1707 69.3351 45.8129 68.0008L44.1329 66.3191C43.4885 65.675 42.614 65.3092 41.6934 65.3092H39.323C35.5027 65.3092 32.3959 62.2012 32.3959 58.3823V56.0151C32.3959 55.0926 32.0277 54.2184 31.3833 53.5512L29.7263 51.9178C27.0337 49.2285 27.0107 44.8322 29.7033 42.1199L31.3833 40.4382C32.0277 39.794 32.3959 38.9198 32.3959 37.9766V35.6301C32.3959 31.8112 35.5027 28.7078 39.323 28.7078H41.6934C42.614 28.7078 43.4885 28.3374 44.1329 27.6932L45.7898 26.0368ZM56.6293 50.9056C55.5016 50.9056 54.6041 51.8051 54.6041 52.907C54.6041 54.0343 55.5016 54.9315 56.6293 54.9315C57.7339 54.9315 58.6315 54.0343 58.6315 52.907C58.6315 51.8051 57.7339 50.9056 56.6293 50.9056ZM58.0331 39.656C57.2506 38.8761 55.9849 38.8761 55.2024 39.656L43.3734 51.4807C42.5909 52.2629 42.5909 53.5512 43.3734 54.3334C43.7416 54.7245 44.2479 54.9315 44.7772 54.9315C45.3296 54.9315 45.8359 54.7245 46.2041 54.3334L58.0331 42.5109C58.8156 41.7288 58.8156 40.4382 58.0331 39.656ZM44.8003 39.0809C43.6956 39.0809 42.7751 39.9781 42.7751 41.0823C42.7751 42.2119 43.6956 43.1068 44.8003 43.1068C45.9049 43.1068 46.8024 42.2119 46.8024 41.0823C46.8024 39.9781 45.9049 39.0809 44.8003 39.0809Z" fill="url(#paint0_linear_2265_4150)"/>
</g>
<defs>
<filter id="filter0_b_2265_4150" x="-19.8047" y="-19.5" width="141.012" height="133" filterUnits="userSpaceOnUse" color-interpolation-filters="sRGB">
<feFlood flood-opacity="0" result="BackgroundImageFix"/>
<feGaussianBlur in="BackgroundImageFix" stdDeviation="10"/>
<feComposite in2="SourceAlpha" operator="in" result="effect1_backgroundBlur_2265_4150"/>
<feBlend mode="normal" in="SourceGraphic" in2="effect1_backgroundBlur_2265_4150" result="shape"/>
</filter>
<linearGradient id="paint0_linear_2265_4150" x1="33.1083" y1="70" x2="72.928" y2="31.4115" gradientUnits="userSpaceOnUse">
<stop offset="0.315616" stop-color="#386293"/>
<stop offset="1" stop-color="#ADD2FD"/>
</linearGradient>
</defs>
</svg>
