<svg width="70" height="99" viewBox="0 0 70 99" fill="none" xmlns="http://www.w3.org/2000/svg">
<g clip-path="url(#clip0_2265_4302)">
<mask id="mask0_2265_4302" style="mask-type:luminance" maskUnits="userSpaceOnUse" x="0" y="0" width="70" height="99">
<path d="M63 0H7C3.13401 0 0 3.12874 0 6.98824V92.0118C0 95.8713 3.13401 99 7 99H63C66.866 99 70 95.8713 70 92.0118V6.98824C70 3.12874 66.866 0 63 0Z" fill="white"/>
</mask>
<g mask="url(#mask0_2265_4302)">
<path d="M63 0H7C3.13401 0 0 3.12874 0 6.98824V92.0118C0 95.8713 3.13401 99 7 99H63C66.866 99 70 95.8713 70 92.0118V6.98824C70 3.12874 66.866 0 63 0Z" fill="url(#paint0_linear_2265_4302)"/>
<path d="M61.4107 102.493C65.2118 100.637 68.8627 98.4896 72.3307 96.0695V94.6428C68.0428 97.6998 63.4646 100.329 58.6621 102.493H61.4107ZM71.7159 102.493C71.9212 102.365 72.1266 102.234 72.3307 102.103V102.493H71.7159ZM33.9287 102.493C48.2682 101.036 61.4387 95.5408 72.3307 87.1432V85.6641C59.5966 95.7271 43.6074 101.716 26.2474 101.716C16.4329 101.726 6.71517 99.7801 -2.33594 95.9915V97.254C4.34121 99.9995 11.3818 101.764 18.5661 102.493H33.9287Z" fill="#FFCE00"/>
<path d="M-2.33594 89.1042C6.3954 92.9932 16.0682 95.1549 26.2474 95.1549C43.8816 95.1549 59.9967 88.6674 72.3307 77.9522V76.3984C60.1064 87.3374 43.9551 93.9902 26.2474 93.9902C16.0531 93.9902 6.3744 91.7854 -2.33594 87.8265V89.1042Z" fill="#FFCE00"/>
<path d="M-2.33594 82.2684C6.26823 86.5592 15.9749 88.9736 26.2474 88.9736C44.3424 88.9736 60.6839 81.4822 72.3307 69.4368V67.7422C60.8484 80.0857 44.4521 87.8101 26.2474 87.8101C15.9551 87.8101 6.23906 85.3409 -2.33594 80.9628V82.2684Z" fill="#FFCE00"/>
<path d="M-2.33594 73.4778C6.0419 78.4161 15.8139 81.2499 26.2474 81.2499C45.3002 81.2499 62.1434 71.8018 72.3307 57.3431V55.2734C62.4724 70.2201 45.5137 80.0852 26.2474 80.0852C16.1678 80.1013 6.27844 77.3458 -2.33594 72.1209V73.4778Z" fill="#FFCE00"/>
<path d="M-2.33594 64.2443C5.96187 70.2918 15.9737 73.5433 26.2474 73.527C47.6989 73.527 65.9024 59.6425 72.3307 40.3841V36.1562C67.3234 56.9276 48.5902 72.3623 26.2474 72.3623C15.9277 72.3781 5.88731 69.0164 -2.33594 62.7919V64.2431V64.2443Z" fill="#FFCE00"/>
<path d="M-2.33594 56.2717C5.46546 63.4078 15.6664 67.3596 26.2474 67.3446C49.6496 67.3446 68.6207 48.4053 68.6207 25.0425C68.6358 15.014 65.0675 5.30906 58.5571 -2.32812H57.0101C63.7496 5.19967 67.4686 14.9461 67.4541 25.0425C67.4541 47.7624 49.0056 66.1799 26.2474 66.1799C15.1477 66.1799 5.0724 61.7983 -2.33594 54.6737V56.2717Z" fill="#FFCE00"/>
<path d="M-2.33477 47.1917C4.2849 55.694 14.6274 61.1635 26.2486 61.1635C46.2312 61.1635 62.4304 44.9915 62.4304 25.0425C62.4304 14.1012 57.5584 4.29556 49.8607 -2.32812H48.0302C56.0942 4.07659 61.2626 13.9568 61.2626 25.0425C61.2626 44.3486 45.5861 59.9988 26.2474 59.9988C14.4454 59.9988 4.00723 54.1706 -2.33594 45.2396L-2.33477 47.1917Z" fill="#FFCE00"/>
<path d="M-2.33594 34.1342C1.5199 46.225 12.8587 54.9824 26.2474 54.9824C42.8106 54.9824 56.2389 41.5778 56.2389 25.0425C56.2389 12.834 48.9192 2.33186 38.4239 -2.32812H35.1712C46.7212 1.42223 55.0722 12.2587 55.0722 25.0425C55.0722 40.9349 42.1666 53.8189 26.2474 53.8189C11.5976 53.8189 -0.499604 42.9079 -2.33594 28.7812V34.1342ZM-2.33594 21.3038V15.9508C-1.04493 11.9221 1.08412 8.21118 3.91175 5.06114C6.73937 1.9111 10.2018 -0.606977 14.0721 -2.32812H17.3236C6.91689 1.05069 -0.889271 10.1808 -2.33594 21.3038ZM4.46456 -2.32812C1.87083 -0.267993 -0.41859 2.14737 -2.33594 4.84646V2.89092C-0.856079 0.991198 0.809152 -0.757068 2.63523 -2.32812H4.46456ZM64.9154 -2.32812H66.3387C68.8878 1.38408 70.9046 5.43372 72.3307 9.70329V13.93C70.9206 8.08797 68.4035 2.56933 64.9154 -2.32812Z" fill="#FFCE00"/>
<path fill-rule="evenodd" clip-rule="evenodd" d="M26.2489 15.1875C23.6312 15.1875 21.1207 16.2256 19.2698 18.0735C17.4188 19.9214 16.3789 22.4276 16.3789 25.0409C16.3789 27.6542 17.4188 30.1605 19.2698 32.0083C21.1207 33.8562 23.6312 34.8943 26.2489 34.8943C28.8666 34.8943 31.3771 33.8562 33.228 32.0083C35.079 30.1605 36.1189 27.6542 36.1189 25.0409C36.1189 22.4276 35.079 19.9214 33.228 18.0735C31.3771 16.2256 28.8666 15.1875 26.2489 15.1875ZM17.5456 25.0409C17.5456 22.7365 18.4625 20.5265 20.0947 18.8971C21.7269 17.2676 23.9406 16.3522 26.2489 16.3522C28.5572 16.3522 30.7709 17.2676 32.4031 18.8971C34.0353 20.5265 34.9522 22.7365 34.9522 25.0409C34.9522 27.3453 34.0353 29.5553 32.4031 31.1848C30.7709 32.8142 28.5572 33.7296 26.2489 33.7296C23.9406 33.7296 21.7269 32.8142 20.0947 31.1848C18.4625 29.5553 17.5456 27.3453 17.5456 25.0409Z" fill="#FFCE00"/>
<path fill-rule="evenodd" clip-rule="evenodd" d="M26.249 9.00781C17.3788 9.00781 10.1875 16.1871 10.1875 25.0423C10.1875 33.8976 17.3788 41.0768 26.249 41.0768C35.1192 41.0768 42.3105 33.8976 42.3105 25.0423C42.3105 16.1871 35.1192 9.00781 26.249 9.00781ZM11.3542 25.0423C11.3542 16.8311 18.0228 10.1725 26.249 10.1725C34.474 10.1725 41.1438 16.83 41.1438 25.0423C41.1438 33.2535 34.4752 39.9121 26.249 39.9121C18.024 39.9121 11.3542 33.2547 11.3542 25.0423Z" fill="#FFCE00"/>
<path fill-rule="evenodd" clip-rule="evenodd" d="M26.2492 1.28125C13.1044 1.28125 2.44922 11.9185 2.44922 25.0413C2.44922 38.164 13.1044 48.8013 26.2492 48.8013C39.3941 48.8013 50.0492 38.164 50.0492 25.0413C50.0492 11.9185 39.3941 1.28125 26.2492 1.28125ZM3.61589 25.0413C3.61589 12.5626 13.7496 2.44596 26.2492 2.44596C38.7489 2.44596 48.8826 12.5626 48.8826 25.0413C48.8826 37.5199 38.7489 47.6365 26.2492 47.6365C13.7496 47.6365 3.61589 37.5199 3.61589 25.0413Z" fill="#FFCE00"/>
<path d="M59.4987 5.82812H10.4987C7.92137 5.82812 5.83203 7.91395 5.83203 10.4869V57.0752C5.83203 59.6482 7.92137 61.734 10.4987 61.734H59.4987C62.076 61.734 64.1654 59.6482 64.1654 57.0752V10.4869C64.1654 7.91395 62.076 5.82812 59.4987 5.82812Z" fill="white" fill-opacity="0.75"/>
<path d="M59.4974 6.40625H10.4974C8.24223 6.40625 6.41406 8.23135 6.41406 10.4827V57.071C6.41406 59.3223 8.24223 61.1474 10.4974 61.1474H59.4974C61.7526 61.1474 63.5807 59.3223 63.5807 57.071V10.4827C63.5807 8.23135 61.7526 6.40625 59.4974 6.40625Z" stroke="white" stroke-opacity="0.5"/>
<path d="M33.2232 17.0874C33.4169 16.6107 33.7488 16.2027 34.1764 15.9157C34.604 15.6287 35.1078 15.4757 35.623 15.4766H52.2119C54.04 15.4766 55.2907 17.3075 54.6117 18.9905L41.9079 50.469C41.7142 50.9457 41.3822 51.3537 40.9546 51.6407C40.527 51.9277 40.0233 52.0806 39.508 52.0798H22.9192C21.091 52.0798 19.8404 50.2489 20.5194 48.5659L33.2232 17.0885V17.0874Z" fill="url(#paint1_linear_2265_4302)"/>
<path d="M26.1997 37.44C27.6538 37.455 29.0964 37.182 30.4441 36.6368C31.7918 36.0916 33.0179 35.2851 34.0514 34.2639C35.0849 33.2427 35.9053 32.0271 36.4653 30.6873C37.0252 29.3476 37.3135 27.9103 37.3135 26.4586C37.3135 25.0069 37.0252 23.5696 36.4653 22.2298C35.9053 20.8901 35.0849 19.6744 34.0514 18.6532C33.0179 17.632 31.7918 16.8255 30.4441 16.2804C29.0964 15.7352 27.6538 15.4622 26.1997 15.4771C23.302 15.5069 20.5331 16.677 18.4945 18.7332C16.456 20.7894 15.3125 23.5656 15.3125 26.4586C15.3125 29.3516 16.456 32.1278 18.4945 34.1839C20.5331 36.2401 23.302 37.4102 26.1997 37.44Z" fill="#0A33FF"/>
<path d="M37.2 26.4571C37.2001 27.9975 36.8757 29.5206 36.2478 30.9276C35.6199 32.3346 34.7025 33.594 33.5553 34.624C32.408 35.654 31.0566 36.4315 29.5887 36.9061C28.1209 37.3806 26.5694 37.5416 25.0352 37.3786L32.944 17.7812C34.2701 18.807 35.3433 20.1224 36.081 21.6265C36.8188 23.1306 37.2016 24.7824 37.2 26.4571Z" fill="url(#paint2_linear_2265_4302)"/>
<path d="M13.0191 73.2476C12.7041 73.2476 12.4462 73.1847 12.2421 73.0589C12.0448 72.9302 11.892 72.744 11.8046 72.5255C11.7061 72.2713 11.6585 72.0002 11.6646 71.7277V68.7344H12.5081V71.7277C12.5081 71.8989 12.5162 72.02 12.5349 72.0922C12.5438 72.1257 12.5605 72.1567 12.5836 72.1826C12.6067 72.2085 12.6356 72.2286 12.6679 72.2413C12.7379 72.2646 12.8546 72.2751 13.0191 72.2751H13.2582L13.2979 72.7759L13.2582 73.2476H13.0191Z" fill="#19191A"/>
<path d="M13.1852 72.2715H13.8292C14.0066 72.2715 14.1349 72.2389 14.2142 72.1713C14.2947 72.0991 14.3309 71.9978 14.3216 71.8673C14.3062 71.6996 14.284 71.5325 14.2551 71.3665C14.2201 71.151 14.1839 70.9437 14.1489 70.7457L14.9388 70.5431C14.9971 70.7678 15.0473 71.0136 15.0904 71.2792C15.1359 71.5447 15.1604 71.7637 15.1639 71.9349C15.1683 72.1546 15.1203 72.3721 15.0239 72.5696C14.931 72.7726 14.781 72.9441 14.5923 73.0635C14.3826 73.19 14.1406 73.2531 13.8958 73.2452H13.1852V72.2715ZM13.0336 74.0628H13.9692V74.941H13.0312V74.0628H13.0336ZM21.7544 73.2452C21.5926 73.2471 21.4344 73.1973 21.3029 73.1031C21.1636 72.988 21.06 72.8357 21.0042 72.664C20.9271 72.4289 20.8912 72.1822 20.8981 71.9349H21.3554C21.3554 72.0653 21.3893 72.1562 21.4558 72.2051C21.5258 72.2505 21.6261 72.2726 21.7544 72.2726H21.8944L21.9527 72.7793L21.8944 73.2452H21.7544ZM18.2287 71.5633C18.1226 71.7897 18.0359 72.0246 17.9697 72.2657C17.9136 72.4798 17.8846 72.7001 17.8834 72.9214C17.8834 73.1543 17.9161 73.3488 17.9826 73.5026C18.0526 73.6598 18.1634 73.7763 18.3151 73.8532C18.4691 73.9347 18.6767 73.9754 18.9392 73.9754H19.5109C19.7933 73.9754 20.0056 73.9498 20.1479 73.9009C20.2115 73.882 20.27 73.8492 20.3193 73.8049C20.3685 73.7606 20.4072 73.7058 20.4326 73.6447C20.4862 73.5224 20.5131 73.3418 20.5131 73.1031V70.9833H21.3566V73.1031C21.3566 73.6715 21.2049 74.1187 20.9051 74.4483C20.6076 74.7814 20.1432 74.948 19.5097 74.948H18.9381C18.5414 74.948 18.1996 74.8571 17.9161 74.6778C17.6346 74.4997 17.411 74.244 17.2721 73.9417C17.1231 73.6224 17.0481 73.2736 17.0527 72.9214C17.0527 72.6465 17.0994 72.3542 17.1928 72.0432C17.2861 71.7322 17.3957 71.4457 17.5241 71.1848L18.2287 71.5633ZM18.8856 70.3672H19.8224V71.2454H18.8856V70.3672Z" fill="#19191A"/>
<path d="M21.8281 72.2744H22.0008C22.0718 72.2785 22.1421 72.2575 22.1991 72.215C22.256 72.1552 22.2934 72.0797 22.3065 71.9984L22.4791 71.3496C22.576 70.9583 22.7405 70.659 22.9703 70.4516C23.2001 70.2443 23.4766 70.1407 23.801 70.1407C24.0461 70.1386 24.2855 70.2145 24.4846 70.3573C24.6876 70.4971 24.8475 70.6927 24.963 70.9443C25.0773 71.1924 25.1356 71.4719 25.1356 71.7829C25.1356 72.1521 25.075 72.4561 24.956 72.6937C24.859 72.9071 24.7022 73.0879 24.5045 73.2143C24.3356 73.3146 24.1432 73.3685 23.9468 73.3704C23.7835 73.3704 23.6085 73.3343 23.4218 73.2621C23.2351 73.1899 22.9481 73.0594 22.5585 72.8696L22.3858 72.7822L22.758 71.9518L22.8443 71.9914C23.2025 72.1673 23.4533 72.2849 23.5945 72.3431C23.7368 72.3967 23.8651 72.4247 23.9795 72.4247C24.0332 72.4263 24.0864 72.4134 24.1332 72.3871C24.1801 72.3608 24.2189 72.3222 24.2455 72.2756C24.312 72.1719 24.3446 72.01 24.3446 71.7887C24.3446 71.5639 24.298 71.3904 24.2046 71.2693C24.1639 71.214 24.1118 71.168 24.0518 71.1345C23.9918 71.101 23.9253 71.0807 23.8567 71.0749C23.7882 71.0692 23.7193 71.0782 23.6545 71.1012C23.5898 71.1243 23.5307 71.1609 23.4813 71.2087C23.3722 71.3256 23.2986 71.471 23.269 71.628L23.0765 72.3699C23.035 72.5333 22.9591 72.6859 22.8536 72.8175C22.7482 72.9491 22.6157 73.0566 22.4651 73.1328C22.3265 73.2081 22.1714 73.2481 22.0136 73.2493H21.8281V72.2744ZM25.7131 72.7484L25.6595 73.2493H25.5603C25.3259 73.2576 25.0944 73.196 24.8953 73.0722C24.7161 72.9473 24.5797 72.7704 24.5045 72.5656C24.4148 72.3166 24.3721 72.0532 24.3785 71.7887L25.1356 71.7829C25.1356 71.9273 25.1473 72.0322 25.1683 72.0997C25.1899 72.1618 25.2352 72.2129 25.2943 72.2418C25.3526 72.2651 25.4401 72.2756 25.5603 72.2756H25.6595L25.7131 72.7484Z" fill="#19191A"/>
<path d="M25.5898 72.2734H26.9782L27.0307 72.7475L26.9782 73.2483H25.5898V72.2734Z" fill="#19191A"/>
<path d="M26.9062 72.2734H28.2946L28.3483 72.7475L28.2946 73.2483H26.9062V72.2734Z" fill="#19191A"/>
<path d="M28.2238 72.2734H29.6122L29.6647 72.7475L29.611 73.2483H28.2227V72.2746L28.2238 72.2734Z" fill="#19191A"/>
<path d="M29.5349 72.2727H30.2711C30.4706 72.2727 30.6129 72.2401 30.6969 72.1726C30.7809 72.1004 30.8183 71.999 30.8089 71.8686C30.7948 71.6988 30.773 71.5298 30.7436 71.362C30.7132 71.1561 30.6774 70.951 30.6363 70.747L31.4331 70.5443C31.4868 70.7691 31.5358 71.0149 31.5801 71.2804C31.6279 71.546 31.6524 71.7649 31.6524 71.9362C31.6571 72.1609 31.6104 72.3752 31.5124 72.5767C31.4156 72.7759 31.2674 72.9378 31.0691 73.0647C30.8474 73.1933 30.5937 73.2563 30.3376 73.2464H29.5338V72.2739L29.5349 72.2727ZM29.3086 74.078H30.2174V74.8817H29.3086V74.078ZM30.1649 74.078H31.0679V74.8817H30.1649V74.078ZM32.5041 68.7344H33.3476V73.2464H32.5041V68.7344ZM36.7216 73.2464C36.4113 73.2464 36.1464 73.1672 35.9248 73.01C35.708 72.8583 35.5434 72.6435 35.4534 72.395C35.3646 72.1366 35.3461 71.8593 35.3998 71.5914C35.4581 71.263 35.5188 70.959 35.5864 70.6794L36.3623 70.8751L36.3226 71.058C36.2526 71.3771 36.2083 71.6054 36.1896 71.7405C36.1782 71.8084 36.1818 71.878 36.2001 71.9444C36.2185 72.0108 36.2511 72.0724 36.2958 72.1248C36.3891 72.2238 36.5314 72.2739 36.7216 72.2739H39.6103C39.7969 72.2739 39.9253 72.2495 39.9953 72.1994C40.0711 72.1458 40.1084 72.055 40.1084 71.9292V70.9834H40.9578V71.9629C40.9578 72.0794 40.9869 72.1609 41.0441 72.2064C41.1059 72.2518 41.2039 72.2739 41.3358 72.2739H41.5364L41.5761 72.7747L41.5353 73.2464H41.3369C41.1993 73.2464 41.0558 73.2197 40.9053 73.1649C40.7549 73.1067 40.6188 73.017 40.5063 72.9017C40.4004 73.0167 40.2683 73.1046 40.1213 73.1579C39.9577 73.2182 39.7846 73.2482 39.6103 73.2464H36.7216ZM37.4053 70.0039H38.3153V70.8075H37.4064L37.4053 70.0039ZM38.2616 70.0039H39.1658V70.8075H38.2616V70.0039Z" fill="#19191A"/>
<path d="M41.466 72.2734H42.8543L42.9068 72.7475L42.8532 73.2483H41.4648V72.2746L41.466 72.2734Z" fill="#19191A"/>
<path d="M42.7812 72.2734H44.1696L44.2221 72.7475L44.1696 73.2483H42.7812V72.2734Z" fill="#19191A"/>
<path d="M44.0742 72.2711H44.8711C45.1756 72.2711 45.4661 72.2455 45.7402 72.1907C46.0202 72.1325 46.2851 72.051 46.5371 71.9473C46.7902 71.8448 47.0644 71.7074 47.3607 71.5362L47.5206 71.4418L47.5532 71.7656L47.3339 71.6783C46.8906 71.5199 46.5044 71.3917 46.1719 71.2927C45.8452 71.1891 45.6364 71.1378 45.5477 71.1378C45.4618 71.1351 45.3783 71.1665 45.3156 71.2252C45.2382 71.3047 45.1813 71.4019 45.1499 71.5082L44.4056 71.266C44.5071 70.9142 44.6576 70.6463 44.8571 70.4623C45.0421 70.2833 45.29 70.1837 45.5477 70.1851C45.7111 70.1851 45.9677 70.2457 46.3177 70.3668C46.6677 70.4833 47.0971 70.651 47.6069 70.8676C47.7702 70.9305 47.8869 70.9771 47.9581 71.0086L48.0841 72.0684L47.8321 72.2315C47.4739 72.4575 47.1484 72.6392 46.8556 72.7789C46.5686 72.9187 46.2582 73.0317 45.9269 73.1167C45.5991 73.2017 45.2467 73.2448 44.8711 73.2448H44.0742V72.2711ZM45.1429 68.7188H46.0786V69.5969H45.1429V68.7188ZM48.9311 68.7327H49.7746V73.2448H48.9311V68.7327ZM52.5151 70.1234C52.6516 70.3354 52.7717 70.5252 52.8732 70.6918C52.9794 70.8537 53.0949 71.0354 53.2186 71.2392C53.3784 71.5001 53.4624 71.7633 53.4706 72.0288C53.4854 72.2572 53.4298 72.4847 53.3111 72.6804C53.1923 72.8762 53.0163 73.0309 52.8067 73.1237C52.6166 73.2052 52.3867 73.2448 52.1161 73.2448H51.7637C51.4849 73.2448 51.2387 73.1994 51.0276 73.1097C50.8468 73.0352 50.6787 72.933 50.5294 72.8069L50.9272 72.0288L50.9471 72.0486C51.0497 72.1034 51.1641 72.1546 51.2924 72.2047C51.4254 72.2501 51.5841 72.2723 51.7707 72.2723H52.0962C52.2421 72.2723 52.3529 72.2606 52.4287 72.2373C52.4969 72.2225 52.5579 72.1847 52.6014 72.1302C52.6166 72.1062 52.6267 72.0793 52.6311 72.0513C52.6355 72.0233 52.6341 71.9946 52.6271 71.9671C52.6033 71.8808 52.5654 71.7989 52.5151 71.7249C52.1811 71.2085 51.8424 70.6952 51.4989 70.1851L52.2094 69.6447L52.5151 70.1234ZM55.4854 70.9818V72.8872C55.4854 73.3147 55.4096 73.6839 55.2591 73.9949C55.1132 74.3058 54.8974 74.5423 54.6081 74.7042C54.3257 74.8672 53.9781 74.9476 53.5662 74.9476H53.1474V73.9751H53.5662C53.8451 73.9751 54.0597 73.9401 54.2102 73.8737C54.2849 73.8445 54.3525 73.7999 54.4086 73.7426C54.4648 73.6854 54.5081 73.617 54.5357 73.5418C54.6022 73.3892 54.6349 73.1703 54.6349 72.8872V70.9818H55.4854ZM55.4854 71.9613C55.4854 72.0778 55.5146 72.1593 55.5717 72.2047C55.6336 72.2501 55.7304 72.2723 55.8634 72.2723H55.9894L56.0302 72.7649L55.9894 73.2448H55.8634C55.7487 73.2457 55.6353 73.2201 55.5321 73.1703C55.4299 73.1159 55.345 73.0339 55.2871 72.9338C55.2187 72.7996 55.1779 72.6531 55.1669 72.5029L55.4854 71.9613Z" fill="#19191A"/>
<path d="M56.2136 72.2675H56.9439C57.1481 72.2675 57.2916 72.2349 57.3756 72.1673C57.4596 72.0951 57.4981 71.9938 57.4888 71.8633C57.4743 71.6935 57.4521 71.5245 57.4223 71.3567C57.3873 71.1447 57.3523 70.9397 57.3161 70.7417L58.1059 70.5391C58.1643 70.7639 58.2144 71.0096 58.2588 71.2752C58.3031 71.5407 58.3276 71.7597 58.3323 71.9309C58.3369 72.1557 58.2903 72.37 58.1923 72.5715C58.0954 72.7706 57.9473 72.9325 57.7478 73.0595C57.5259 73.1866 57.2731 73.2495 57.0174 73.2412H56.2136V72.2675ZM56.7853 75.538V74.8555H57.5809V75.538H56.7853ZM56.2929 74.5852V73.7816H57.2029V74.5852H56.2929ZM57.1633 74.5852V73.7816H58.0663V74.5852H57.1633ZM55.9348 72.2675H56.2603L56.2999 72.7485L56.2603 73.2412H55.9336V72.2686L55.9348 72.2675Z" fill="#19191A"/>
<path fill-rule="evenodd" clip-rule="evenodd" d="M22.0346 78.0391C22.6062 78.0391 23.0717 78.4956 23.0717 79.0582V84.1538C23.0717 84.7163 23.5361 85.1729 24.1089 85.1729H27.2192C27.3545 85.1741 27.4886 85.1487 27.614 85.0982C27.7394 85.0476 27.8536 84.9728 27.95 84.8782C28.0464 84.7835 28.1232 84.6709 28.176 84.5465C28.2288 84.4222 28.2565 84.2888 28.2576 84.1538V83.1347C28.2576 82.5721 28.7207 82.1155 29.2936 82.1155C29.8664 82.1155 30.3307 82.5721 30.3307 83.1347V84.1538C30.3307 85.8426 28.9377 87.2111 27.2192 87.2111H24.1089C22.3904 87.2111 20.9974 85.8426 20.9974 84.1538V79.0582C20.9974 78.4956 21.4617 78.0391 22.0346 78.0391ZM24.1089 89.2494C24.1089 88.6868 24.5732 88.2302 25.1461 88.2302H28.2564C28.8292 88.2302 29.2947 88.6868 29.2947 89.2494V90.2685C29.2937 90.4035 29.2659 90.537 29.2132 90.6613C29.1604 90.7856 29.0836 90.8982 28.9872 90.9929C28.8907 91.0875 28.7766 91.1623 28.6512 91.2129C28.5258 91.2634 28.3916 91.2888 28.2564 91.2876C28.1213 91.2887 27.9872 91.2632 27.862 91.2125C27.7367 91.1619 27.6227 91.0871 27.5264 90.9925C27.4301 90.8979 27.3534 90.7852 27.3007 90.661C27.248 90.5368 27.2203 90.4034 27.2192 90.2685H25.1461C25.0108 90.2697 24.8767 90.2443 24.7513 90.1937C24.6259 90.1432 24.5117 90.0684 24.4153 89.9738C24.3189 89.8791 24.2421 89.7664 24.1893 89.6421C24.1365 89.5178 24.11 89.3844 24.1089 89.2494ZM18.9231 78.0391C19.4959 78.0391 19.9614 78.4956 19.9614 79.0582V86.1769C19.9614 88.4294 18.1029 90.2685 15.8116 90.2685C13.5214 90.2685 11.6641 88.4282 11.6641 86.1769V84.1538C11.6641 83.5912 12.1284 83.1347 12.7012 83.1347C13.2729 83.1347 13.7384 83.5912 13.7384 84.1538V86.1769C13.7384 87.3031 14.6659 88.2302 15.8116 88.2302C16.9572 88.2302 17.8859 87.3031 17.8859 86.1769V79.0582C17.8859 78.4956 18.3491 78.0391 18.9231 78.0391ZM57.2936 81.0964C57.4983 81.0968 57.6987 81.0373 57.8699 80.9252C57.9977 80.8434 58.1053 80.7338 58.1846 80.6047C58.264 80.4755 58.3131 80.3301 58.3283 80.1794C58.3434 80.0286 58.3242 79.8764 58.2721 79.734C58.22 79.5917 58.1364 79.463 58.0274 79.3575C57.8816 79.2137 57.6966 79.116 57.4956 79.0767C57.2945 79.0373 57.0862 79.058 56.8969 79.1362C56.7081 79.2127 56.5461 79.3432 56.4314 79.5113C56.2986 79.7067 56.2388 79.9424 56.2622 80.1774C56.2857 80.4123 56.391 80.6316 56.5597 80.7971C56.7558 80.9894 57.0187 81.0969 57.2936 81.0964ZM35.5166 81.0964C35.7209 81.0966 35.9208 81.037 36.0917 80.9252C36.2197 80.8436 36.3275 80.7341 36.407 80.6049C36.4865 80.4757 36.5356 80.3303 36.5508 80.1794C36.566 80.0286 36.5467 79.8763 36.4945 79.7339C36.4422 79.5916 36.3584 79.4629 36.2492 79.3575C36.1035 79.2137 35.9185 79.116 35.7174 79.0767C35.5163 79.0373 35.3081 79.058 35.1187 79.1362C34.93 79.2128 34.768 79.3432 34.6532 79.5113C34.5204 79.7067 34.4606 79.9426 34.4843 80.1776C34.5079 80.4127 34.6136 80.6319 34.7827 80.7971C34.9786 80.9891 35.2421 81.0966 35.5166 81.0964ZM57.2936 82.1155C57.0196 82.1152 56.7566 82.2223 56.5609 82.4137C56.4649 82.5077 56.3887 82.6199 56.3366 82.7437C56.2845 82.8675 56.2576 83.0004 56.2576 83.1347V86.8291C56.2576 87.3649 56.1036 87.7213 55.9297 87.9251C55.8428 88.0271 55.7335 88.1077 55.6102 88.1607C55.487 88.2136 55.3532 88.2374 55.2192 88.2302C54.9453 88.23 54.6822 88.337 54.4866 88.5284C54.3907 88.6225 54.3145 88.7347 54.2626 88.8585C54.2106 88.9823 54.1838 89.1151 54.1838 89.2494C54.1838 89.3836 54.2106 89.5165 54.2626 89.6402C54.3145 89.764 54.3907 89.8762 54.4866 89.9703C54.6822 90.1617 54.9453 90.2688 55.2192 90.2685C55.6567 90.2743 56.0896 90.1858 56.4874 90.0064C56.8841 89.8282 57.2364 89.565 57.5176 89.2354C58.0694 88.5901 58.3307 87.7364 58.3307 86.8291V83.1347C58.3307 83.0004 58.3038 82.8675 58.2517 82.7437C58.1996 82.6199 58.1234 82.5077 58.0274 82.4137C57.8315 82.222 57.5679 82.1149 57.2936 82.1155ZM54.1821 83.1347C54.182 83.0004 54.1551 82.8675 54.103 82.7437C54.051 82.6199 53.9747 82.5077 53.8787 82.4137C53.6832 82.2216 53.4198 82.1139 53.1455 82.1139C52.8711 82.1139 52.6078 82.2216 52.4122 82.4137C52.3162 82.5077 52.24 82.6199 52.1879 82.7437C52.1358 82.8675 52.109 83.0004 52.1089 83.1347V86.8291C52.1089 87.3649 51.9549 87.7213 51.7811 87.9251C51.6943 88.027 51.5852 88.1076 51.4622 88.1605C51.3391 88.2134 51.2055 88.2373 51.0717 88.2302C50.7974 88.2296 50.5338 88.3367 50.3379 88.5284C50.242 88.6225 50.1659 88.7347 50.1139 88.8585C50.0619 88.9823 50.0351 89.1151 50.0351 89.2494C50.0351 89.3836 50.0619 89.5165 50.1139 89.6402C50.1659 89.764 50.242 89.8762 50.3379 89.9703C50.5338 90.162 50.7974 90.2691 51.0717 90.2685C51.5081 90.2743 51.9409 90.1858 52.3387 90.0064C52.7354 89.8282 53.0889 89.565 53.3689 89.2354C53.9207 88.5901 54.1821 87.7364 54.1821 86.8291V83.1347ZM47.9602 88.2302H44.8487C44.5748 88.23 44.3117 88.337 44.1161 88.5284C44.0202 88.6225 43.944 88.7347 43.8921 88.8585C43.8401 88.9823 43.8133 89.1151 43.8133 89.2494C43.8133 89.3836 43.8401 89.5165 43.8921 89.6402C43.944 89.764 44.0202 89.8762 44.1161 89.9703C44.3117 90.1617 44.5748 90.2688 44.8487 90.2685H47.9602C48.2346 90.2691 48.4981 90.162 48.6941 89.9703C48.7899 89.8762 48.8661 89.764 48.9181 89.6402C48.9701 89.5165 48.9968 89.3836 48.9968 89.2494C48.9968 89.1151 48.9701 88.9823 48.9181 88.8585C48.8661 88.7347 48.7899 88.6225 48.6941 88.5284C48.4981 88.3367 48.2346 88.2296 47.9602 88.2302ZM50.0346 83.1347C50.0345 83.0004 50.0076 82.8675 49.9555 82.7437C49.9035 82.6199 49.8272 82.5077 49.7312 82.4137C49.5356 82.2212 49.272 82.1133 48.9974 82.1133C48.7228 82.1133 48.4591 82.2212 48.2636 82.4137C48.1676 82.5077 48.0913 82.6199 48.0392 82.7437C47.9872 82.8675 47.9603 83.0004 47.9602 83.1347V84.2563C47.9602 84.7513 47.5671 85.1729 46.9231 85.1729H40.7024C40.0584 85.1729 39.6652 84.7513 39.6652 84.2563V83.1347C39.6652 83.0004 39.6383 82.8675 39.5862 82.7437C39.5341 82.6199 39.4579 82.5077 39.3619 82.4137C39.1664 82.2216 38.903 82.1139 38.6286 82.1139C38.3543 82.1139 38.0909 82.2216 37.8954 82.4137C37.7994 82.5077 37.7232 82.6199 37.6711 82.7437C37.619 82.8675 37.5921 83.0004 37.5921 83.1347V86.192C37.5921 86.7324 37.3727 87.2519 36.9842 87.6327C36.5925 88.0165 36.0654 88.2311 35.5166 88.2302C34.9671 88.2302 34.4397 88.0159 34.0501 87.6327C33.8582 87.4448 33.7058 87.2206 33.6017 86.9733C33.4975 86.7259 33.4437 86.4603 33.4434 86.192V83.1347C33.4433 83.0004 33.4165 82.8675 33.3644 82.7437C33.3123 82.6199 33.236 82.5077 33.1401 82.4137C32.9445 82.2212 32.6809 82.1133 32.4062 82.1133C32.1316 82.1133 31.868 82.2212 31.6724 82.4137C31.5764 82.5077 31.5002 82.6199 31.4481 82.7437C31.396 82.8675 31.3691 83.0004 31.3691 83.1347V86.192C31.3691 87.2018 31.7506 88.1743 32.4389 88.9244C33.1342 89.6747 34.0804 90.1453 35.0991 90.2476C36.1179 90.35 37.1389 90.0769 37.9701 89.48C38.7954 88.8878 39.3696 88.0093 39.5801 87.0166C39.9394 87.1447 40.3197 87.2111 40.7024 87.2111H46.9242C48.5716 87.2111 50.0357 86.0115 50.0357 84.2563L50.0346 83.1347Z" fill="#19191A"/>
</g>
<path d="M62.9987 0.585938H6.9987C3.45487 0.585938 0.582031 3.45395 0.582031 6.99182V92.0154C0.582031 95.5532 3.45487 98.4212 6.9987 98.4212H62.9987C66.5425 98.4212 69.4154 95.5532 69.4154 92.0154V6.99182C69.4154 3.45395 66.5425 0.585938 62.9987 0.585938Z" stroke="white" stroke-opacity="0.5"/>
</g>
<defs>
<linearGradient id="paint0_linear_2265_4302" x1="52.5" y1="25.7808" x2="-3.41613" y2="120.849" gradientUnits="userSpaceOnUse">
<stop offset="0.377" stop-color="#FFD60A"/>
<stop offset="1" stop-color="#F5BE09"/>
</linearGradient>
<linearGradient id="paint1_linear_2265_4302" x1="44.3987" y1="15.4766" x2="30.5829" y2="52.144" gradientUnits="userSpaceOnUse">
<stop stop-color="#FFD60A"/>
<stop offset="1" stop-color="#F5BE09"/>
</linearGradient>
<linearGradient id="paint2_linear_2265_4302" x1="32.8635" y1="17.7952" x2="25.0299" y2="37.3528" gradientUnits="userSpaceOnUse">
<stop stop-color="#051A80"/>
<stop offset="1" stop-color="#0A33FF"/>
</linearGradient>
<clipPath id="clip0_2265_4302">
<rect width="70" height="99" fill="white"/>
</clipPath>
</defs>
</svg>
